G04 #@! TF.GenerationSoftware,KiCad,Pcbnew,(5.1.2)-1*
G04 #@! TF.CreationDate,2020-05-02T19:55:24+09:00*
G04 #@! TF.ProjectId,PowerBoard,506f7765-7242-46f6-9172-642e6b696361,rev?*
G04 #@! TF.SameCoordinates,Original*
G04 #@! TF.FileFunction,Legend,Top*
G04 #@! TF.FilePolarity,Positive*
%FSLAX46Y46*%
G04 Gerber Fmt 4.6, Leading zero omitted, Abs format (unit mm)*
G04 Created by KiCad (PCBNEW (5.1.2)-1) date 2020-05-02 19:55:24*
%MOMM*%
%LPD*%
G04 APERTURE LIST*
%ADD10C,0.150000*%
%ADD11C,0.200000*%
%ADD12C,0.120000*%
G04 APERTURE END LIST*
D10*
X30591666Y-32647380D02*
X30591666Y-31647380D01*
X30829761Y-31647380D01*
X30972619Y-31695000D01*
X31067857Y-31790238D01*
X31115476Y-31885476D01*
X31163095Y-32075952D01*
X31163095Y-32218809D01*
X31115476Y-32409285D01*
X31067857Y-32504523D01*
X30972619Y-32599761D01*
X30829761Y-32647380D01*
X30591666Y-32647380D01*
X31972619Y-32599761D02*
X31877380Y-32647380D01*
X31686904Y-32647380D01*
X31591666Y-32599761D01*
X31544047Y-32504523D01*
X31544047Y-32123571D01*
X31591666Y-32028333D01*
X31686904Y-31980714D01*
X31877380Y-31980714D01*
X31972619Y-32028333D01*
X32020238Y-32123571D01*
X32020238Y-32218809D01*
X31544047Y-32314047D01*
X32401190Y-32599761D02*
X32496428Y-32647380D01*
X32686904Y-32647380D01*
X32782142Y-32599761D01*
X32829761Y-32504523D01*
X32829761Y-32456904D01*
X32782142Y-32361666D01*
X32686904Y-32314047D01*
X32544047Y-32314047D01*
X32448809Y-32266428D01*
X32401190Y-32171190D01*
X32401190Y-32123571D01*
X32448809Y-32028333D01*
X32544047Y-31980714D01*
X32686904Y-31980714D01*
X32782142Y-32028333D01*
X33258333Y-32647380D02*
X33258333Y-31980714D01*
X33258333Y-31647380D02*
X33210714Y-31695000D01*
X33258333Y-31742619D01*
X33305952Y-31695000D01*
X33258333Y-31647380D01*
X33258333Y-31742619D01*
X34163095Y-31980714D02*
X34163095Y-32790238D01*
X34115476Y-32885476D01*
X34067857Y-32933095D01*
X33972619Y-32980714D01*
X33829761Y-32980714D01*
X33734523Y-32933095D01*
X34163095Y-32599761D02*
X34067857Y-32647380D01*
X33877380Y-32647380D01*
X33782142Y-32599761D01*
X33734523Y-32552142D01*
X33686904Y-32456904D01*
X33686904Y-32171190D01*
X33734523Y-32075952D01*
X33782142Y-32028333D01*
X33877380Y-31980714D01*
X34067857Y-31980714D01*
X34163095Y-32028333D01*
X34639285Y-31980714D02*
X34639285Y-32647380D01*
X34639285Y-32075952D02*
X34686904Y-32028333D01*
X34782142Y-31980714D01*
X34925000Y-31980714D01*
X35020238Y-32028333D01*
X35067857Y-32123571D01*
X35067857Y-32647380D01*
X35925000Y-32599761D02*
X35829761Y-32647380D01*
X35639285Y-32647380D01*
X35544047Y-32599761D01*
X35496428Y-32504523D01*
X35496428Y-32123571D01*
X35544047Y-32028333D01*
X35639285Y-31980714D01*
X35829761Y-31980714D01*
X35925000Y-32028333D01*
X35972619Y-32123571D01*
X35972619Y-32218809D01*
X35496428Y-32314047D01*
X36829761Y-32647380D02*
X36829761Y-31647380D01*
X36829761Y-32599761D02*
X36734523Y-32647380D01*
X36544047Y-32647380D01*
X36448809Y-32599761D01*
X36401190Y-32552142D01*
X36353571Y-32456904D01*
X36353571Y-32171190D01*
X36401190Y-32075952D01*
X36448809Y-32028333D01*
X36544047Y-31980714D01*
X36734523Y-31980714D01*
X36829761Y-32028333D01*
X38067857Y-32647380D02*
X38067857Y-31647380D01*
X38067857Y-32028333D02*
X38163095Y-31980714D01*
X38353571Y-31980714D01*
X38448809Y-32028333D01*
X38496428Y-32075952D01*
X38544047Y-32171190D01*
X38544047Y-32456904D01*
X38496428Y-32552142D01*
X38448809Y-32599761D01*
X38353571Y-32647380D01*
X38163095Y-32647380D01*
X38067857Y-32599761D01*
X38877380Y-31980714D02*
X39115476Y-32647380D01*
X39353571Y-31980714D02*
X39115476Y-32647380D01*
X39020238Y-32885476D01*
X38972619Y-32933095D01*
X38877380Y-32980714D01*
X31020238Y-33821190D02*
X30972619Y-33773571D01*
X30877380Y-33725952D01*
X30782142Y-33725952D01*
X30686904Y-33773571D01*
X30639285Y-33821190D01*
X30591666Y-33916428D01*
X30591666Y-34011666D01*
X30639285Y-34106904D01*
X30686904Y-34154523D01*
X30782142Y-34202142D01*
X30877380Y-34202142D01*
X30972619Y-34154523D01*
X31020238Y-34106904D01*
X31020238Y-33725952D02*
X31020238Y-34106904D01*
X31067857Y-34154523D01*
X31115476Y-34154523D01*
X31210714Y-34106904D01*
X31258333Y-34011666D01*
X31258333Y-33773571D01*
X31163095Y-33630714D01*
X31020238Y-33535476D01*
X30829761Y-33487857D01*
X30639285Y-33535476D01*
X30496428Y-33630714D01*
X30401190Y-33773571D01*
X30353571Y-33964047D01*
X30401190Y-34154523D01*
X30496428Y-34297380D01*
X30639285Y-34392619D01*
X30829761Y-34440238D01*
X31020238Y-34392619D01*
X31163095Y-34297380D01*
X32115476Y-34297380D02*
X32115476Y-33773571D01*
X32067857Y-33678333D01*
X31972619Y-33630714D01*
X31782142Y-33630714D01*
X31686904Y-33678333D01*
X32115476Y-34249761D02*
X32020238Y-34297380D01*
X31782142Y-34297380D01*
X31686904Y-34249761D01*
X31639285Y-34154523D01*
X31639285Y-34059285D01*
X31686904Y-33964047D01*
X31782142Y-33916428D01*
X32020238Y-33916428D01*
X32115476Y-33868809D01*
X32591666Y-34297380D02*
X32591666Y-33297380D01*
X32686904Y-33916428D02*
X32972619Y-34297380D01*
X32972619Y-33630714D02*
X32591666Y-34011666D01*
X33401190Y-34297380D02*
X33401190Y-33630714D01*
X33401190Y-33297380D02*
X33353571Y-33345000D01*
X33401190Y-33392619D01*
X33448809Y-33345000D01*
X33401190Y-33297380D01*
X33401190Y-33392619D01*
X33734523Y-33630714D02*
X34115476Y-33630714D01*
X33877380Y-33297380D02*
X33877380Y-34154523D01*
X33925000Y-34249761D01*
X34020238Y-34297380D01*
X34115476Y-34297380D01*
X34591666Y-34297380D02*
X34496428Y-34249761D01*
X34448809Y-34202142D01*
X34401190Y-34106904D01*
X34401190Y-33821190D01*
X34448809Y-33725952D01*
X34496428Y-33678333D01*
X34591666Y-33630714D01*
X34734523Y-33630714D01*
X34829761Y-33678333D01*
X34877380Y-33725952D01*
X34925000Y-33821190D01*
X34925000Y-34106904D01*
X34877380Y-34202142D01*
X34829761Y-34249761D01*
X34734523Y-34297380D01*
X34591666Y-34297380D01*
X35115476Y-34392619D02*
X35877380Y-34392619D01*
X36305952Y-33297380D02*
X36401190Y-33297380D01*
X36496428Y-33345000D01*
X36544047Y-33392619D01*
X36591666Y-33487857D01*
X36639285Y-33678333D01*
X36639285Y-33916428D01*
X36591666Y-34106904D01*
X36544047Y-34202142D01*
X36496428Y-34249761D01*
X36401190Y-34297380D01*
X36305952Y-34297380D01*
X36210714Y-34249761D01*
X36163095Y-34202142D01*
X36115476Y-34106904D01*
X36067857Y-33916428D01*
X36067857Y-33678333D01*
X36115476Y-33487857D01*
X36163095Y-33392619D01*
X36210714Y-33345000D01*
X36305952Y-33297380D01*
X37115476Y-34297380D02*
X37305952Y-34297380D01*
X37401190Y-34249761D01*
X37448809Y-34202142D01*
X37544047Y-34059285D01*
X37591666Y-33868809D01*
X37591666Y-33487857D01*
X37544047Y-33392619D01*
X37496428Y-33345000D01*
X37401190Y-33297380D01*
X37210714Y-33297380D01*
X37115476Y-33345000D01*
X37067857Y-33392619D01*
X37020238Y-33487857D01*
X37020238Y-33725952D01*
X37067857Y-33821190D01*
X37115476Y-33868809D01*
X37210714Y-33916428D01*
X37401190Y-33916428D01*
X37496428Y-33868809D01*
X37544047Y-33821190D01*
X37591666Y-33725952D01*
X38544047Y-34297380D02*
X37972619Y-34297380D01*
X38258333Y-34297380D02*
X38258333Y-33297380D01*
X38163095Y-33440238D01*
X38067857Y-33535476D01*
X37972619Y-33583095D01*
X39401190Y-33630714D02*
X39401190Y-34297380D01*
X39163095Y-33249761D02*
X38925000Y-33964047D01*
X39544047Y-33964047D01*
X32353809Y-29662380D02*
X32353809Y-28662380D01*
X32734761Y-28662380D01*
X32829999Y-28710000D01*
X32877619Y-28757619D01*
X32925238Y-28852857D01*
X32925238Y-28995714D01*
X32877619Y-29090952D01*
X32829999Y-29138571D01*
X32734761Y-29186190D01*
X32353809Y-29186190D01*
X33496666Y-29662380D02*
X33401428Y-29614761D01*
X33353809Y-29567142D01*
X33306190Y-29471904D01*
X33306190Y-29186190D01*
X33353809Y-29090952D01*
X33401428Y-29043333D01*
X33496666Y-28995714D01*
X33639523Y-28995714D01*
X33734761Y-29043333D01*
X33782380Y-29090952D01*
X33830000Y-29186190D01*
X33830000Y-29471904D01*
X33782380Y-29567142D01*
X33734761Y-29614761D01*
X33639523Y-29662380D01*
X33496666Y-29662380D01*
X34163333Y-28995714D02*
X34353809Y-29662380D01*
X34544285Y-29186190D01*
X34734761Y-29662380D01*
X34925238Y-28995714D01*
X35687142Y-29614761D02*
X35591904Y-29662380D01*
X35401428Y-29662380D01*
X35306190Y-29614761D01*
X35258571Y-29519523D01*
X35258571Y-29138571D01*
X35306190Y-29043333D01*
X35401428Y-28995714D01*
X35591904Y-28995714D01*
X35687142Y-29043333D01*
X35734761Y-29138571D01*
X35734761Y-29233809D01*
X35258571Y-29329047D01*
X36163333Y-29662380D02*
X36163333Y-28995714D01*
X36163333Y-29186190D02*
X36210952Y-29090952D01*
X36258571Y-29043333D01*
X36353809Y-28995714D01*
X36449047Y-28995714D01*
X37544285Y-29662380D02*
X37544285Y-28662380D01*
X37544285Y-29043333D02*
X37639523Y-28995714D01*
X37830000Y-28995714D01*
X37925238Y-29043333D01*
X37972857Y-29090952D01*
X38020476Y-29186190D01*
X38020476Y-29471904D01*
X37972857Y-29567142D01*
X37925238Y-29614761D01*
X37830000Y-29662380D01*
X37639523Y-29662380D01*
X37544285Y-29614761D01*
X38591904Y-29662380D02*
X38496666Y-29614761D01*
X38449047Y-29567142D01*
X38401428Y-29471904D01*
X38401428Y-29186190D01*
X38449047Y-29090952D01*
X38496666Y-29043333D01*
X38591904Y-28995714D01*
X38734761Y-28995714D01*
X38830000Y-29043333D01*
X38877619Y-29090952D01*
X38925238Y-29186190D01*
X38925238Y-29471904D01*
X38877619Y-29567142D01*
X38830000Y-29614761D01*
X38734761Y-29662380D01*
X38591904Y-29662380D01*
X39782380Y-29662380D02*
X39782380Y-29138571D01*
X39734761Y-29043333D01*
X39639523Y-28995714D01*
X39449047Y-28995714D01*
X39353809Y-29043333D01*
X39782380Y-29614761D02*
X39687142Y-29662380D01*
X39449047Y-29662380D01*
X39353809Y-29614761D01*
X39306190Y-29519523D01*
X39306190Y-29424285D01*
X39353809Y-29329047D01*
X39449047Y-29281428D01*
X39687142Y-29281428D01*
X39782380Y-29233809D01*
X40258571Y-29662380D02*
X40258571Y-28995714D01*
X40258571Y-29186190D02*
X40306190Y-29090952D01*
X40353809Y-29043333D01*
X40449047Y-28995714D01*
X40544285Y-28995714D01*
X41306190Y-29662380D02*
X41306190Y-28662380D01*
X41306190Y-29614761D02*
X41210952Y-29662380D01*
X41020476Y-29662380D01*
X40925238Y-29614761D01*
X40877619Y-29567142D01*
X40830000Y-29471904D01*
X40830000Y-29186190D01*
X40877619Y-29090952D01*
X40925238Y-29043333D01*
X41020476Y-28995714D01*
X41210952Y-28995714D01*
X41306190Y-29043333D01*
X30512619Y-27757380D02*
X30512619Y-26757380D01*
X30845952Y-27471666D01*
X31179285Y-26757380D01*
X31179285Y-27757380D01*
X31560238Y-27090714D02*
X31798333Y-27757380D01*
X32036428Y-27090714D02*
X31798333Y-27757380D01*
X31703095Y-27995476D01*
X31655476Y-28043095D01*
X31560238Y-28090714D01*
X32369761Y-27709761D02*
X32512619Y-27757380D01*
X32750714Y-27757380D01*
X32845952Y-27709761D01*
X32893571Y-27662142D01*
X32941190Y-27566904D01*
X32941190Y-27471666D01*
X32893571Y-27376428D01*
X32845952Y-27328809D01*
X32750714Y-27281190D01*
X32560238Y-27233571D01*
X32465000Y-27185952D01*
X32417380Y-27138333D01*
X32369761Y-27043095D01*
X32369761Y-26947857D01*
X32417380Y-26852619D01*
X32465000Y-26805000D01*
X32560238Y-26757380D01*
X32798333Y-26757380D01*
X32941190Y-26805000D01*
X33750714Y-27709761D02*
X33655476Y-27757380D01*
X33465000Y-27757380D01*
X33369761Y-27709761D01*
X33322142Y-27614523D01*
X33322142Y-27233571D01*
X33369761Y-27138333D01*
X33465000Y-27090714D01*
X33655476Y-27090714D01*
X33750714Y-27138333D01*
X33798333Y-27233571D01*
X33798333Y-27328809D01*
X33322142Y-27424047D01*
X34226904Y-27757380D02*
X34226904Y-27090714D01*
X34226904Y-27281190D02*
X34274523Y-27185952D01*
X34322142Y-27138333D01*
X34417380Y-27090714D01*
X34512619Y-27090714D01*
X34750714Y-27090714D02*
X34988809Y-27757380D01*
X35226904Y-27090714D01*
X35750714Y-27757380D02*
X35655476Y-27709761D01*
X35607857Y-27662142D01*
X35560238Y-27566904D01*
X35560238Y-27281190D01*
X35607857Y-27185952D01*
X35655476Y-27138333D01*
X35750714Y-27090714D01*
X35893571Y-27090714D01*
X35988809Y-27138333D01*
X36036428Y-27185952D01*
X36084047Y-27281190D01*
X36084047Y-27566904D01*
X36036428Y-27662142D01*
X35988809Y-27709761D01*
X35893571Y-27757380D01*
X35750714Y-27757380D01*
X36465000Y-27471666D02*
X36941190Y-27471666D01*
X36369761Y-27757380D02*
X36703095Y-26757380D01*
X37036428Y-27757380D01*
X37369761Y-27757380D02*
X37369761Y-27090714D01*
X37369761Y-27185952D02*
X37417380Y-27138333D01*
X37512619Y-27090714D01*
X37655476Y-27090714D01*
X37750714Y-27138333D01*
X37798333Y-27233571D01*
X37798333Y-27757380D01*
X37798333Y-27233571D02*
X37845952Y-27138333D01*
X37941190Y-27090714D01*
X38084047Y-27090714D01*
X38179285Y-27138333D01*
X38226904Y-27233571D01*
X38226904Y-27757380D01*
X38703095Y-27090714D02*
X38703095Y-28090714D01*
X38703095Y-27138333D02*
X38798333Y-27090714D01*
X38988809Y-27090714D01*
X39084047Y-27138333D01*
X39131666Y-27185952D01*
X39179285Y-27281190D01*
X39179285Y-27566904D01*
X39131666Y-27662142D01*
X39084047Y-27709761D01*
X38988809Y-27757380D01*
X38798333Y-27757380D01*
X38703095Y-27709761D01*
X39607857Y-27757380D02*
X39607857Y-26757380D01*
X39988809Y-26757380D01*
X40084047Y-26805000D01*
X40131666Y-26852619D01*
X40179285Y-26947857D01*
X40179285Y-27090714D01*
X40131666Y-27185952D01*
X40084047Y-27233571D01*
X39988809Y-27281190D01*
X39607857Y-27281190D01*
X40607857Y-27757380D02*
X40607857Y-27090714D01*
X40607857Y-27281190D02*
X40655476Y-27185952D01*
X40703095Y-27138333D01*
X40798333Y-27090714D01*
X40893571Y-27090714D01*
X41369761Y-27757380D02*
X41274523Y-27709761D01*
X41226904Y-27662142D01*
X41179285Y-27566904D01*
X41179285Y-27281190D01*
X41226904Y-27185952D01*
X41274523Y-27138333D01*
X41369761Y-27090714D01*
X41512619Y-27090714D01*
X41607857Y-27138333D01*
X41655476Y-27185952D01*
X41703095Y-27281190D01*
X41703095Y-27566904D01*
X41655476Y-27662142D01*
X41607857Y-27709761D01*
X41512619Y-27757380D01*
X41369761Y-27757380D01*
X42131666Y-27090714D02*
X42131666Y-27947857D01*
X42084047Y-28043095D01*
X41988809Y-28090714D01*
X41941190Y-28090714D01*
X42131666Y-26757380D02*
X42084047Y-26805000D01*
X42131666Y-26852619D01*
X42179285Y-26805000D01*
X42131666Y-26757380D01*
X42131666Y-26852619D01*
X42988809Y-27709761D02*
X42893571Y-27757380D01*
X42703095Y-27757380D01*
X42607857Y-27709761D01*
X42560238Y-27614523D01*
X42560238Y-27233571D01*
X42607857Y-27138333D01*
X42703095Y-27090714D01*
X42893571Y-27090714D01*
X42988809Y-27138333D01*
X43036428Y-27233571D01*
X43036428Y-27328809D01*
X42560238Y-27424047D01*
X43893571Y-27709761D02*
X43798333Y-27757380D01*
X43607857Y-27757380D01*
X43512619Y-27709761D01*
X43465000Y-27662142D01*
X43417380Y-27566904D01*
X43417380Y-27281190D01*
X43465000Y-27185952D01*
X43512619Y-27138333D01*
X43607857Y-27090714D01*
X43798333Y-27090714D01*
X43893571Y-27138333D01*
X44179285Y-27090714D02*
X44560238Y-27090714D01*
X44322142Y-26757380D02*
X44322142Y-27614523D01*
X44369761Y-27709761D01*
X44465000Y-27757380D01*
X44560238Y-27757380D01*
X7028571Y-33948571D02*
X7028571Y-34805714D01*
X7028571Y-34377142D02*
X5528571Y-34377142D01*
X5742857Y-34520000D01*
X5885714Y-34662857D01*
X5957142Y-34805714D01*
X5528571Y-32591428D02*
X5528571Y-33305714D01*
X6242857Y-33377142D01*
X6171428Y-33305714D01*
X6100000Y-33162857D01*
X6100000Y-32805714D01*
X6171428Y-32662857D01*
X6242857Y-32591428D01*
X6385714Y-32520000D01*
X6742857Y-32520000D01*
X6885714Y-32591428D01*
X6957142Y-32662857D01*
X7028571Y-32805714D01*
X7028571Y-33162857D01*
X6957142Y-33305714D01*
X6885714Y-33377142D01*
X5528571Y-32091428D02*
X7028571Y-31591428D01*
X5528571Y-31091428D01*
X-5901428Y-33940714D02*
X-5901428Y-34655000D01*
X-5187142Y-34726428D01*
X-5258571Y-34655000D01*
X-5330000Y-34512142D01*
X-5330000Y-34155000D01*
X-5258571Y-34012142D01*
X-5187142Y-33940714D01*
X-5044285Y-33869285D01*
X-4687142Y-33869285D01*
X-4544285Y-33940714D01*
X-4472857Y-34012142D01*
X-4401428Y-34155000D01*
X-4401428Y-34512142D01*
X-4472857Y-34655000D01*
X-4544285Y-34726428D01*
X-5901428Y-33440714D02*
X-4401428Y-32940714D01*
X-5901428Y-32440714D01*
D11*
X18228571Y-35186428D02*
X19728571Y-34686428D01*
X18228571Y-34186428D01*
X19728571Y-33686428D02*
X18228571Y-33686428D01*
X19300000Y-33186428D01*
X18228571Y-32686428D01*
X19728571Y-32686428D01*
X18228571Y-30543571D02*
X18228571Y-30257857D01*
X18300000Y-30115000D01*
X18442857Y-29972142D01*
X18728571Y-29900714D01*
X19228571Y-29900714D01*
X19514285Y-29972142D01*
X19657142Y-30115000D01*
X19728571Y-30257857D01*
X19728571Y-30543571D01*
X19657142Y-30686428D01*
X19514285Y-30829285D01*
X19228571Y-30900714D01*
X18728571Y-30900714D01*
X18442857Y-30829285D01*
X18300000Y-30686428D01*
X18228571Y-30543571D01*
X18228571Y-29257857D02*
X19442857Y-29257857D01*
X19585714Y-29186428D01*
X19657142Y-29115000D01*
X19728571Y-28972142D01*
X19728571Y-28686428D01*
X19657142Y-28543571D01*
X19585714Y-28472142D01*
X19442857Y-28400714D01*
X18228571Y-28400714D01*
X18228571Y-27900714D02*
X18228571Y-27043571D01*
X19728571Y-27472142D02*
X18228571Y-27472142D01*
X-46001428Y23880000D02*
X-45287142Y23880000D01*
X-46144285Y23451428D02*
X-45644285Y24951428D01*
X-45144285Y23451428D01*
X-43787142Y23594285D02*
X-43858571Y23522857D01*
X-44072857Y23451428D01*
X-44215714Y23451428D01*
X-44430000Y23522857D01*
X-44572857Y23665714D01*
X-44644285Y23808571D01*
X-44715714Y24094285D01*
X-44715714Y24308571D01*
X-44644285Y24594285D01*
X-44572857Y24737142D01*
X-44430000Y24880000D01*
X-44215714Y24951428D01*
X-44072857Y24951428D01*
X-43858571Y24880000D01*
X-43787142Y24808571D01*
X-42001428Y23451428D02*
X-42001428Y24951428D01*
X-41287142Y23451428D02*
X-41287142Y24951428D01*
X-40430000Y23451428D01*
X-40430000Y24951428D01*
D12*
X-46880000Y12570000D02*
X-46880000Y-13030000D01*
X-46880000Y-13030000D02*
X-980000Y-13030000D01*
X-46880000Y12570000D02*
X-980000Y12570000D01*
X-980000Y12570000D02*
X-980000Y-13030000D01*
X-47180000Y2270000D02*
X-47180000Y270000D01*
X-21620000Y13260000D02*
X-24275000Y13260000D01*
X-17635000Y13260000D02*
X-20290000Y13260000D01*
X-21620000Y25000000D02*
X-24275000Y25000000D01*
X-17635000Y25000000D02*
X-20290000Y25000000D01*
X-24275000Y25000000D02*
X-24275000Y13260000D01*
X-17635000Y25000000D02*
X-17635000Y13260000D01*
X47430000Y-17145000D02*
G75*
G03X47430000Y-17145000I-8120000J0D01*
G01*
X39310000Y-9064000D02*
X39310000Y-25226000D01*
X39350000Y-9065000D02*
X39350000Y-25225000D01*
X39390000Y-9065000D02*
X39390000Y-25225000D01*
X39430000Y-9065000D02*
X39430000Y-25225000D01*
X39470000Y-9066000D02*
X39470000Y-25224000D01*
X39510000Y-9067000D02*
X39510000Y-25223000D01*
X39550000Y-9068000D02*
X39550000Y-25222000D01*
X39590000Y-9069000D02*
X39590000Y-25221000D01*
X39630000Y-9071000D02*
X39630000Y-25219000D01*
X39670000Y-9072000D02*
X39670000Y-25218000D01*
X39710000Y-9074000D02*
X39710000Y-25216000D01*
X39750000Y-9076000D02*
X39750000Y-25214000D01*
X39790000Y-9079000D02*
X39790000Y-25211000D01*
X39830000Y-9081000D02*
X39830000Y-25209000D01*
X39870000Y-9084000D02*
X39870000Y-25206000D01*
X39910000Y-9087000D02*
X39910000Y-25203000D01*
X39950000Y-9090000D02*
X39950000Y-25200000D01*
X39990000Y-9093000D02*
X39990000Y-25197000D01*
X40031000Y-9096000D02*
X40031000Y-25194000D01*
X40071000Y-9100000D02*
X40071000Y-25190000D01*
X40111000Y-9104000D02*
X40111000Y-25186000D01*
X40151000Y-9108000D02*
X40151000Y-25182000D01*
X40191000Y-9112000D02*
X40191000Y-25178000D01*
X40231000Y-9117000D02*
X40231000Y-25173000D01*
X40271000Y-9121000D02*
X40271000Y-25169000D01*
X40311000Y-9126000D02*
X40311000Y-25164000D01*
X40351000Y-9131000D02*
X40351000Y-25159000D01*
X40391000Y-9137000D02*
X40391000Y-25153000D01*
X40431000Y-9142000D02*
X40431000Y-25148000D01*
X40471000Y-9148000D02*
X40471000Y-25142000D01*
X40511000Y-9154000D02*
X40511000Y-25136000D01*
X40551000Y-9160000D02*
X40551000Y-25130000D01*
X40591000Y-9166000D02*
X40591000Y-25124000D01*
X40631000Y-9173000D02*
X40631000Y-25117000D01*
X40671000Y-9179000D02*
X40671000Y-25111000D01*
X40711000Y-9186000D02*
X40711000Y-25104000D01*
X40751000Y-9193000D02*
X40751000Y-25097000D01*
X40791000Y-9201000D02*
X40791000Y-25089000D01*
X40831000Y-9208000D02*
X40831000Y-25082000D01*
X40871000Y-9216000D02*
X40871000Y-25074000D01*
X40911000Y-9224000D02*
X40911000Y-25066000D01*
X40951000Y-9232000D02*
X40951000Y-25058000D01*
X40991000Y-9240000D02*
X40991000Y-25050000D01*
X41031000Y-9249000D02*
X41031000Y-25041000D01*
X41071000Y-9258000D02*
X41071000Y-25032000D01*
X41111000Y-9267000D02*
X41111000Y-25023000D01*
X41151000Y-9276000D02*
X41151000Y-25014000D01*
X41191000Y-9285000D02*
X41191000Y-25005000D01*
X41231000Y-9295000D02*
X41231000Y-24995000D01*
X41271000Y-9305000D02*
X41271000Y-24985000D01*
X41311000Y-9315000D02*
X41311000Y-24975000D01*
X41351000Y-9325000D02*
X41351000Y-24965000D01*
X41391000Y-9335000D02*
X41391000Y-24955000D01*
X41431000Y-9346000D02*
X41431000Y-24944000D01*
X41471000Y-9357000D02*
X41471000Y-24933000D01*
X41511000Y-9368000D02*
X41511000Y-24922000D01*
X41551000Y-9380000D02*
X41551000Y-24910000D01*
X41591000Y-9391000D02*
X41591000Y-24899000D01*
X41631000Y-9403000D02*
X41631000Y-15705000D01*
X41631000Y-18585000D02*
X41631000Y-24887000D01*
X41671000Y-9415000D02*
X41671000Y-15705000D01*
X41671000Y-18585000D02*
X41671000Y-24875000D01*
X41711000Y-9427000D02*
X41711000Y-15705000D01*
X41711000Y-18585000D02*
X41711000Y-24863000D01*
X41751000Y-9440000D02*
X41751000Y-15705000D01*
X41751000Y-18585000D02*
X41751000Y-24850000D01*
X41791000Y-9452000D02*
X41791000Y-15705000D01*
X41791000Y-18585000D02*
X41791000Y-24838000D01*
X41831000Y-9465000D02*
X41831000Y-15705000D01*
X41831000Y-18585000D02*
X41831000Y-24825000D01*
X41871000Y-9479000D02*
X41871000Y-15705000D01*
X41871000Y-18585000D02*
X41871000Y-24811000D01*
X41911000Y-9492000D02*
X41911000Y-15705000D01*
X41911000Y-18585000D02*
X41911000Y-24798000D01*
X41951000Y-9506000D02*
X41951000Y-15705000D01*
X41951000Y-18585000D02*
X41951000Y-24784000D01*
X41991000Y-9520000D02*
X41991000Y-15705000D01*
X41991000Y-18585000D02*
X41991000Y-24770000D01*
X42031000Y-9534000D02*
X42031000Y-15705000D01*
X42031000Y-18585000D02*
X42031000Y-24756000D01*
X42071000Y-9548000D02*
X42071000Y-15705000D01*
X42071000Y-18585000D02*
X42071000Y-24742000D01*
X42111000Y-9563000D02*
X42111000Y-15705000D01*
X42111000Y-18585000D02*
X42111000Y-24727000D01*
X42151000Y-9577000D02*
X42151000Y-15705000D01*
X42151000Y-18585000D02*
X42151000Y-24713000D01*
X42191000Y-9592000D02*
X42191000Y-15705000D01*
X42191000Y-18585000D02*
X42191000Y-24698000D01*
X42231000Y-9608000D02*
X42231000Y-15705000D01*
X42231000Y-18585000D02*
X42231000Y-24682000D01*
X42271000Y-9623000D02*
X42271000Y-15705000D01*
X42271000Y-18585000D02*
X42271000Y-24667000D01*
X42311000Y-9639000D02*
X42311000Y-15705000D01*
X42311000Y-18585000D02*
X42311000Y-24651000D01*
X42351000Y-9655000D02*
X42351000Y-15705000D01*
X42351000Y-18585000D02*
X42351000Y-24635000D01*
X42391000Y-9671000D02*
X42391000Y-15705000D01*
X42391000Y-18585000D02*
X42391000Y-24619000D01*
X42431000Y-9688000D02*
X42431000Y-15705000D01*
X42431000Y-18585000D02*
X42431000Y-24602000D01*
X42471000Y-9705000D02*
X42471000Y-15705000D01*
X42471000Y-18585000D02*
X42471000Y-24585000D01*
X42511000Y-9722000D02*
X42511000Y-15705000D01*
X42511000Y-18585000D02*
X42511000Y-24568000D01*
X42551000Y-9739000D02*
X42551000Y-15705000D01*
X42551000Y-18585000D02*
X42551000Y-24551000D01*
X42591000Y-9756000D02*
X42591000Y-15705000D01*
X42591000Y-18585000D02*
X42591000Y-24534000D01*
X42631000Y-9774000D02*
X42631000Y-15705000D01*
X42631000Y-18585000D02*
X42631000Y-24516000D01*
X42671000Y-9792000D02*
X42671000Y-15705000D01*
X42671000Y-18585000D02*
X42671000Y-24498000D01*
X42711000Y-9811000D02*
X42711000Y-15705000D01*
X42711000Y-18585000D02*
X42711000Y-24479000D01*
X42751000Y-9829000D02*
X42751000Y-15705000D01*
X42751000Y-18585000D02*
X42751000Y-24461000D01*
X42791000Y-9848000D02*
X42791000Y-15705000D01*
X42791000Y-18585000D02*
X42791000Y-24442000D01*
X42831000Y-9867000D02*
X42831000Y-15705000D01*
X42831000Y-18585000D02*
X42831000Y-24423000D01*
X42871000Y-9887000D02*
X42871000Y-15705000D01*
X42871000Y-18585000D02*
X42871000Y-24403000D01*
X42911000Y-9906000D02*
X42911000Y-15705000D01*
X42911000Y-18585000D02*
X42911000Y-24384000D01*
X42951000Y-9926000D02*
X42951000Y-15705000D01*
X42951000Y-18585000D02*
X42951000Y-24364000D01*
X42991000Y-9946000D02*
X42991000Y-15705000D01*
X42991000Y-18585000D02*
X42991000Y-24344000D01*
X43031000Y-9967000D02*
X43031000Y-15705000D01*
X43031000Y-18585000D02*
X43031000Y-24323000D01*
X43071000Y-9988000D02*
X43071000Y-15705000D01*
X43071000Y-18585000D02*
X43071000Y-24302000D01*
X43111000Y-10009000D02*
X43111000Y-15705000D01*
X43111000Y-18585000D02*
X43111000Y-24281000D01*
X43151000Y-10030000D02*
X43151000Y-15705000D01*
X43151000Y-18585000D02*
X43151000Y-24260000D01*
X43191000Y-10051000D02*
X43191000Y-15705000D01*
X43191000Y-18585000D02*
X43191000Y-24239000D01*
X43231000Y-10073000D02*
X43231000Y-15705000D01*
X43231000Y-18585000D02*
X43231000Y-24217000D01*
X43271000Y-10096000D02*
X43271000Y-15705000D01*
X43271000Y-18585000D02*
X43271000Y-24194000D01*
X43311000Y-10118000D02*
X43311000Y-15705000D01*
X43311000Y-18585000D02*
X43311000Y-24172000D01*
X43351000Y-10141000D02*
X43351000Y-15705000D01*
X43351000Y-18585000D02*
X43351000Y-24149000D01*
X43391000Y-10164000D02*
X43391000Y-15705000D01*
X43391000Y-18585000D02*
X43391000Y-24126000D01*
X43431000Y-10187000D02*
X43431000Y-15705000D01*
X43431000Y-18585000D02*
X43431000Y-24103000D01*
X43471000Y-10211000D02*
X43471000Y-15705000D01*
X43471000Y-18585000D02*
X43471000Y-24079000D01*
X43511000Y-10235000D02*
X43511000Y-15705000D01*
X43511000Y-18585000D02*
X43511000Y-24055000D01*
X43551000Y-10259000D02*
X43551000Y-15705000D01*
X43551000Y-18585000D02*
X43551000Y-24031000D01*
X43591000Y-10284000D02*
X43591000Y-15705000D01*
X43591000Y-18585000D02*
X43591000Y-24006000D01*
X43631000Y-10309000D02*
X43631000Y-15705000D01*
X43631000Y-18585000D02*
X43631000Y-23981000D01*
X43671000Y-10334000D02*
X43671000Y-15705000D01*
X43671000Y-18585000D02*
X43671000Y-23956000D01*
X43711000Y-10360000D02*
X43711000Y-15705000D01*
X43711000Y-18585000D02*
X43711000Y-23930000D01*
X43751000Y-10386000D02*
X43751000Y-15705000D01*
X43751000Y-18585000D02*
X43751000Y-23904000D01*
X43791000Y-10412000D02*
X43791000Y-15705000D01*
X43791000Y-18585000D02*
X43791000Y-23878000D01*
X43831000Y-10439000D02*
X43831000Y-15705000D01*
X43831000Y-18585000D02*
X43831000Y-23851000D01*
X43871000Y-10466000D02*
X43871000Y-15705000D01*
X43871000Y-18585000D02*
X43871000Y-23824000D01*
X43911000Y-10493000D02*
X43911000Y-15705000D01*
X43911000Y-18585000D02*
X43911000Y-23797000D01*
X43951000Y-10521000D02*
X43951000Y-15705000D01*
X43951000Y-18585000D02*
X43951000Y-23769000D01*
X43991000Y-10549000D02*
X43991000Y-15705000D01*
X43991000Y-18585000D02*
X43991000Y-23741000D01*
X44031000Y-10577000D02*
X44031000Y-15705000D01*
X44031000Y-18585000D02*
X44031000Y-23713000D01*
X44071000Y-10606000D02*
X44071000Y-15705000D01*
X44071000Y-18585000D02*
X44071000Y-23684000D01*
X44111000Y-10635000D02*
X44111000Y-15705000D01*
X44111000Y-18585000D02*
X44111000Y-23655000D01*
X44151000Y-10665000D02*
X44151000Y-15705000D01*
X44151000Y-18585000D02*
X44151000Y-23625000D01*
X44191000Y-10695000D02*
X44191000Y-15705000D01*
X44191000Y-18585000D02*
X44191000Y-23595000D01*
X44231000Y-10725000D02*
X44231000Y-15705000D01*
X44231000Y-18585000D02*
X44231000Y-23565000D01*
X44271000Y-10755000D02*
X44271000Y-15705000D01*
X44271000Y-18585000D02*
X44271000Y-23535000D01*
X44311000Y-10787000D02*
X44311000Y-15705000D01*
X44311000Y-18585000D02*
X44311000Y-23503000D01*
X44351000Y-10818000D02*
X44351000Y-15705000D01*
X44351000Y-18585000D02*
X44351000Y-23472000D01*
X44391000Y-10850000D02*
X44391000Y-15705000D01*
X44391000Y-18585000D02*
X44391000Y-23440000D01*
X44431000Y-10882000D02*
X44431000Y-15705000D01*
X44431000Y-18585000D02*
X44431000Y-23408000D01*
X44471000Y-10915000D02*
X44471000Y-15705000D01*
X44471000Y-18585000D02*
X44471000Y-23375000D01*
X44511000Y-10948000D02*
X44511000Y-23342000D01*
X44551000Y-10982000D02*
X44551000Y-23308000D01*
X44591000Y-11016000D02*
X44591000Y-23274000D01*
X44631000Y-11050000D02*
X44631000Y-23240000D01*
X44671000Y-11085000D02*
X44671000Y-23205000D01*
X44711000Y-11120000D02*
X44711000Y-23170000D01*
X44751000Y-11156000D02*
X44751000Y-23134000D01*
X44791000Y-11193000D02*
X44791000Y-23097000D01*
X44831000Y-11229000D02*
X44831000Y-23061000D01*
X44871000Y-11267000D02*
X44871000Y-23023000D01*
X44911000Y-11305000D02*
X44911000Y-22985000D01*
X44951000Y-11343000D02*
X44951000Y-22947000D01*
X44991000Y-11382000D02*
X44991000Y-22908000D01*
X45031000Y-11421000D02*
X45031000Y-22869000D01*
X45071000Y-11461000D02*
X45071000Y-22829000D01*
X45111000Y-11502000D02*
X45111000Y-22788000D01*
X45151000Y-11543000D02*
X45151000Y-22747000D01*
X45191000Y-11585000D02*
X45191000Y-22705000D01*
X45231000Y-11627000D02*
X45231000Y-22663000D01*
X45271000Y-11670000D02*
X45271000Y-22620000D01*
X45311000Y-11713000D02*
X45311000Y-22577000D01*
X45351000Y-11757000D02*
X45351000Y-22533000D01*
X45391000Y-11802000D02*
X45391000Y-22488000D01*
X45431000Y-11848000D02*
X45431000Y-22442000D01*
X45471000Y-11894000D02*
X45471000Y-22396000D01*
X45511000Y-11941000D02*
X45511000Y-22349000D01*
X45551000Y-11989000D02*
X45551000Y-22301000D01*
X45591000Y-12037000D02*
X45591000Y-22253000D01*
X45631000Y-12086000D02*
X45631000Y-22204000D01*
X45671000Y-12136000D02*
X45671000Y-22154000D01*
X45711000Y-12187000D02*
X45711000Y-22103000D01*
X45751000Y-12239000D02*
X45751000Y-22051000D01*
X45791000Y-12291000D02*
X45791000Y-21999000D01*
X45831000Y-12345000D02*
X45831000Y-21945000D01*
X45871000Y-12399000D02*
X45871000Y-21891000D01*
X45911000Y-12454000D02*
X45911000Y-21836000D01*
X45951000Y-12511000D02*
X45951000Y-21779000D01*
X45991000Y-12568000D02*
X45991000Y-21722000D01*
X46031000Y-12626000D02*
X46031000Y-21664000D01*
X46071000Y-12686000D02*
X46071000Y-21604000D01*
X46111000Y-12747000D02*
X46111000Y-21543000D01*
X46151000Y-12809000D02*
X46151000Y-21481000D01*
X46191000Y-12872000D02*
X46191000Y-21418000D01*
X46231000Y-12936000D02*
X46231000Y-21354000D01*
X46271000Y-13002000D02*
X46271000Y-21288000D01*
X46311000Y-13069000D02*
X46311000Y-21221000D01*
X46351000Y-13138000D02*
X46351000Y-21152000D01*
X46391000Y-13209000D02*
X46391000Y-21081000D01*
X46431000Y-13281000D02*
X46431000Y-21009000D01*
X46471000Y-13355000D02*
X46471000Y-20935000D01*
X46511000Y-13430000D02*
X46511000Y-20860000D01*
X46551000Y-13508000D02*
X46551000Y-20782000D01*
X46591000Y-13588000D02*
X46591000Y-20702000D01*
X46631000Y-13670000D02*
X46631000Y-20620000D01*
X46671000Y-13755000D02*
X46671000Y-20535000D01*
X46711000Y-13842000D02*
X46711000Y-20448000D01*
X46751000Y-13932000D02*
X46751000Y-20358000D01*
X46791000Y-14025000D02*
X46791000Y-20265000D01*
X46831000Y-14121000D02*
X46831000Y-20169000D01*
X46871000Y-14221000D02*
X46871000Y-20069000D01*
X46911000Y-14325000D02*
X46911000Y-19965000D01*
X46951000Y-14434000D02*
X46951000Y-19856000D01*
X46991000Y-14548000D02*
X46991000Y-19742000D01*
X47031000Y-14667000D02*
X47031000Y-19623000D01*
X47071000Y-14794000D02*
X47071000Y-19496000D01*
X47111000Y-14927000D02*
X47111000Y-19363000D01*
X47151000Y-15071000D02*
X47151000Y-19219000D01*
X47191000Y-15225000D02*
X47191000Y-19065000D01*
X47231000Y-15393000D02*
X47231000Y-18897000D01*
X47271000Y-15581000D02*
X47271000Y-18709000D01*
X47311000Y-15794000D02*
X47311000Y-18496000D01*
X47351000Y-16047000D02*
X47351000Y-18243000D01*
X47391000Y-16380000D02*
X47391000Y-17910000D01*
X30620509Y-12590000D02*
X32220509Y-12590000D01*
X31420509Y-11790000D02*
X31420509Y-13390000D01*
X940509Y-9250000D02*
X940509Y-10850000D01*
X140509Y-10050000D02*
X1740509Y-10050000D01*
X16911000Y-13840000D02*
X16911000Y-15370000D01*
X16871000Y-13507000D02*
X16871000Y-15703000D01*
X16831000Y-13254000D02*
X16831000Y-15956000D01*
X16791000Y-13041000D02*
X16791000Y-16169000D01*
X16751000Y-12853000D02*
X16751000Y-16357000D01*
X16711000Y-12685000D02*
X16711000Y-16525000D01*
X16671000Y-12531000D02*
X16671000Y-16679000D01*
X16631000Y-12387000D02*
X16631000Y-16823000D01*
X16591000Y-12254000D02*
X16591000Y-16956000D01*
X16551000Y-12127000D02*
X16551000Y-17083000D01*
X16511000Y-12008000D02*
X16511000Y-17202000D01*
X16471000Y-11894000D02*
X16471000Y-17316000D01*
X16431000Y-11785000D02*
X16431000Y-17425000D01*
X16391000Y-11681000D02*
X16391000Y-17529000D01*
X16351000Y-11581000D02*
X16351000Y-17629000D01*
X16311000Y-11485000D02*
X16311000Y-17725000D01*
X16271000Y-11392000D02*
X16271000Y-17818000D01*
X16231000Y-11302000D02*
X16231000Y-17908000D01*
X16191000Y-11215000D02*
X16191000Y-17995000D01*
X16151000Y-11130000D02*
X16151000Y-18080000D01*
X16111000Y-11048000D02*
X16111000Y-18162000D01*
X16071000Y-10968000D02*
X16071000Y-18242000D01*
X16031000Y-10890000D02*
X16031000Y-18320000D01*
X15991000Y-10815000D02*
X15991000Y-18395000D01*
X15951000Y-10741000D02*
X15951000Y-18469000D01*
X15911000Y-10669000D02*
X15911000Y-18541000D01*
X15871000Y-10598000D02*
X15871000Y-18612000D01*
X15831000Y-10529000D02*
X15831000Y-18681000D01*
X15791000Y-10462000D02*
X15791000Y-18748000D01*
X15751000Y-10396000D02*
X15751000Y-18814000D01*
X15711000Y-10332000D02*
X15711000Y-18878000D01*
X15671000Y-10269000D02*
X15671000Y-18941000D01*
X15631000Y-10207000D02*
X15631000Y-19003000D01*
X15591000Y-10146000D02*
X15591000Y-19064000D01*
X15551000Y-10086000D02*
X15551000Y-19124000D01*
X15511000Y-10028000D02*
X15511000Y-19182000D01*
X15471000Y-9971000D02*
X15471000Y-19239000D01*
X15431000Y-9914000D02*
X15431000Y-19296000D01*
X15391000Y-9859000D02*
X15391000Y-19351000D01*
X15351000Y-9805000D02*
X15351000Y-19405000D01*
X15311000Y-9751000D02*
X15311000Y-19459000D01*
X15271000Y-9699000D02*
X15271000Y-19511000D01*
X15231000Y-9647000D02*
X15231000Y-19563000D01*
X15191000Y-9596000D02*
X15191000Y-19614000D01*
X15151000Y-9546000D02*
X15151000Y-19664000D01*
X15111000Y-9497000D02*
X15111000Y-19713000D01*
X15071000Y-9449000D02*
X15071000Y-19761000D01*
X15031000Y-9401000D02*
X15031000Y-19809000D01*
X14991000Y-9354000D02*
X14991000Y-19856000D01*
X14951000Y-9308000D02*
X14951000Y-19902000D01*
X14911000Y-9262000D02*
X14911000Y-19948000D01*
X14871000Y-9217000D02*
X14871000Y-19993000D01*
X14831000Y-9173000D02*
X14831000Y-20037000D01*
X14791000Y-9130000D02*
X14791000Y-20080000D01*
X14751000Y-9087000D02*
X14751000Y-20123000D01*
X14711000Y-9045000D02*
X14711000Y-20165000D01*
X14671000Y-9003000D02*
X14671000Y-20207000D01*
X14631000Y-8962000D02*
X14631000Y-20248000D01*
X14591000Y-8921000D02*
X14591000Y-20289000D01*
X14551000Y-8881000D02*
X14551000Y-20329000D01*
X14511000Y-8842000D02*
X14511000Y-20368000D01*
X14471000Y-8803000D02*
X14471000Y-20407000D01*
X14431000Y-8765000D02*
X14431000Y-20445000D01*
X14391000Y-8727000D02*
X14391000Y-20483000D01*
X14351000Y-8689000D02*
X14351000Y-20521000D01*
X14311000Y-8653000D02*
X14311000Y-20557000D01*
X14271000Y-8616000D02*
X14271000Y-20594000D01*
X14231000Y-8580000D02*
X14231000Y-20630000D01*
X14191000Y-8545000D02*
X14191000Y-20665000D01*
X14151000Y-8510000D02*
X14151000Y-20700000D01*
X14111000Y-8476000D02*
X14111000Y-20734000D01*
X14071000Y-8442000D02*
X14071000Y-20768000D01*
X14031000Y-8408000D02*
X14031000Y-20802000D01*
X13991000Y-16045000D02*
X13991000Y-20835000D01*
X13991000Y-8375000D02*
X13991000Y-13165000D01*
X13951000Y-16045000D02*
X13951000Y-20868000D01*
X13951000Y-8342000D02*
X13951000Y-13165000D01*
X13911000Y-16045000D02*
X13911000Y-20900000D01*
X13911000Y-8310000D02*
X13911000Y-13165000D01*
X13871000Y-16045000D02*
X13871000Y-20932000D01*
X13871000Y-8278000D02*
X13871000Y-13165000D01*
X13831000Y-16045000D02*
X13831000Y-20963000D01*
X13831000Y-8247000D02*
X13831000Y-13165000D01*
X13791000Y-16045000D02*
X13791000Y-20995000D01*
X13791000Y-8215000D02*
X13791000Y-13165000D01*
X13751000Y-16045000D02*
X13751000Y-21025000D01*
X13751000Y-8185000D02*
X13751000Y-13165000D01*
X13711000Y-16045000D02*
X13711000Y-21055000D01*
X13711000Y-8155000D02*
X13711000Y-13165000D01*
X13671000Y-16045000D02*
X13671000Y-21085000D01*
X13671000Y-8125000D02*
X13671000Y-13165000D01*
X13631000Y-16045000D02*
X13631000Y-21115000D01*
X13631000Y-8095000D02*
X13631000Y-13165000D01*
X13591000Y-16045000D02*
X13591000Y-21144000D01*
X13591000Y-8066000D02*
X13591000Y-13165000D01*
X13551000Y-16045000D02*
X13551000Y-21173000D01*
X13551000Y-8037000D02*
X13551000Y-13165000D01*
X13511000Y-16045000D02*
X13511000Y-21201000D01*
X13511000Y-8009000D02*
X13511000Y-13165000D01*
X13471000Y-16045000D02*
X13471000Y-21229000D01*
X13471000Y-7981000D02*
X13471000Y-13165000D01*
X13431000Y-16045000D02*
X13431000Y-21257000D01*
X13431000Y-7953000D02*
X13431000Y-13165000D01*
X13391000Y-16045000D02*
X13391000Y-21284000D01*
X13391000Y-7926000D02*
X13391000Y-13165000D01*
X13351000Y-16045000D02*
X13351000Y-21311000D01*
X13351000Y-7899000D02*
X13351000Y-13165000D01*
X13311000Y-16045000D02*
X13311000Y-21338000D01*
X13311000Y-7872000D02*
X13311000Y-13165000D01*
X13271000Y-16045000D02*
X13271000Y-21364000D01*
X13271000Y-7846000D02*
X13271000Y-13165000D01*
X13231000Y-16045000D02*
X13231000Y-21390000D01*
X13231000Y-7820000D02*
X13231000Y-13165000D01*
X13191000Y-16045000D02*
X13191000Y-21416000D01*
X13191000Y-7794000D02*
X13191000Y-13165000D01*
X13151000Y-16045000D02*
X13151000Y-21441000D01*
X13151000Y-7769000D02*
X13151000Y-13165000D01*
X13111000Y-16045000D02*
X13111000Y-21466000D01*
X13111000Y-7744000D02*
X13111000Y-13165000D01*
X13071000Y-16045000D02*
X13071000Y-21491000D01*
X13071000Y-7719000D02*
X13071000Y-13165000D01*
X13031000Y-16045000D02*
X13031000Y-21515000D01*
X13031000Y-7695000D02*
X13031000Y-13165000D01*
X12991000Y-16045000D02*
X12991000Y-21539000D01*
X12991000Y-7671000D02*
X12991000Y-13165000D01*
X12951000Y-16045000D02*
X12951000Y-21563000D01*
X12951000Y-7647000D02*
X12951000Y-13165000D01*
X12911000Y-16045000D02*
X12911000Y-21586000D01*
X12911000Y-7624000D02*
X12911000Y-13165000D01*
X12871000Y-16045000D02*
X12871000Y-21609000D01*
X12871000Y-7601000D02*
X12871000Y-13165000D01*
X12831000Y-16045000D02*
X12831000Y-21632000D01*
X12831000Y-7578000D02*
X12831000Y-13165000D01*
X12791000Y-16045000D02*
X12791000Y-21654000D01*
X12791000Y-7556000D02*
X12791000Y-13165000D01*
X12751000Y-16045000D02*
X12751000Y-21677000D01*
X12751000Y-7533000D02*
X12751000Y-13165000D01*
X12711000Y-16045000D02*
X12711000Y-21699000D01*
X12711000Y-7511000D02*
X12711000Y-13165000D01*
X12671000Y-16045000D02*
X12671000Y-21720000D01*
X12671000Y-7490000D02*
X12671000Y-13165000D01*
X12631000Y-16045000D02*
X12631000Y-21741000D01*
X12631000Y-7469000D02*
X12631000Y-13165000D01*
X12591000Y-16045000D02*
X12591000Y-21762000D01*
X12591000Y-7448000D02*
X12591000Y-13165000D01*
X12551000Y-16045000D02*
X12551000Y-21783000D01*
X12551000Y-7427000D02*
X12551000Y-13165000D01*
X12511000Y-16045000D02*
X12511000Y-21804000D01*
X12511000Y-7406000D02*
X12511000Y-13165000D01*
X12471000Y-16045000D02*
X12471000Y-21824000D01*
X12471000Y-7386000D02*
X12471000Y-13165000D01*
X12431000Y-16045000D02*
X12431000Y-21844000D01*
X12431000Y-7366000D02*
X12431000Y-13165000D01*
X12391000Y-16045000D02*
X12391000Y-21863000D01*
X12391000Y-7347000D02*
X12391000Y-13165000D01*
X12351000Y-16045000D02*
X12351000Y-21883000D01*
X12351000Y-7327000D02*
X12351000Y-13165000D01*
X12311000Y-16045000D02*
X12311000Y-21902000D01*
X12311000Y-7308000D02*
X12311000Y-13165000D01*
X12271000Y-16045000D02*
X12271000Y-21921000D01*
X12271000Y-7289000D02*
X12271000Y-13165000D01*
X12231000Y-16045000D02*
X12231000Y-21939000D01*
X12231000Y-7271000D02*
X12231000Y-13165000D01*
X12191000Y-16045000D02*
X12191000Y-21958000D01*
X12191000Y-7252000D02*
X12191000Y-13165000D01*
X12151000Y-16045000D02*
X12151000Y-21976000D01*
X12151000Y-7234000D02*
X12151000Y-13165000D01*
X12111000Y-16045000D02*
X12111000Y-21994000D01*
X12111000Y-7216000D02*
X12111000Y-13165000D01*
X12071000Y-16045000D02*
X12071000Y-22011000D01*
X12071000Y-7199000D02*
X12071000Y-13165000D01*
X12031000Y-16045000D02*
X12031000Y-22028000D01*
X12031000Y-7182000D02*
X12031000Y-13165000D01*
X11991000Y-16045000D02*
X11991000Y-22045000D01*
X11991000Y-7165000D02*
X11991000Y-13165000D01*
X11951000Y-16045000D02*
X11951000Y-22062000D01*
X11951000Y-7148000D02*
X11951000Y-13165000D01*
X11911000Y-16045000D02*
X11911000Y-22079000D01*
X11911000Y-7131000D02*
X11911000Y-13165000D01*
X11871000Y-16045000D02*
X11871000Y-22095000D01*
X11871000Y-7115000D02*
X11871000Y-13165000D01*
X11831000Y-16045000D02*
X11831000Y-22111000D01*
X11831000Y-7099000D02*
X11831000Y-13165000D01*
X11791000Y-16045000D02*
X11791000Y-22127000D01*
X11791000Y-7083000D02*
X11791000Y-13165000D01*
X11751000Y-16045000D02*
X11751000Y-22142000D01*
X11751000Y-7068000D02*
X11751000Y-13165000D01*
X11711000Y-16045000D02*
X11711000Y-22158000D01*
X11711000Y-7052000D02*
X11711000Y-13165000D01*
X11671000Y-16045000D02*
X11671000Y-22173000D01*
X11671000Y-7037000D02*
X11671000Y-13165000D01*
X11631000Y-16045000D02*
X11631000Y-22187000D01*
X11631000Y-7023000D02*
X11631000Y-13165000D01*
X11591000Y-16045000D02*
X11591000Y-22202000D01*
X11591000Y-7008000D02*
X11591000Y-13165000D01*
X11551000Y-16045000D02*
X11551000Y-22216000D01*
X11551000Y-6994000D02*
X11551000Y-13165000D01*
X11511000Y-16045000D02*
X11511000Y-22230000D01*
X11511000Y-6980000D02*
X11511000Y-13165000D01*
X11471000Y-16045000D02*
X11471000Y-22244000D01*
X11471000Y-6966000D02*
X11471000Y-13165000D01*
X11431000Y-16045000D02*
X11431000Y-22258000D01*
X11431000Y-6952000D02*
X11431000Y-13165000D01*
X11391000Y-16045000D02*
X11391000Y-22271000D01*
X11391000Y-6939000D02*
X11391000Y-13165000D01*
X11351000Y-16045000D02*
X11351000Y-22285000D01*
X11351000Y-6925000D02*
X11351000Y-13165000D01*
X11311000Y-16045000D02*
X11311000Y-22298000D01*
X11311000Y-6912000D02*
X11311000Y-13165000D01*
X11271000Y-16045000D02*
X11271000Y-22310000D01*
X11271000Y-6900000D02*
X11271000Y-13165000D01*
X11231000Y-16045000D02*
X11231000Y-22323000D01*
X11231000Y-6887000D02*
X11231000Y-13165000D01*
X11191000Y-16045000D02*
X11191000Y-22335000D01*
X11191000Y-6875000D02*
X11191000Y-13165000D01*
X11151000Y-16045000D02*
X11151000Y-22347000D01*
X11151000Y-6863000D02*
X11151000Y-13165000D01*
X11111000Y-6851000D02*
X11111000Y-22359000D01*
X11071000Y-6840000D02*
X11071000Y-22370000D01*
X11031000Y-6828000D02*
X11031000Y-22382000D01*
X10991000Y-6817000D02*
X10991000Y-22393000D01*
X10951000Y-6806000D02*
X10951000Y-22404000D01*
X10911000Y-6795000D02*
X10911000Y-22415000D01*
X10871000Y-6785000D02*
X10871000Y-22425000D01*
X10831000Y-6775000D02*
X10831000Y-22435000D01*
X10791000Y-6765000D02*
X10791000Y-22445000D01*
X10751000Y-6755000D02*
X10751000Y-22455000D01*
X10711000Y-6745000D02*
X10711000Y-22465000D01*
X10671000Y-6736000D02*
X10671000Y-22474000D01*
X10631000Y-6727000D02*
X10631000Y-22483000D01*
X10591000Y-6718000D02*
X10591000Y-22492000D01*
X10551000Y-6709000D02*
X10551000Y-22501000D01*
X10511000Y-6700000D02*
X10511000Y-22510000D01*
X10471000Y-6692000D02*
X10471000Y-22518000D01*
X10431000Y-6684000D02*
X10431000Y-22526000D01*
X10391000Y-6676000D02*
X10391000Y-22534000D01*
X10351000Y-6668000D02*
X10351000Y-22542000D01*
X10311000Y-6661000D02*
X10311000Y-22549000D01*
X10271000Y-6653000D02*
X10271000Y-22557000D01*
X10231000Y-6646000D02*
X10231000Y-22564000D01*
X10191000Y-6639000D02*
X10191000Y-22571000D01*
X10151000Y-6633000D02*
X10151000Y-22577000D01*
X10111000Y-6626000D02*
X10111000Y-22584000D01*
X10071000Y-6620000D02*
X10071000Y-22590000D01*
X10031000Y-6614000D02*
X10031000Y-22596000D01*
X9991000Y-6608000D02*
X9991000Y-22602000D01*
X9951000Y-6602000D02*
X9951000Y-22608000D01*
X9911000Y-6597000D02*
X9911000Y-22613000D01*
X9871000Y-6591000D02*
X9871000Y-22619000D01*
X9831000Y-6586000D02*
X9831000Y-22624000D01*
X9791000Y-6581000D02*
X9791000Y-22629000D01*
X9751000Y-6577000D02*
X9751000Y-22633000D01*
X9711000Y-6572000D02*
X9711000Y-22638000D01*
X9671000Y-6568000D02*
X9671000Y-22642000D01*
X9631000Y-6564000D02*
X9631000Y-22646000D01*
X9591000Y-6560000D02*
X9591000Y-22650000D01*
X9551000Y-6556000D02*
X9551000Y-22654000D01*
X9510000Y-6553000D02*
X9510000Y-22657000D01*
X9470000Y-6550000D02*
X9470000Y-22660000D01*
X9430000Y-6547000D02*
X9430000Y-22663000D01*
X9390000Y-6544000D02*
X9390000Y-22666000D01*
X9350000Y-6541000D02*
X9350000Y-22669000D01*
X9310000Y-6539000D02*
X9310000Y-22671000D01*
X9270000Y-6536000D02*
X9270000Y-22674000D01*
X9230000Y-6534000D02*
X9230000Y-22676000D01*
X9190000Y-6532000D02*
X9190000Y-22678000D01*
X9150000Y-6531000D02*
X9150000Y-22679000D01*
X9110000Y-6529000D02*
X9110000Y-22681000D01*
X9070000Y-6528000D02*
X9070000Y-22682000D01*
X9030000Y-6527000D02*
X9030000Y-22683000D01*
X8990000Y-6526000D02*
X8990000Y-22684000D01*
X8950000Y-6525000D02*
X8950000Y-22685000D01*
X8910000Y-6525000D02*
X8910000Y-22685000D01*
X8870000Y-6525000D02*
X8870000Y-22685000D01*
X8830000Y-6524000D02*
X8830000Y-22686000D01*
X16950000Y-14605000D02*
G75*
G03X16950000Y-14605000I-8120000J0D01*
G01*
X32825000Y-8255000D02*
G75*
G03X32825000Y-8255000I-8120000J0D01*
G01*
X24705000Y-174000D02*
X24705000Y-16336000D01*
X24745000Y-175000D02*
X24745000Y-16335000D01*
X24785000Y-175000D02*
X24785000Y-16335000D01*
X24825000Y-175000D02*
X24825000Y-16335000D01*
X24865000Y-176000D02*
X24865000Y-16334000D01*
X24905000Y-177000D02*
X24905000Y-16333000D01*
X24945000Y-178000D02*
X24945000Y-16332000D01*
X24985000Y-179000D02*
X24985000Y-16331000D01*
X25025000Y-181000D02*
X25025000Y-16329000D01*
X25065000Y-182000D02*
X25065000Y-16328000D01*
X25105000Y-184000D02*
X25105000Y-16326000D01*
X25145000Y-186000D02*
X25145000Y-16324000D01*
X25185000Y-189000D02*
X25185000Y-16321000D01*
X25225000Y-191000D02*
X25225000Y-16319000D01*
X25265000Y-194000D02*
X25265000Y-16316000D01*
X25305000Y-197000D02*
X25305000Y-16313000D01*
X25345000Y-200000D02*
X25345000Y-16310000D01*
X25385000Y-203000D02*
X25385000Y-16307000D01*
X25426000Y-206000D02*
X25426000Y-16304000D01*
X25466000Y-210000D02*
X25466000Y-16300000D01*
X25506000Y-214000D02*
X25506000Y-16296000D01*
X25546000Y-218000D02*
X25546000Y-16292000D01*
X25586000Y-222000D02*
X25586000Y-16288000D01*
X25626000Y-227000D02*
X25626000Y-16283000D01*
X25666000Y-231000D02*
X25666000Y-16279000D01*
X25706000Y-236000D02*
X25706000Y-16274000D01*
X25746000Y-241000D02*
X25746000Y-16269000D01*
X25786000Y-247000D02*
X25786000Y-16263000D01*
X25826000Y-252000D02*
X25826000Y-16258000D01*
X25866000Y-258000D02*
X25866000Y-16252000D01*
X25906000Y-264000D02*
X25906000Y-16246000D01*
X25946000Y-270000D02*
X25946000Y-16240000D01*
X25986000Y-276000D02*
X25986000Y-16234000D01*
X26026000Y-283000D02*
X26026000Y-16227000D01*
X26066000Y-289000D02*
X26066000Y-16221000D01*
X26106000Y-296000D02*
X26106000Y-16214000D01*
X26146000Y-303000D02*
X26146000Y-16207000D01*
X26186000Y-311000D02*
X26186000Y-16199000D01*
X26226000Y-318000D02*
X26226000Y-16192000D01*
X26266000Y-326000D02*
X26266000Y-16184000D01*
X26306000Y-334000D02*
X26306000Y-16176000D01*
X26346000Y-342000D02*
X26346000Y-16168000D01*
X26386000Y-350000D02*
X26386000Y-16160000D01*
X26426000Y-359000D02*
X26426000Y-16151000D01*
X26466000Y-368000D02*
X26466000Y-16142000D01*
X26506000Y-377000D02*
X26506000Y-16133000D01*
X26546000Y-386000D02*
X26546000Y-16124000D01*
X26586000Y-395000D02*
X26586000Y-16115000D01*
X26626000Y-405000D02*
X26626000Y-16105000D01*
X26666000Y-415000D02*
X26666000Y-16095000D01*
X26706000Y-425000D02*
X26706000Y-16085000D01*
X26746000Y-435000D02*
X26746000Y-16075000D01*
X26786000Y-445000D02*
X26786000Y-16065000D01*
X26826000Y-456000D02*
X26826000Y-16054000D01*
X26866000Y-467000D02*
X26866000Y-16043000D01*
X26906000Y-478000D02*
X26906000Y-16032000D01*
X26946000Y-490000D02*
X26946000Y-16020000D01*
X26986000Y-501000D02*
X26986000Y-16009000D01*
X27026000Y-513000D02*
X27026000Y-6815000D01*
X27026000Y-9695000D02*
X27026000Y-15997000D01*
X27066000Y-525000D02*
X27066000Y-6815000D01*
X27066000Y-9695000D02*
X27066000Y-15985000D01*
X27106000Y-537000D02*
X27106000Y-6815000D01*
X27106000Y-9695000D02*
X27106000Y-15973000D01*
X27146000Y-550000D02*
X27146000Y-6815000D01*
X27146000Y-9695000D02*
X27146000Y-15960000D01*
X27186000Y-562000D02*
X27186000Y-6815000D01*
X27186000Y-9695000D02*
X27186000Y-15948000D01*
X27226000Y-575000D02*
X27226000Y-6815000D01*
X27226000Y-9695000D02*
X27226000Y-15935000D01*
X27266000Y-589000D02*
X27266000Y-6815000D01*
X27266000Y-9695000D02*
X27266000Y-15921000D01*
X27306000Y-602000D02*
X27306000Y-6815000D01*
X27306000Y-9695000D02*
X27306000Y-15908000D01*
X27346000Y-616000D02*
X27346000Y-6815000D01*
X27346000Y-9695000D02*
X27346000Y-15894000D01*
X27386000Y-630000D02*
X27386000Y-6815000D01*
X27386000Y-9695000D02*
X27386000Y-15880000D01*
X27426000Y-644000D02*
X27426000Y-6815000D01*
X27426000Y-9695000D02*
X27426000Y-15866000D01*
X27466000Y-658000D02*
X27466000Y-6815000D01*
X27466000Y-9695000D02*
X27466000Y-15852000D01*
X27506000Y-673000D02*
X27506000Y-6815000D01*
X27506000Y-9695000D02*
X27506000Y-15837000D01*
X27546000Y-687000D02*
X27546000Y-6815000D01*
X27546000Y-9695000D02*
X27546000Y-15823000D01*
X27586000Y-702000D02*
X27586000Y-6815000D01*
X27586000Y-9695000D02*
X27586000Y-15808000D01*
X27626000Y-718000D02*
X27626000Y-6815000D01*
X27626000Y-9695000D02*
X27626000Y-15792000D01*
X27666000Y-733000D02*
X27666000Y-6815000D01*
X27666000Y-9695000D02*
X27666000Y-15777000D01*
X27706000Y-749000D02*
X27706000Y-6815000D01*
X27706000Y-9695000D02*
X27706000Y-15761000D01*
X27746000Y-765000D02*
X27746000Y-6815000D01*
X27746000Y-9695000D02*
X27746000Y-15745000D01*
X27786000Y-781000D02*
X27786000Y-6815000D01*
X27786000Y-9695000D02*
X27786000Y-15729000D01*
X27826000Y-798000D02*
X27826000Y-6815000D01*
X27826000Y-9695000D02*
X27826000Y-15712000D01*
X27866000Y-815000D02*
X27866000Y-6815000D01*
X27866000Y-9695000D02*
X27866000Y-15695000D01*
X27906000Y-832000D02*
X27906000Y-6815000D01*
X27906000Y-9695000D02*
X27906000Y-15678000D01*
X27946000Y-849000D02*
X27946000Y-6815000D01*
X27946000Y-9695000D02*
X27946000Y-15661000D01*
X27986000Y-866000D02*
X27986000Y-6815000D01*
X27986000Y-9695000D02*
X27986000Y-15644000D01*
X28026000Y-884000D02*
X28026000Y-6815000D01*
X28026000Y-9695000D02*
X28026000Y-15626000D01*
X28066000Y-902000D02*
X28066000Y-6815000D01*
X28066000Y-9695000D02*
X28066000Y-15608000D01*
X28106000Y-921000D02*
X28106000Y-6815000D01*
X28106000Y-9695000D02*
X28106000Y-15589000D01*
X28146000Y-939000D02*
X28146000Y-6815000D01*
X28146000Y-9695000D02*
X28146000Y-15571000D01*
X28186000Y-958000D02*
X28186000Y-6815000D01*
X28186000Y-9695000D02*
X28186000Y-15552000D01*
X28226000Y-977000D02*
X28226000Y-6815000D01*
X28226000Y-9695000D02*
X28226000Y-15533000D01*
X28266000Y-997000D02*
X28266000Y-6815000D01*
X28266000Y-9695000D02*
X28266000Y-15513000D01*
X28306000Y-1016000D02*
X28306000Y-6815000D01*
X28306000Y-9695000D02*
X28306000Y-15494000D01*
X28346000Y-1036000D02*
X28346000Y-6815000D01*
X28346000Y-9695000D02*
X28346000Y-15474000D01*
X28386000Y-1056000D02*
X28386000Y-6815000D01*
X28386000Y-9695000D02*
X28386000Y-15454000D01*
X28426000Y-1077000D02*
X28426000Y-6815000D01*
X28426000Y-9695000D02*
X28426000Y-15433000D01*
X28466000Y-1098000D02*
X28466000Y-6815000D01*
X28466000Y-9695000D02*
X28466000Y-15412000D01*
X28506000Y-1119000D02*
X28506000Y-6815000D01*
X28506000Y-9695000D02*
X28506000Y-15391000D01*
X28546000Y-1140000D02*
X28546000Y-6815000D01*
X28546000Y-9695000D02*
X28546000Y-15370000D01*
X28586000Y-1161000D02*
X28586000Y-6815000D01*
X28586000Y-9695000D02*
X28586000Y-15349000D01*
X28626000Y-1183000D02*
X28626000Y-6815000D01*
X28626000Y-9695000D02*
X28626000Y-15327000D01*
X28666000Y-1206000D02*
X28666000Y-6815000D01*
X28666000Y-9695000D02*
X28666000Y-15304000D01*
X28706000Y-1228000D02*
X28706000Y-6815000D01*
X28706000Y-9695000D02*
X28706000Y-15282000D01*
X28746000Y-1251000D02*
X28746000Y-6815000D01*
X28746000Y-9695000D02*
X28746000Y-15259000D01*
X28786000Y-1274000D02*
X28786000Y-6815000D01*
X28786000Y-9695000D02*
X28786000Y-15236000D01*
X28826000Y-1297000D02*
X28826000Y-6815000D01*
X28826000Y-9695000D02*
X28826000Y-15213000D01*
X28866000Y-1321000D02*
X28866000Y-6815000D01*
X28866000Y-9695000D02*
X28866000Y-15189000D01*
X28906000Y-1345000D02*
X28906000Y-6815000D01*
X28906000Y-9695000D02*
X28906000Y-15165000D01*
X28946000Y-1369000D02*
X28946000Y-6815000D01*
X28946000Y-9695000D02*
X28946000Y-15141000D01*
X28986000Y-1394000D02*
X28986000Y-6815000D01*
X28986000Y-9695000D02*
X28986000Y-15116000D01*
X29026000Y-1419000D02*
X29026000Y-6815000D01*
X29026000Y-9695000D02*
X29026000Y-15091000D01*
X29066000Y-1444000D02*
X29066000Y-6815000D01*
X29066000Y-9695000D02*
X29066000Y-15066000D01*
X29106000Y-1470000D02*
X29106000Y-6815000D01*
X29106000Y-9695000D02*
X29106000Y-15040000D01*
X29146000Y-1496000D02*
X29146000Y-6815000D01*
X29146000Y-9695000D02*
X29146000Y-15014000D01*
X29186000Y-1522000D02*
X29186000Y-6815000D01*
X29186000Y-9695000D02*
X29186000Y-14988000D01*
X29226000Y-1549000D02*
X29226000Y-6815000D01*
X29226000Y-9695000D02*
X29226000Y-14961000D01*
X29266000Y-1576000D02*
X29266000Y-6815000D01*
X29266000Y-9695000D02*
X29266000Y-14934000D01*
X29306000Y-1603000D02*
X29306000Y-6815000D01*
X29306000Y-9695000D02*
X29306000Y-14907000D01*
X29346000Y-1631000D02*
X29346000Y-6815000D01*
X29346000Y-9695000D02*
X29346000Y-14879000D01*
X29386000Y-1659000D02*
X29386000Y-6815000D01*
X29386000Y-9695000D02*
X29386000Y-14851000D01*
X29426000Y-1687000D02*
X29426000Y-6815000D01*
X29426000Y-9695000D02*
X29426000Y-14823000D01*
X29466000Y-1716000D02*
X29466000Y-6815000D01*
X29466000Y-9695000D02*
X29466000Y-14794000D01*
X29506000Y-1745000D02*
X29506000Y-6815000D01*
X29506000Y-9695000D02*
X29506000Y-14765000D01*
X29546000Y-1775000D02*
X29546000Y-6815000D01*
X29546000Y-9695000D02*
X29546000Y-14735000D01*
X29586000Y-1805000D02*
X29586000Y-6815000D01*
X29586000Y-9695000D02*
X29586000Y-14705000D01*
X29626000Y-1835000D02*
X29626000Y-6815000D01*
X29626000Y-9695000D02*
X29626000Y-14675000D01*
X29666000Y-1865000D02*
X29666000Y-6815000D01*
X29666000Y-9695000D02*
X29666000Y-14645000D01*
X29706000Y-1897000D02*
X29706000Y-6815000D01*
X29706000Y-9695000D02*
X29706000Y-14613000D01*
X29746000Y-1928000D02*
X29746000Y-6815000D01*
X29746000Y-9695000D02*
X29746000Y-14582000D01*
X29786000Y-1960000D02*
X29786000Y-6815000D01*
X29786000Y-9695000D02*
X29786000Y-14550000D01*
X29826000Y-1992000D02*
X29826000Y-6815000D01*
X29826000Y-9695000D02*
X29826000Y-14518000D01*
X29866000Y-2025000D02*
X29866000Y-6815000D01*
X29866000Y-9695000D02*
X29866000Y-14485000D01*
X29906000Y-2058000D02*
X29906000Y-14452000D01*
X29946000Y-2092000D02*
X29946000Y-14418000D01*
X29986000Y-2126000D02*
X29986000Y-14384000D01*
X30026000Y-2160000D02*
X30026000Y-14350000D01*
X30066000Y-2195000D02*
X30066000Y-14315000D01*
X30106000Y-2230000D02*
X30106000Y-14280000D01*
X30146000Y-2266000D02*
X30146000Y-14244000D01*
X30186000Y-2303000D02*
X30186000Y-14207000D01*
X30226000Y-2339000D02*
X30226000Y-14171000D01*
X30266000Y-2377000D02*
X30266000Y-14133000D01*
X30306000Y-2415000D02*
X30306000Y-14095000D01*
X30346000Y-2453000D02*
X30346000Y-14057000D01*
X30386000Y-2492000D02*
X30386000Y-14018000D01*
X30426000Y-2531000D02*
X30426000Y-13979000D01*
X30466000Y-2571000D02*
X30466000Y-13939000D01*
X30506000Y-2612000D02*
X30506000Y-13898000D01*
X30546000Y-2653000D02*
X30546000Y-13857000D01*
X30586000Y-2695000D02*
X30586000Y-13815000D01*
X30626000Y-2737000D02*
X30626000Y-13773000D01*
X30666000Y-2780000D02*
X30666000Y-13730000D01*
X30706000Y-2823000D02*
X30706000Y-13687000D01*
X30746000Y-2867000D02*
X30746000Y-13643000D01*
X30786000Y-2912000D02*
X30786000Y-13598000D01*
X30826000Y-2958000D02*
X30826000Y-13552000D01*
X30866000Y-3004000D02*
X30866000Y-13506000D01*
X30906000Y-3051000D02*
X30906000Y-13459000D01*
X30946000Y-3099000D02*
X30946000Y-13411000D01*
X30986000Y-3147000D02*
X30986000Y-13363000D01*
X31026000Y-3196000D02*
X31026000Y-13314000D01*
X31066000Y-3246000D02*
X31066000Y-13264000D01*
X31106000Y-3297000D02*
X31106000Y-13213000D01*
X31146000Y-3349000D02*
X31146000Y-13161000D01*
X31186000Y-3401000D02*
X31186000Y-13109000D01*
X31226000Y-3455000D02*
X31226000Y-13055000D01*
X31266000Y-3509000D02*
X31266000Y-13001000D01*
X31306000Y-3564000D02*
X31306000Y-12946000D01*
X31346000Y-3621000D02*
X31346000Y-12889000D01*
X31386000Y-3678000D02*
X31386000Y-12832000D01*
X31426000Y-3736000D02*
X31426000Y-12774000D01*
X31466000Y-3796000D02*
X31466000Y-12714000D01*
X31506000Y-3857000D02*
X31506000Y-12653000D01*
X31546000Y-3919000D02*
X31546000Y-12591000D01*
X31586000Y-3982000D02*
X31586000Y-12528000D01*
X31626000Y-4046000D02*
X31626000Y-12464000D01*
X31666000Y-4112000D02*
X31666000Y-12398000D01*
X31706000Y-4179000D02*
X31706000Y-12331000D01*
X31746000Y-4248000D02*
X31746000Y-12262000D01*
X31786000Y-4319000D02*
X31786000Y-12191000D01*
X31826000Y-4391000D02*
X31826000Y-12119000D01*
X31866000Y-4465000D02*
X31866000Y-12045000D01*
X31906000Y-4540000D02*
X31906000Y-11970000D01*
X31946000Y-4618000D02*
X31946000Y-11892000D01*
X31986000Y-4698000D02*
X31986000Y-11812000D01*
X32026000Y-4780000D02*
X32026000Y-11730000D01*
X32066000Y-4865000D02*
X32066000Y-11645000D01*
X32106000Y-4952000D02*
X32106000Y-11558000D01*
X32146000Y-5042000D02*
X32146000Y-11468000D01*
X32186000Y-5135000D02*
X32186000Y-11375000D01*
X32226000Y-5231000D02*
X32226000Y-11279000D01*
X32266000Y-5331000D02*
X32266000Y-11179000D01*
X32306000Y-5435000D02*
X32306000Y-11075000D01*
X32346000Y-5544000D02*
X32346000Y-10966000D01*
X32386000Y-5658000D02*
X32386000Y-10852000D01*
X32426000Y-5777000D02*
X32426000Y-10733000D01*
X32466000Y-5904000D02*
X32466000Y-10606000D01*
X32506000Y-6037000D02*
X32506000Y-10473000D01*
X32546000Y-6181000D02*
X32546000Y-10329000D01*
X32586000Y-6335000D02*
X32586000Y-10175000D01*
X32626000Y-6503000D02*
X32626000Y-10007000D01*
X32666000Y-6691000D02*
X32666000Y-9819000D01*
X32706000Y-6904000D02*
X32706000Y-9606000D01*
X32746000Y-7157000D02*
X32746000Y-9353000D01*
X32786000Y-7490000D02*
X32786000Y-9020000D01*
X16015509Y-3700000D02*
X17615509Y-3700000D01*
X16815509Y-2900000D02*
X16815509Y-4500000D01*
X31420509Y5990000D02*
X31420509Y4390000D01*
X30620509Y5190000D02*
X32220509Y5190000D01*
X47391000Y1400000D02*
X47391000Y-130000D01*
X47351000Y1733000D02*
X47351000Y-463000D01*
X47311000Y1986000D02*
X47311000Y-716000D01*
X47271000Y2199000D02*
X47271000Y-929000D01*
X47231000Y2387000D02*
X47231000Y-1117000D01*
X47191000Y2555000D02*
X47191000Y-1285000D01*
X47151000Y2709000D02*
X47151000Y-1439000D01*
X47111000Y2853000D02*
X47111000Y-1583000D01*
X47071000Y2986000D02*
X47071000Y-1716000D01*
X47031000Y3113000D02*
X47031000Y-1843000D01*
X46991000Y3232000D02*
X46991000Y-1962000D01*
X46951000Y3346000D02*
X46951000Y-2076000D01*
X46911000Y3455000D02*
X46911000Y-2185000D01*
X46871000Y3559000D02*
X46871000Y-2289000D01*
X46831000Y3659000D02*
X46831000Y-2389000D01*
X46791000Y3755000D02*
X46791000Y-2485000D01*
X46751000Y3848000D02*
X46751000Y-2578000D01*
X46711000Y3938000D02*
X46711000Y-2668000D01*
X46671000Y4025000D02*
X46671000Y-2755000D01*
X46631000Y4110000D02*
X46631000Y-2840000D01*
X46591000Y4192000D02*
X46591000Y-2922000D01*
X46551000Y4272000D02*
X46551000Y-3002000D01*
X46511000Y4350000D02*
X46511000Y-3080000D01*
X46471000Y4425000D02*
X46471000Y-3155000D01*
X46431000Y4499000D02*
X46431000Y-3229000D01*
X46391000Y4571000D02*
X46391000Y-3301000D01*
X46351000Y4642000D02*
X46351000Y-3372000D01*
X46311000Y4711000D02*
X46311000Y-3441000D01*
X46271000Y4778000D02*
X46271000Y-3508000D01*
X46231000Y4844000D02*
X46231000Y-3574000D01*
X46191000Y4908000D02*
X46191000Y-3638000D01*
X46151000Y4971000D02*
X46151000Y-3701000D01*
X46111000Y5033000D02*
X46111000Y-3763000D01*
X46071000Y5094000D02*
X46071000Y-3824000D01*
X46031000Y5154000D02*
X46031000Y-3884000D01*
X45991000Y5212000D02*
X45991000Y-3942000D01*
X45951000Y5269000D02*
X45951000Y-3999000D01*
X45911000Y5326000D02*
X45911000Y-4056000D01*
X45871000Y5381000D02*
X45871000Y-4111000D01*
X45831000Y5435000D02*
X45831000Y-4165000D01*
X45791000Y5489000D02*
X45791000Y-4219000D01*
X45751000Y5541000D02*
X45751000Y-4271000D01*
X45711000Y5593000D02*
X45711000Y-4323000D01*
X45671000Y5644000D02*
X45671000Y-4374000D01*
X45631000Y5694000D02*
X45631000Y-4424000D01*
X45591000Y5743000D02*
X45591000Y-4473000D01*
X45551000Y5791000D02*
X45551000Y-4521000D01*
X45511000Y5839000D02*
X45511000Y-4569000D01*
X45471000Y5886000D02*
X45471000Y-4616000D01*
X45431000Y5932000D02*
X45431000Y-4662000D01*
X45391000Y5978000D02*
X45391000Y-4708000D01*
X45351000Y6023000D02*
X45351000Y-4753000D01*
X45311000Y6067000D02*
X45311000Y-4797000D01*
X45271000Y6110000D02*
X45271000Y-4840000D01*
X45231000Y6153000D02*
X45231000Y-4883000D01*
X45191000Y6195000D02*
X45191000Y-4925000D01*
X45151000Y6237000D02*
X45151000Y-4967000D01*
X45111000Y6278000D02*
X45111000Y-5008000D01*
X45071000Y6319000D02*
X45071000Y-5049000D01*
X45031000Y6359000D02*
X45031000Y-5089000D01*
X44991000Y6398000D02*
X44991000Y-5128000D01*
X44951000Y6437000D02*
X44951000Y-5167000D01*
X44911000Y6475000D02*
X44911000Y-5205000D01*
X44871000Y6513000D02*
X44871000Y-5243000D01*
X44831000Y6551000D02*
X44831000Y-5281000D01*
X44791000Y6587000D02*
X44791000Y-5317000D01*
X44751000Y6624000D02*
X44751000Y-5354000D01*
X44711000Y6660000D02*
X44711000Y-5390000D01*
X44671000Y6695000D02*
X44671000Y-5425000D01*
X44631000Y6730000D02*
X44631000Y-5460000D01*
X44591000Y6764000D02*
X44591000Y-5494000D01*
X44551000Y6798000D02*
X44551000Y-5528000D01*
X44511000Y6832000D02*
X44511000Y-5562000D01*
X44471000Y-805000D02*
X44471000Y-5595000D01*
X44471000Y6865000D02*
X44471000Y2075000D01*
X44431000Y-805000D02*
X44431000Y-5628000D01*
X44431000Y6898000D02*
X44431000Y2075000D01*
X44391000Y-805000D02*
X44391000Y-5660000D01*
X44391000Y6930000D02*
X44391000Y2075000D01*
X44351000Y-805000D02*
X44351000Y-5692000D01*
X44351000Y6962000D02*
X44351000Y2075000D01*
X44311000Y-805000D02*
X44311000Y-5723000D01*
X44311000Y6993000D02*
X44311000Y2075000D01*
X44271000Y-805000D02*
X44271000Y-5755000D01*
X44271000Y7025000D02*
X44271000Y2075000D01*
X44231000Y-805000D02*
X44231000Y-5785000D01*
X44231000Y7055000D02*
X44231000Y2075000D01*
X44191000Y-805000D02*
X44191000Y-5815000D01*
X44191000Y7085000D02*
X44191000Y2075000D01*
X44151000Y-805000D02*
X44151000Y-5845000D01*
X44151000Y7115000D02*
X44151000Y2075000D01*
X44111000Y-805000D02*
X44111000Y-5875000D01*
X44111000Y7145000D02*
X44111000Y2075000D01*
X44071000Y-805000D02*
X44071000Y-5904000D01*
X44071000Y7174000D02*
X44071000Y2075000D01*
X44031000Y-805000D02*
X44031000Y-5933000D01*
X44031000Y7203000D02*
X44031000Y2075000D01*
X43991000Y-805000D02*
X43991000Y-5961000D01*
X43991000Y7231000D02*
X43991000Y2075000D01*
X43951000Y-805000D02*
X43951000Y-5989000D01*
X43951000Y7259000D02*
X43951000Y2075000D01*
X43911000Y-805000D02*
X43911000Y-6017000D01*
X43911000Y7287000D02*
X43911000Y2075000D01*
X43871000Y-805000D02*
X43871000Y-6044000D01*
X43871000Y7314000D02*
X43871000Y2075000D01*
X43831000Y-805000D02*
X43831000Y-6071000D01*
X43831000Y7341000D02*
X43831000Y2075000D01*
X43791000Y-805000D02*
X43791000Y-6098000D01*
X43791000Y7368000D02*
X43791000Y2075000D01*
X43751000Y-805000D02*
X43751000Y-6124000D01*
X43751000Y7394000D02*
X43751000Y2075000D01*
X43711000Y-805000D02*
X43711000Y-6150000D01*
X43711000Y7420000D02*
X43711000Y2075000D01*
X43671000Y-805000D02*
X43671000Y-6176000D01*
X43671000Y7446000D02*
X43671000Y2075000D01*
X43631000Y-805000D02*
X43631000Y-6201000D01*
X43631000Y7471000D02*
X43631000Y2075000D01*
X43591000Y-805000D02*
X43591000Y-6226000D01*
X43591000Y7496000D02*
X43591000Y2075000D01*
X43551000Y-805000D02*
X43551000Y-6251000D01*
X43551000Y7521000D02*
X43551000Y2075000D01*
X43511000Y-805000D02*
X43511000Y-6275000D01*
X43511000Y7545000D02*
X43511000Y2075000D01*
X43471000Y-805000D02*
X43471000Y-6299000D01*
X43471000Y7569000D02*
X43471000Y2075000D01*
X43431000Y-805000D02*
X43431000Y-6323000D01*
X43431000Y7593000D02*
X43431000Y2075000D01*
X43391000Y-805000D02*
X43391000Y-6346000D01*
X43391000Y7616000D02*
X43391000Y2075000D01*
X43351000Y-805000D02*
X43351000Y-6369000D01*
X43351000Y7639000D02*
X43351000Y2075000D01*
X43311000Y-805000D02*
X43311000Y-6392000D01*
X43311000Y7662000D02*
X43311000Y2075000D01*
X43271000Y-805000D02*
X43271000Y-6414000D01*
X43271000Y7684000D02*
X43271000Y2075000D01*
X43231000Y-805000D02*
X43231000Y-6437000D01*
X43231000Y7707000D02*
X43231000Y2075000D01*
X43191000Y-805000D02*
X43191000Y-6459000D01*
X43191000Y7729000D02*
X43191000Y2075000D01*
X43151000Y-805000D02*
X43151000Y-6480000D01*
X43151000Y7750000D02*
X43151000Y2075000D01*
X43111000Y-805000D02*
X43111000Y-6501000D01*
X43111000Y7771000D02*
X43111000Y2075000D01*
X43071000Y-805000D02*
X43071000Y-6522000D01*
X43071000Y7792000D02*
X43071000Y2075000D01*
X43031000Y-805000D02*
X43031000Y-6543000D01*
X43031000Y7813000D02*
X43031000Y2075000D01*
X42991000Y-805000D02*
X42991000Y-6564000D01*
X42991000Y7834000D02*
X42991000Y2075000D01*
X42951000Y-805000D02*
X42951000Y-6584000D01*
X42951000Y7854000D02*
X42951000Y2075000D01*
X42911000Y-805000D02*
X42911000Y-6604000D01*
X42911000Y7874000D02*
X42911000Y2075000D01*
X42871000Y-805000D02*
X42871000Y-6623000D01*
X42871000Y7893000D02*
X42871000Y2075000D01*
X42831000Y-805000D02*
X42831000Y-6643000D01*
X42831000Y7913000D02*
X42831000Y2075000D01*
X42791000Y-805000D02*
X42791000Y-6662000D01*
X42791000Y7932000D02*
X42791000Y2075000D01*
X42751000Y-805000D02*
X42751000Y-6681000D01*
X42751000Y7951000D02*
X42751000Y2075000D01*
X42711000Y-805000D02*
X42711000Y-6699000D01*
X42711000Y7969000D02*
X42711000Y2075000D01*
X42671000Y-805000D02*
X42671000Y-6718000D01*
X42671000Y7988000D02*
X42671000Y2075000D01*
X42631000Y-805000D02*
X42631000Y-6736000D01*
X42631000Y8006000D02*
X42631000Y2075000D01*
X42591000Y-805000D02*
X42591000Y-6754000D01*
X42591000Y8024000D02*
X42591000Y2075000D01*
X42551000Y-805000D02*
X42551000Y-6771000D01*
X42551000Y8041000D02*
X42551000Y2075000D01*
X42511000Y-805000D02*
X42511000Y-6788000D01*
X42511000Y8058000D02*
X42511000Y2075000D01*
X42471000Y-805000D02*
X42471000Y-6805000D01*
X42471000Y8075000D02*
X42471000Y2075000D01*
X42431000Y-805000D02*
X42431000Y-6822000D01*
X42431000Y8092000D02*
X42431000Y2075000D01*
X42391000Y-805000D02*
X42391000Y-6839000D01*
X42391000Y8109000D02*
X42391000Y2075000D01*
X42351000Y-805000D02*
X42351000Y-6855000D01*
X42351000Y8125000D02*
X42351000Y2075000D01*
X42311000Y-805000D02*
X42311000Y-6871000D01*
X42311000Y8141000D02*
X42311000Y2075000D01*
X42271000Y-805000D02*
X42271000Y-6887000D01*
X42271000Y8157000D02*
X42271000Y2075000D01*
X42231000Y-805000D02*
X42231000Y-6902000D01*
X42231000Y8172000D02*
X42231000Y2075000D01*
X42191000Y-805000D02*
X42191000Y-6918000D01*
X42191000Y8188000D02*
X42191000Y2075000D01*
X42151000Y-805000D02*
X42151000Y-6933000D01*
X42151000Y8203000D02*
X42151000Y2075000D01*
X42111000Y-805000D02*
X42111000Y-6947000D01*
X42111000Y8217000D02*
X42111000Y2075000D01*
X42071000Y-805000D02*
X42071000Y-6962000D01*
X42071000Y8232000D02*
X42071000Y2075000D01*
X42031000Y-805000D02*
X42031000Y-6976000D01*
X42031000Y8246000D02*
X42031000Y2075000D01*
X41991000Y-805000D02*
X41991000Y-6990000D01*
X41991000Y8260000D02*
X41991000Y2075000D01*
X41951000Y-805000D02*
X41951000Y-7004000D01*
X41951000Y8274000D02*
X41951000Y2075000D01*
X41911000Y-805000D02*
X41911000Y-7018000D01*
X41911000Y8288000D02*
X41911000Y2075000D01*
X41871000Y-805000D02*
X41871000Y-7031000D01*
X41871000Y8301000D02*
X41871000Y2075000D01*
X41831000Y-805000D02*
X41831000Y-7045000D01*
X41831000Y8315000D02*
X41831000Y2075000D01*
X41791000Y-805000D02*
X41791000Y-7058000D01*
X41791000Y8328000D02*
X41791000Y2075000D01*
X41751000Y-805000D02*
X41751000Y-7070000D01*
X41751000Y8340000D02*
X41751000Y2075000D01*
X41711000Y-805000D02*
X41711000Y-7083000D01*
X41711000Y8353000D02*
X41711000Y2075000D01*
X41671000Y-805000D02*
X41671000Y-7095000D01*
X41671000Y8365000D02*
X41671000Y2075000D01*
X41631000Y-805000D02*
X41631000Y-7107000D01*
X41631000Y8377000D02*
X41631000Y2075000D01*
X41591000Y8389000D02*
X41591000Y-7119000D01*
X41551000Y8400000D02*
X41551000Y-7130000D01*
X41511000Y8412000D02*
X41511000Y-7142000D01*
X41471000Y8423000D02*
X41471000Y-7153000D01*
X41431000Y8434000D02*
X41431000Y-7164000D01*
X41391000Y8445000D02*
X41391000Y-7175000D01*
X41351000Y8455000D02*
X41351000Y-7185000D01*
X41311000Y8465000D02*
X41311000Y-7195000D01*
X41271000Y8475000D02*
X41271000Y-7205000D01*
X41231000Y8485000D02*
X41231000Y-7215000D01*
X41191000Y8495000D02*
X41191000Y-7225000D01*
X41151000Y8504000D02*
X41151000Y-7234000D01*
X41111000Y8513000D02*
X41111000Y-7243000D01*
X41071000Y8522000D02*
X41071000Y-7252000D01*
X41031000Y8531000D02*
X41031000Y-7261000D01*
X40991000Y8540000D02*
X40991000Y-7270000D01*
X40951000Y8548000D02*
X40951000Y-7278000D01*
X40911000Y8556000D02*
X40911000Y-7286000D01*
X40871000Y8564000D02*
X40871000Y-7294000D01*
X40831000Y8572000D02*
X40831000Y-7302000D01*
X40791000Y8579000D02*
X40791000Y-7309000D01*
X40751000Y8587000D02*
X40751000Y-7317000D01*
X40711000Y8594000D02*
X40711000Y-7324000D01*
X40671000Y8601000D02*
X40671000Y-7331000D01*
X40631000Y8607000D02*
X40631000Y-7337000D01*
X40591000Y8614000D02*
X40591000Y-7344000D01*
X40551000Y8620000D02*
X40551000Y-7350000D01*
X40511000Y8626000D02*
X40511000Y-7356000D01*
X40471000Y8632000D02*
X40471000Y-7362000D01*
X40431000Y8638000D02*
X40431000Y-7368000D01*
X40391000Y8643000D02*
X40391000Y-7373000D01*
X40351000Y8649000D02*
X40351000Y-7379000D01*
X40311000Y8654000D02*
X40311000Y-7384000D01*
X40271000Y8659000D02*
X40271000Y-7389000D01*
X40231000Y8663000D02*
X40231000Y-7393000D01*
X40191000Y8668000D02*
X40191000Y-7398000D01*
X40151000Y8672000D02*
X40151000Y-7402000D01*
X40111000Y8676000D02*
X40111000Y-7406000D01*
X40071000Y8680000D02*
X40071000Y-7410000D01*
X40031000Y8684000D02*
X40031000Y-7414000D01*
X39990000Y8687000D02*
X39990000Y-7417000D01*
X39950000Y8690000D02*
X39950000Y-7420000D01*
X39910000Y8693000D02*
X39910000Y-7423000D01*
X39870000Y8696000D02*
X39870000Y-7426000D01*
X39830000Y8699000D02*
X39830000Y-7429000D01*
X39790000Y8701000D02*
X39790000Y-7431000D01*
X39750000Y8704000D02*
X39750000Y-7434000D01*
X39710000Y8706000D02*
X39710000Y-7436000D01*
X39670000Y8708000D02*
X39670000Y-7438000D01*
X39630000Y8709000D02*
X39630000Y-7439000D01*
X39590000Y8711000D02*
X39590000Y-7441000D01*
X39550000Y8712000D02*
X39550000Y-7442000D01*
X39510000Y8713000D02*
X39510000Y-7443000D01*
X39470000Y8714000D02*
X39470000Y-7444000D01*
X39430000Y8715000D02*
X39430000Y-7445000D01*
X39390000Y8715000D02*
X39390000Y-7445000D01*
X39350000Y8715000D02*
X39350000Y-7445000D01*
X39310000Y8716000D02*
X39310000Y-7446000D01*
X47430000Y635000D02*
G75*
G03X47430000Y635000I-8120000J0D01*
G01*
X16950000Y3175000D02*
G75*
G03X16950000Y3175000I-8120000J0D01*
G01*
X8830000Y11256000D02*
X8830000Y-4906000D01*
X8870000Y11255000D02*
X8870000Y-4905000D01*
X8910000Y11255000D02*
X8910000Y-4905000D01*
X8950000Y11255000D02*
X8950000Y-4905000D01*
X8990000Y11254000D02*
X8990000Y-4904000D01*
X9030000Y11253000D02*
X9030000Y-4903000D01*
X9070000Y11252000D02*
X9070000Y-4902000D01*
X9110000Y11251000D02*
X9110000Y-4901000D01*
X9150000Y11249000D02*
X9150000Y-4899000D01*
X9190000Y11248000D02*
X9190000Y-4898000D01*
X9230000Y11246000D02*
X9230000Y-4896000D01*
X9270000Y11244000D02*
X9270000Y-4894000D01*
X9310000Y11241000D02*
X9310000Y-4891000D01*
X9350000Y11239000D02*
X9350000Y-4889000D01*
X9390000Y11236000D02*
X9390000Y-4886000D01*
X9430000Y11233000D02*
X9430000Y-4883000D01*
X9470000Y11230000D02*
X9470000Y-4880000D01*
X9510000Y11227000D02*
X9510000Y-4877000D01*
X9551000Y11224000D02*
X9551000Y-4874000D01*
X9591000Y11220000D02*
X9591000Y-4870000D01*
X9631000Y11216000D02*
X9631000Y-4866000D01*
X9671000Y11212000D02*
X9671000Y-4862000D01*
X9711000Y11208000D02*
X9711000Y-4858000D01*
X9751000Y11203000D02*
X9751000Y-4853000D01*
X9791000Y11199000D02*
X9791000Y-4849000D01*
X9831000Y11194000D02*
X9831000Y-4844000D01*
X9871000Y11189000D02*
X9871000Y-4839000D01*
X9911000Y11183000D02*
X9911000Y-4833000D01*
X9951000Y11178000D02*
X9951000Y-4828000D01*
X9991000Y11172000D02*
X9991000Y-4822000D01*
X10031000Y11166000D02*
X10031000Y-4816000D01*
X10071000Y11160000D02*
X10071000Y-4810000D01*
X10111000Y11154000D02*
X10111000Y-4804000D01*
X10151000Y11147000D02*
X10151000Y-4797000D01*
X10191000Y11141000D02*
X10191000Y-4791000D01*
X10231000Y11134000D02*
X10231000Y-4784000D01*
X10271000Y11127000D02*
X10271000Y-4777000D01*
X10311000Y11119000D02*
X10311000Y-4769000D01*
X10351000Y11112000D02*
X10351000Y-4762000D01*
X10391000Y11104000D02*
X10391000Y-4754000D01*
X10431000Y11096000D02*
X10431000Y-4746000D01*
X10471000Y11088000D02*
X10471000Y-4738000D01*
X10511000Y11080000D02*
X10511000Y-4730000D01*
X10551000Y11071000D02*
X10551000Y-4721000D01*
X10591000Y11062000D02*
X10591000Y-4712000D01*
X10631000Y11053000D02*
X10631000Y-4703000D01*
X10671000Y11044000D02*
X10671000Y-4694000D01*
X10711000Y11035000D02*
X10711000Y-4685000D01*
X10751000Y11025000D02*
X10751000Y-4675000D01*
X10791000Y11015000D02*
X10791000Y-4665000D01*
X10831000Y11005000D02*
X10831000Y-4655000D01*
X10871000Y10995000D02*
X10871000Y-4645000D01*
X10911000Y10985000D02*
X10911000Y-4635000D01*
X10951000Y10974000D02*
X10951000Y-4624000D01*
X10991000Y10963000D02*
X10991000Y-4613000D01*
X11031000Y10952000D02*
X11031000Y-4602000D01*
X11071000Y10940000D02*
X11071000Y-4590000D01*
X11111000Y10929000D02*
X11111000Y-4579000D01*
X11151000Y10917000D02*
X11151000Y4615000D01*
X11151000Y1735000D02*
X11151000Y-4567000D01*
X11191000Y10905000D02*
X11191000Y4615000D01*
X11191000Y1735000D02*
X11191000Y-4555000D01*
X11231000Y10893000D02*
X11231000Y4615000D01*
X11231000Y1735000D02*
X11231000Y-4543000D01*
X11271000Y10880000D02*
X11271000Y4615000D01*
X11271000Y1735000D02*
X11271000Y-4530000D01*
X11311000Y10868000D02*
X11311000Y4615000D01*
X11311000Y1735000D02*
X11311000Y-4518000D01*
X11351000Y10855000D02*
X11351000Y4615000D01*
X11351000Y1735000D02*
X11351000Y-4505000D01*
X11391000Y10841000D02*
X11391000Y4615000D01*
X11391000Y1735000D02*
X11391000Y-4491000D01*
X11431000Y10828000D02*
X11431000Y4615000D01*
X11431000Y1735000D02*
X11431000Y-4478000D01*
X11471000Y10814000D02*
X11471000Y4615000D01*
X11471000Y1735000D02*
X11471000Y-4464000D01*
X11511000Y10800000D02*
X11511000Y4615000D01*
X11511000Y1735000D02*
X11511000Y-4450000D01*
X11551000Y10786000D02*
X11551000Y4615000D01*
X11551000Y1735000D02*
X11551000Y-4436000D01*
X11591000Y10772000D02*
X11591000Y4615000D01*
X11591000Y1735000D02*
X11591000Y-4422000D01*
X11631000Y10757000D02*
X11631000Y4615000D01*
X11631000Y1735000D02*
X11631000Y-4407000D01*
X11671000Y10743000D02*
X11671000Y4615000D01*
X11671000Y1735000D02*
X11671000Y-4393000D01*
X11711000Y10728000D02*
X11711000Y4615000D01*
X11711000Y1735000D02*
X11711000Y-4378000D01*
X11751000Y10712000D02*
X11751000Y4615000D01*
X11751000Y1735000D02*
X11751000Y-4362000D01*
X11791000Y10697000D02*
X11791000Y4615000D01*
X11791000Y1735000D02*
X11791000Y-4347000D01*
X11831000Y10681000D02*
X11831000Y4615000D01*
X11831000Y1735000D02*
X11831000Y-4331000D01*
X11871000Y10665000D02*
X11871000Y4615000D01*
X11871000Y1735000D02*
X11871000Y-4315000D01*
X11911000Y10649000D02*
X11911000Y4615000D01*
X11911000Y1735000D02*
X11911000Y-4299000D01*
X11951000Y10632000D02*
X11951000Y4615000D01*
X11951000Y1735000D02*
X11951000Y-4282000D01*
X11991000Y10615000D02*
X11991000Y4615000D01*
X11991000Y1735000D02*
X11991000Y-4265000D01*
X12031000Y10598000D02*
X12031000Y4615000D01*
X12031000Y1735000D02*
X12031000Y-4248000D01*
X12071000Y10581000D02*
X12071000Y4615000D01*
X12071000Y1735000D02*
X12071000Y-4231000D01*
X12111000Y10564000D02*
X12111000Y4615000D01*
X12111000Y1735000D02*
X12111000Y-4214000D01*
X12151000Y10546000D02*
X12151000Y4615000D01*
X12151000Y1735000D02*
X12151000Y-4196000D01*
X12191000Y10528000D02*
X12191000Y4615000D01*
X12191000Y1735000D02*
X12191000Y-4178000D01*
X12231000Y10509000D02*
X12231000Y4615000D01*
X12231000Y1735000D02*
X12231000Y-4159000D01*
X12271000Y10491000D02*
X12271000Y4615000D01*
X12271000Y1735000D02*
X12271000Y-4141000D01*
X12311000Y10472000D02*
X12311000Y4615000D01*
X12311000Y1735000D02*
X12311000Y-4122000D01*
X12351000Y10453000D02*
X12351000Y4615000D01*
X12351000Y1735000D02*
X12351000Y-4103000D01*
X12391000Y10433000D02*
X12391000Y4615000D01*
X12391000Y1735000D02*
X12391000Y-4083000D01*
X12431000Y10414000D02*
X12431000Y4615000D01*
X12431000Y1735000D02*
X12431000Y-4064000D01*
X12471000Y10394000D02*
X12471000Y4615000D01*
X12471000Y1735000D02*
X12471000Y-4044000D01*
X12511000Y10374000D02*
X12511000Y4615000D01*
X12511000Y1735000D02*
X12511000Y-4024000D01*
X12551000Y10353000D02*
X12551000Y4615000D01*
X12551000Y1735000D02*
X12551000Y-4003000D01*
X12591000Y10332000D02*
X12591000Y4615000D01*
X12591000Y1735000D02*
X12591000Y-3982000D01*
X12631000Y10311000D02*
X12631000Y4615000D01*
X12631000Y1735000D02*
X12631000Y-3961000D01*
X12671000Y10290000D02*
X12671000Y4615000D01*
X12671000Y1735000D02*
X12671000Y-3940000D01*
X12711000Y10269000D02*
X12711000Y4615000D01*
X12711000Y1735000D02*
X12711000Y-3919000D01*
X12751000Y10247000D02*
X12751000Y4615000D01*
X12751000Y1735000D02*
X12751000Y-3897000D01*
X12791000Y10224000D02*
X12791000Y4615000D01*
X12791000Y1735000D02*
X12791000Y-3874000D01*
X12831000Y10202000D02*
X12831000Y4615000D01*
X12831000Y1735000D02*
X12831000Y-3852000D01*
X12871000Y10179000D02*
X12871000Y4615000D01*
X12871000Y1735000D02*
X12871000Y-3829000D01*
X12911000Y10156000D02*
X12911000Y4615000D01*
X12911000Y1735000D02*
X12911000Y-3806000D01*
X12951000Y10133000D02*
X12951000Y4615000D01*
X12951000Y1735000D02*
X12951000Y-3783000D01*
X12991000Y10109000D02*
X12991000Y4615000D01*
X12991000Y1735000D02*
X12991000Y-3759000D01*
X13031000Y10085000D02*
X13031000Y4615000D01*
X13031000Y1735000D02*
X13031000Y-3735000D01*
X13071000Y10061000D02*
X13071000Y4615000D01*
X13071000Y1735000D02*
X13071000Y-3711000D01*
X13111000Y10036000D02*
X13111000Y4615000D01*
X13111000Y1735000D02*
X13111000Y-3686000D01*
X13151000Y10011000D02*
X13151000Y4615000D01*
X13151000Y1735000D02*
X13151000Y-3661000D01*
X13191000Y9986000D02*
X13191000Y4615000D01*
X13191000Y1735000D02*
X13191000Y-3636000D01*
X13231000Y9960000D02*
X13231000Y4615000D01*
X13231000Y1735000D02*
X13231000Y-3610000D01*
X13271000Y9934000D02*
X13271000Y4615000D01*
X13271000Y1735000D02*
X13271000Y-3584000D01*
X13311000Y9908000D02*
X13311000Y4615000D01*
X13311000Y1735000D02*
X13311000Y-3558000D01*
X13351000Y9881000D02*
X13351000Y4615000D01*
X13351000Y1735000D02*
X13351000Y-3531000D01*
X13391000Y9854000D02*
X13391000Y4615000D01*
X13391000Y1735000D02*
X13391000Y-3504000D01*
X13431000Y9827000D02*
X13431000Y4615000D01*
X13431000Y1735000D02*
X13431000Y-3477000D01*
X13471000Y9799000D02*
X13471000Y4615000D01*
X13471000Y1735000D02*
X13471000Y-3449000D01*
X13511000Y9771000D02*
X13511000Y4615000D01*
X13511000Y1735000D02*
X13511000Y-3421000D01*
X13551000Y9743000D02*
X13551000Y4615000D01*
X13551000Y1735000D02*
X13551000Y-3393000D01*
X13591000Y9714000D02*
X13591000Y4615000D01*
X13591000Y1735000D02*
X13591000Y-3364000D01*
X13631000Y9685000D02*
X13631000Y4615000D01*
X13631000Y1735000D02*
X13631000Y-3335000D01*
X13671000Y9655000D02*
X13671000Y4615000D01*
X13671000Y1735000D02*
X13671000Y-3305000D01*
X13711000Y9625000D02*
X13711000Y4615000D01*
X13711000Y1735000D02*
X13711000Y-3275000D01*
X13751000Y9595000D02*
X13751000Y4615000D01*
X13751000Y1735000D02*
X13751000Y-3245000D01*
X13791000Y9565000D02*
X13791000Y4615000D01*
X13791000Y1735000D02*
X13791000Y-3215000D01*
X13831000Y9533000D02*
X13831000Y4615000D01*
X13831000Y1735000D02*
X13831000Y-3183000D01*
X13871000Y9502000D02*
X13871000Y4615000D01*
X13871000Y1735000D02*
X13871000Y-3152000D01*
X13911000Y9470000D02*
X13911000Y4615000D01*
X13911000Y1735000D02*
X13911000Y-3120000D01*
X13951000Y9438000D02*
X13951000Y4615000D01*
X13951000Y1735000D02*
X13951000Y-3088000D01*
X13991000Y9405000D02*
X13991000Y4615000D01*
X13991000Y1735000D02*
X13991000Y-3055000D01*
X14031000Y9372000D02*
X14031000Y-3022000D01*
X14071000Y9338000D02*
X14071000Y-2988000D01*
X14111000Y9304000D02*
X14111000Y-2954000D01*
X14151000Y9270000D02*
X14151000Y-2920000D01*
X14191000Y9235000D02*
X14191000Y-2885000D01*
X14231000Y9200000D02*
X14231000Y-2850000D01*
X14271000Y9164000D02*
X14271000Y-2814000D01*
X14311000Y9127000D02*
X14311000Y-2777000D01*
X14351000Y9091000D02*
X14351000Y-2741000D01*
X14391000Y9053000D02*
X14391000Y-2703000D01*
X14431000Y9015000D02*
X14431000Y-2665000D01*
X14471000Y8977000D02*
X14471000Y-2627000D01*
X14511000Y8938000D02*
X14511000Y-2588000D01*
X14551000Y8899000D02*
X14551000Y-2549000D01*
X14591000Y8859000D02*
X14591000Y-2509000D01*
X14631000Y8818000D02*
X14631000Y-2468000D01*
X14671000Y8777000D02*
X14671000Y-2427000D01*
X14711000Y8735000D02*
X14711000Y-2385000D01*
X14751000Y8693000D02*
X14751000Y-2343000D01*
X14791000Y8650000D02*
X14791000Y-2300000D01*
X14831000Y8607000D02*
X14831000Y-2257000D01*
X14871000Y8563000D02*
X14871000Y-2213000D01*
X14911000Y8518000D02*
X14911000Y-2168000D01*
X14951000Y8472000D02*
X14951000Y-2122000D01*
X14991000Y8426000D02*
X14991000Y-2076000D01*
X15031000Y8379000D02*
X15031000Y-2029000D01*
X15071000Y8331000D02*
X15071000Y-1981000D01*
X15111000Y8283000D02*
X15111000Y-1933000D01*
X15151000Y8234000D02*
X15151000Y-1884000D01*
X15191000Y8184000D02*
X15191000Y-1834000D01*
X15231000Y8133000D02*
X15231000Y-1783000D01*
X15271000Y8081000D02*
X15271000Y-1731000D01*
X15311000Y8029000D02*
X15311000Y-1679000D01*
X15351000Y7975000D02*
X15351000Y-1625000D01*
X15391000Y7921000D02*
X15391000Y-1571000D01*
X15431000Y7866000D02*
X15431000Y-1516000D01*
X15471000Y7809000D02*
X15471000Y-1459000D01*
X15511000Y7752000D02*
X15511000Y-1402000D01*
X15551000Y7694000D02*
X15551000Y-1344000D01*
X15591000Y7634000D02*
X15591000Y-1284000D01*
X15631000Y7573000D02*
X15631000Y-1223000D01*
X15671000Y7511000D02*
X15671000Y-1161000D01*
X15711000Y7448000D02*
X15711000Y-1098000D01*
X15751000Y7384000D02*
X15751000Y-1034000D01*
X15791000Y7318000D02*
X15791000Y-968000D01*
X15831000Y7251000D02*
X15831000Y-901000D01*
X15871000Y7182000D02*
X15871000Y-832000D01*
X15911000Y7111000D02*
X15911000Y-761000D01*
X15951000Y7039000D02*
X15951000Y-689000D01*
X15991000Y6965000D02*
X15991000Y-615000D01*
X16031000Y6890000D02*
X16031000Y-540000D01*
X16071000Y6812000D02*
X16071000Y-462000D01*
X16111000Y6732000D02*
X16111000Y-382000D01*
X16151000Y6650000D02*
X16151000Y-300000D01*
X16191000Y6565000D02*
X16191000Y-215000D01*
X16231000Y6478000D02*
X16231000Y-128000D01*
X16271000Y6388000D02*
X16271000Y-38000D01*
X16311000Y6295000D02*
X16311000Y55000D01*
X16351000Y6199000D02*
X16351000Y151000D01*
X16391000Y6099000D02*
X16391000Y251000D01*
X16431000Y5995000D02*
X16431000Y355000D01*
X16471000Y5886000D02*
X16471000Y464000D01*
X16511000Y5772000D02*
X16511000Y578000D01*
X16551000Y5653000D02*
X16551000Y697000D01*
X16591000Y5526000D02*
X16591000Y824000D01*
X16631000Y5393000D02*
X16631000Y957000D01*
X16671000Y5249000D02*
X16671000Y1101000D01*
X16711000Y5095000D02*
X16711000Y1255000D01*
X16751000Y4927000D02*
X16751000Y1423000D01*
X16791000Y4739000D02*
X16791000Y1611000D01*
X16831000Y4526000D02*
X16831000Y1824000D01*
X16871000Y4273000D02*
X16871000Y2077000D01*
X16911000Y3940000D02*
X16911000Y2410000D01*
X140509Y7730000D02*
X1740509Y7730000D01*
X940509Y8530000D02*
X940509Y6930000D01*
X16815509Y14880000D02*
X16815509Y13280000D01*
X16015509Y14080000D02*
X17615509Y14080000D01*
X32786000Y10290000D02*
X32786000Y8760000D01*
X32746000Y10623000D02*
X32746000Y8427000D01*
X32706000Y10876000D02*
X32706000Y8174000D01*
X32666000Y11089000D02*
X32666000Y7961000D01*
X32626000Y11277000D02*
X32626000Y7773000D01*
X32586000Y11445000D02*
X32586000Y7605000D01*
X32546000Y11599000D02*
X32546000Y7451000D01*
X32506000Y11743000D02*
X32506000Y7307000D01*
X32466000Y11876000D02*
X32466000Y7174000D01*
X32426000Y12003000D02*
X32426000Y7047000D01*
X32386000Y12122000D02*
X32386000Y6928000D01*
X32346000Y12236000D02*
X32346000Y6814000D01*
X32306000Y12345000D02*
X32306000Y6705000D01*
X32266000Y12449000D02*
X32266000Y6601000D01*
X32226000Y12549000D02*
X32226000Y6501000D01*
X32186000Y12645000D02*
X32186000Y6405000D01*
X32146000Y12738000D02*
X32146000Y6312000D01*
X32106000Y12828000D02*
X32106000Y6222000D01*
X32066000Y12915000D02*
X32066000Y6135000D01*
X32026000Y13000000D02*
X32026000Y6050000D01*
X31986000Y13082000D02*
X31986000Y5968000D01*
X31946000Y13162000D02*
X31946000Y5888000D01*
X31906000Y13240000D02*
X31906000Y5810000D01*
X31866000Y13315000D02*
X31866000Y5735000D01*
X31826000Y13389000D02*
X31826000Y5661000D01*
X31786000Y13461000D02*
X31786000Y5589000D01*
X31746000Y13532000D02*
X31746000Y5518000D01*
X31706000Y13601000D02*
X31706000Y5449000D01*
X31666000Y13668000D02*
X31666000Y5382000D01*
X31626000Y13734000D02*
X31626000Y5316000D01*
X31586000Y13798000D02*
X31586000Y5252000D01*
X31546000Y13861000D02*
X31546000Y5189000D01*
X31506000Y13923000D02*
X31506000Y5127000D01*
X31466000Y13984000D02*
X31466000Y5066000D01*
X31426000Y14044000D02*
X31426000Y5006000D01*
X31386000Y14102000D02*
X31386000Y4948000D01*
X31346000Y14159000D02*
X31346000Y4891000D01*
X31306000Y14216000D02*
X31306000Y4834000D01*
X31266000Y14271000D02*
X31266000Y4779000D01*
X31226000Y14325000D02*
X31226000Y4725000D01*
X31186000Y14379000D02*
X31186000Y4671000D01*
X31146000Y14431000D02*
X31146000Y4619000D01*
X31106000Y14483000D02*
X31106000Y4567000D01*
X31066000Y14534000D02*
X31066000Y4516000D01*
X31026000Y14584000D02*
X31026000Y4466000D01*
X30986000Y14633000D02*
X30986000Y4417000D01*
X30946000Y14681000D02*
X30946000Y4369000D01*
X30906000Y14729000D02*
X30906000Y4321000D01*
X30866000Y14776000D02*
X30866000Y4274000D01*
X30826000Y14822000D02*
X30826000Y4228000D01*
X30786000Y14868000D02*
X30786000Y4182000D01*
X30746000Y14913000D02*
X30746000Y4137000D01*
X30706000Y14957000D02*
X30706000Y4093000D01*
X30666000Y15000000D02*
X30666000Y4050000D01*
X30626000Y15043000D02*
X30626000Y4007000D01*
X30586000Y15085000D02*
X30586000Y3965000D01*
X30546000Y15127000D02*
X30546000Y3923000D01*
X30506000Y15168000D02*
X30506000Y3882000D01*
X30466000Y15209000D02*
X30466000Y3841000D01*
X30426000Y15249000D02*
X30426000Y3801000D01*
X30386000Y15288000D02*
X30386000Y3762000D01*
X30346000Y15327000D02*
X30346000Y3723000D01*
X30306000Y15365000D02*
X30306000Y3685000D01*
X30266000Y15403000D02*
X30266000Y3647000D01*
X30226000Y15441000D02*
X30226000Y3609000D01*
X30186000Y15477000D02*
X30186000Y3573000D01*
X30146000Y15514000D02*
X30146000Y3536000D01*
X30106000Y15550000D02*
X30106000Y3500000D01*
X30066000Y15585000D02*
X30066000Y3465000D01*
X30026000Y15620000D02*
X30026000Y3430000D01*
X29986000Y15654000D02*
X29986000Y3396000D01*
X29946000Y15688000D02*
X29946000Y3362000D01*
X29906000Y15722000D02*
X29906000Y3328000D01*
X29866000Y8085000D02*
X29866000Y3295000D01*
X29866000Y15755000D02*
X29866000Y10965000D01*
X29826000Y8085000D02*
X29826000Y3262000D01*
X29826000Y15788000D02*
X29826000Y10965000D01*
X29786000Y8085000D02*
X29786000Y3230000D01*
X29786000Y15820000D02*
X29786000Y10965000D01*
X29746000Y8085000D02*
X29746000Y3198000D01*
X29746000Y15852000D02*
X29746000Y10965000D01*
X29706000Y8085000D02*
X29706000Y3167000D01*
X29706000Y15883000D02*
X29706000Y10965000D01*
X29666000Y8085000D02*
X29666000Y3135000D01*
X29666000Y15915000D02*
X29666000Y10965000D01*
X29626000Y8085000D02*
X29626000Y3105000D01*
X29626000Y15945000D02*
X29626000Y10965000D01*
X29586000Y8085000D02*
X29586000Y3075000D01*
X29586000Y15975000D02*
X29586000Y10965000D01*
X29546000Y8085000D02*
X29546000Y3045000D01*
X29546000Y16005000D02*
X29546000Y10965000D01*
X29506000Y8085000D02*
X29506000Y3015000D01*
X29506000Y16035000D02*
X29506000Y10965000D01*
X29466000Y8085000D02*
X29466000Y2986000D01*
X29466000Y16064000D02*
X29466000Y10965000D01*
X29426000Y8085000D02*
X29426000Y2957000D01*
X29426000Y16093000D02*
X29426000Y10965000D01*
X29386000Y8085000D02*
X29386000Y2929000D01*
X29386000Y16121000D02*
X29386000Y10965000D01*
X29346000Y8085000D02*
X29346000Y2901000D01*
X29346000Y16149000D02*
X29346000Y10965000D01*
X29306000Y8085000D02*
X29306000Y2873000D01*
X29306000Y16177000D02*
X29306000Y10965000D01*
X29266000Y8085000D02*
X29266000Y2846000D01*
X29266000Y16204000D02*
X29266000Y10965000D01*
X29226000Y8085000D02*
X29226000Y2819000D01*
X29226000Y16231000D02*
X29226000Y10965000D01*
X29186000Y8085000D02*
X29186000Y2792000D01*
X29186000Y16258000D02*
X29186000Y10965000D01*
X29146000Y8085000D02*
X29146000Y2766000D01*
X29146000Y16284000D02*
X29146000Y10965000D01*
X29106000Y8085000D02*
X29106000Y2740000D01*
X29106000Y16310000D02*
X29106000Y10965000D01*
X29066000Y8085000D02*
X29066000Y2714000D01*
X29066000Y16336000D02*
X29066000Y10965000D01*
X29026000Y8085000D02*
X29026000Y2689000D01*
X29026000Y16361000D02*
X29026000Y10965000D01*
X28986000Y8085000D02*
X28986000Y2664000D01*
X28986000Y16386000D02*
X28986000Y10965000D01*
X28946000Y8085000D02*
X28946000Y2639000D01*
X28946000Y16411000D02*
X28946000Y10965000D01*
X28906000Y8085000D02*
X28906000Y2615000D01*
X28906000Y16435000D02*
X28906000Y10965000D01*
X28866000Y8085000D02*
X28866000Y2591000D01*
X28866000Y16459000D02*
X28866000Y10965000D01*
X28826000Y8085000D02*
X28826000Y2567000D01*
X28826000Y16483000D02*
X28826000Y10965000D01*
X28786000Y8085000D02*
X28786000Y2544000D01*
X28786000Y16506000D02*
X28786000Y10965000D01*
X28746000Y8085000D02*
X28746000Y2521000D01*
X28746000Y16529000D02*
X28746000Y10965000D01*
X28706000Y8085000D02*
X28706000Y2498000D01*
X28706000Y16552000D02*
X28706000Y10965000D01*
X28666000Y8085000D02*
X28666000Y2476000D01*
X28666000Y16574000D02*
X28666000Y10965000D01*
X28626000Y8085000D02*
X28626000Y2453000D01*
X28626000Y16597000D02*
X28626000Y10965000D01*
X28586000Y8085000D02*
X28586000Y2431000D01*
X28586000Y16619000D02*
X28586000Y10965000D01*
X28546000Y8085000D02*
X28546000Y2410000D01*
X28546000Y16640000D02*
X28546000Y10965000D01*
X28506000Y8085000D02*
X28506000Y2389000D01*
X28506000Y16661000D02*
X28506000Y10965000D01*
X28466000Y8085000D02*
X28466000Y2368000D01*
X28466000Y16682000D02*
X28466000Y10965000D01*
X28426000Y8085000D02*
X28426000Y2347000D01*
X28426000Y16703000D02*
X28426000Y10965000D01*
X28386000Y8085000D02*
X28386000Y2326000D01*
X28386000Y16724000D02*
X28386000Y10965000D01*
X28346000Y8085000D02*
X28346000Y2306000D01*
X28346000Y16744000D02*
X28346000Y10965000D01*
X28306000Y8085000D02*
X28306000Y2286000D01*
X28306000Y16764000D02*
X28306000Y10965000D01*
X28266000Y8085000D02*
X28266000Y2267000D01*
X28266000Y16783000D02*
X28266000Y10965000D01*
X28226000Y8085000D02*
X28226000Y2247000D01*
X28226000Y16803000D02*
X28226000Y10965000D01*
X28186000Y8085000D02*
X28186000Y2228000D01*
X28186000Y16822000D02*
X28186000Y10965000D01*
X28146000Y8085000D02*
X28146000Y2209000D01*
X28146000Y16841000D02*
X28146000Y10965000D01*
X28106000Y8085000D02*
X28106000Y2191000D01*
X28106000Y16859000D02*
X28106000Y10965000D01*
X28066000Y8085000D02*
X28066000Y2172000D01*
X28066000Y16878000D02*
X28066000Y10965000D01*
X28026000Y8085000D02*
X28026000Y2154000D01*
X28026000Y16896000D02*
X28026000Y10965000D01*
X27986000Y8085000D02*
X27986000Y2136000D01*
X27986000Y16914000D02*
X27986000Y10965000D01*
X27946000Y8085000D02*
X27946000Y2119000D01*
X27946000Y16931000D02*
X27946000Y10965000D01*
X27906000Y8085000D02*
X27906000Y2102000D01*
X27906000Y16948000D02*
X27906000Y10965000D01*
X27866000Y8085000D02*
X27866000Y2085000D01*
X27866000Y16965000D02*
X27866000Y10965000D01*
X27826000Y8085000D02*
X27826000Y2068000D01*
X27826000Y16982000D02*
X27826000Y10965000D01*
X27786000Y8085000D02*
X27786000Y2051000D01*
X27786000Y16999000D02*
X27786000Y10965000D01*
X27746000Y8085000D02*
X27746000Y2035000D01*
X27746000Y17015000D02*
X27746000Y10965000D01*
X27706000Y8085000D02*
X27706000Y2019000D01*
X27706000Y17031000D02*
X27706000Y10965000D01*
X27666000Y8085000D02*
X27666000Y2003000D01*
X27666000Y17047000D02*
X27666000Y10965000D01*
X27626000Y8085000D02*
X27626000Y1988000D01*
X27626000Y17062000D02*
X27626000Y10965000D01*
X27586000Y8085000D02*
X27586000Y1972000D01*
X27586000Y17078000D02*
X27586000Y10965000D01*
X27546000Y8085000D02*
X27546000Y1957000D01*
X27546000Y17093000D02*
X27546000Y10965000D01*
X27506000Y8085000D02*
X27506000Y1943000D01*
X27506000Y17107000D02*
X27506000Y10965000D01*
X27466000Y8085000D02*
X27466000Y1928000D01*
X27466000Y17122000D02*
X27466000Y10965000D01*
X27426000Y8085000D02*
X27426000Y1914000D01*
X27426000Y17136000D02*
X27426000Y10965000D01*
X27386000Y8085000D02*
X27386000Y1900000D01*
X27386000Y17150000D02*
X27386000Y10965000D01*
X27346000Y8085000D02*
X27346000Y1886000D01*
X27346000Y17164000D02*
X27346000Y10965000D01*
X27306000Y8085000D02*
X27306000Y1872000D01*
X27306000Y17178000D02*
X27306000Y10965000D01*
X27266000Y8085000D02*
X27266000Y1859000D01*
X27266000Y17191000D02*
X27266000Y10965000D01*
X27226000Y8085000D02*
X27226000Y1845000D01*
X27226000Y17205000D02*
X27226000Y10965000D01*
X27186000Y8085000D02*
X27186000Y1832000D01*
X27186000Y17218000D02*
X27186000Y10965000D01*
X27146000Y8085000D02*
X27146000Y1820000D01*
X27146000Y17230000D02*
X27146000Y10965000D01*
X27106000Y8085000D02*
X27106000Y1807000D01*
X27106000Y17243000D02*
X27106000Y10965000D01*
X27066000Y8085000D02*
X27066000Y1795000D01*
X27066000Y17255000D02*
X27066000Y10965000D01*
X27026000Y8085000D02*
X27026000Y1783000D01*
X27026000Y17267000D02*
X27026000Y10965000D01*
X26986000Y17279000D02*
X26986000Y1771000D01*
X26946000Y17290000D02*
X26946000Y1760000D01*
X26906000Y17302000D02*
X26906000Y1748000D01*
X26866000Y17313000D02*
X26866000Y1737000D01*
X26826000Y17324000D02*
X26826000Y1726000D01*
X26786000Y17335000D02*
X26786000Y1715000D01*
X26746000Y17345000D02*
X26746000Y1705000D01*
X26706000Y17355000D02*
X26706000Y1695000D01*
X26666000Y17365000D02*
X26666000Y1685000D01*
X26626000Y17375000D02*
X26626000Y1675000D01*
X26586000Y17385000D02*
X26586000Y1665000D01*
X26546000Y17394000D02*
X26546000Y1656000D01*
X26506000Y17403000D02*
X26506000Y1647000D01*
X26466000Y17412000D02*
X26466000Y1638000D01*
X26426000Y17421000D02*
X26426000Y1629000D01*
X26386000Y17430000D02*
X26386000Y1620000D01*
X26346000Y17438000D02*
X26346000Y1612000D01*
X26306000Y17446000D02*
X26306000Y1604000D01*
X26266000Y17454000D02*
X26266000Y1596000D01*
X26226000Y17462000D02*
X26226000Y1588000D01*
X26186000Y17469000D02*
X26186000Y1581000D01*
X26146000Y17477000D02*
X26146000Y1573000D01*
X26106000Y17484000D02*
X26106000Y1566000D01*
X26066000Y17491000D02*
X26066000Y1559000D01*
X26026000Y17497000D02*
X26026000Y1553000D01*
X25986000Y17504000D02*
X25986000Y1546000D01*
X25946000Y17510000D02*
X25946000Y1540000D01*
X25906000Y17516000D02*
X25906000Y1534000D01*
X25866000Y17522000D02*
X25866000Y1528000D01*
X25826000Y17528000D02*
X25826000Y1522000D01*
X25786000Y17533000D02*
X25786000Y1517000D01*
X25746000Y17539000D02*
X25746000Y1511000D01*
X25706000Y17544000D02*
X25706000Y1506000D01*
X25666000Y17549000D02*
X25666000Y1501000D01*
X25626000Y17553000D02*
X25626000Y1497000D01*
X25586000Y17558000D02*
X25586000Y1492000D01*
X25546000Y17562000D02*
X25546000Y1488000D01*
X25506000Y17566000D02*
X25506000Y1484000D01*
X25466000Y17570000D02*
X25466000Y1480000D01*
X25426000Y17574000D02*
X25426000Y1476000D01*
X25385000Y17577000D02*
X25385000Y1473000D01*
X25345000Y17580000D02*
X25345000Y1470000D01*
X25305000Y17583000D02*
X25305000Y1467000D01*
X25265000Y17586000D02*
X25265000Y1464000D01*
X25225000Y17589000D02*
X25225000Y1461000D01*
X25185000Y17591000D02*
X25185000Y1459000D01*
X25145000Y17594000D02*
X25145000Y1456000D01*
X25105000Y17596000D02*
X25105000Y1454000D01*
X25065000Y17598000D02*
X25065000Y1452000D01*
X25025000Y17599000D02*
X25025000Y1451000D01*
X24985000Y17601000D02*
X24985000Y1449000D01*
X24945000Y17602000D02*
X24945000Y1448000D01*
X24905000Y17603000D02*
X24905000Y1447000D01*
X24865000Y17604000D02*
X24865000Y1446000D01*
X24825000Y17605000D02*
X24825000Y1445000D01*
X24785000Y17605000D02*
X24785000Y1445000D01*
X24745000Y17605000D02*
X24745000Y1445000D01*
X24705000Y17606000D02*
X24705000Y1444000D01*
X32825000Y9525000D02*
G75*
G03X32825000Y9525000I-8120000J0D01*
G01*
X47430000Y18415000D02*
G75*
G03X47430000Y18415000I-8120000J0D01*
G01*
X39310000Y26496000D02*
X39310000Y10334000D01*
X39350000Y26495000D02*
X39350000Y10335000D01*
X39390000Y26495000D02*
X39390000Y10335000D01*
X39430000Y26495000D02*
X39430000Y10335000D01*
X39470000Y26494000D02*
X39470000Y10336000D01*
X39510000Y26493000D02*
X39510000Y10337000D01*
X39550000Y26492000D02*
X39550000Y10338000D01*
X39590000Y26491000D02*
X39590000Y10339000D01*
X39630000Y26489000D02*
X39630000Y10341000D01*
X39670000Y26488000D02*
X39670000Y10342000D01*
X39710000Y26486000D02*
X39710000Y10344000D01*
X39750000Y26484000D02*
X39750000Y10346000D01*
X39790000Y26481000D02*
X39790000Y10349000D01*
X39830000Y26479000D02*
X39830000Y10351000D01*
X39870000Y26476000D02*
X39870000Y10354000D01*
X39910000Y26473000D02*
X39910000Y10357000D01*
X39950000Y26470000D02*
X39950000Y10360000D01*
X39990000Y26467000D02*
X39990000Y10363000D01*
X40031000Y26464000D02*
X40031000Y10366000D01*
X40071000Y26460000D02*
X40071000Y10370000D01*
X40111000Y26456000D02*
X40111000Y10374000D01*
X40151000Y26452000D02*
X40151000Y10378000D01*
X40191000Y26448000D02*
X40191000Y10382000D01*
X40231000Y26443000D02*
X40231000Y10387000D01*
X40271000Y26439000D02*
X40271000Y10391000D01*
X40311000Y26434000D02*
X40311000Y10396000D01*
X40351000Y26429000D02*
X40351000Y10401000D01*
X40391000Y26423000D02*
X40391000Y10407000D01*
X40431000Y26418000D02*
X40431000Y10412000D01*
X40471000Y26412000D02*
X40471000Y10418000D01*
X40511000Y26406000D02*
X40511000Y10424000D01*
X40551000Y26400000D02*
X40551000Y10430000D01*
X40591000Y26394000D02*
X40591000Y10436000D01*
X40631000Y26387000D02*
X40631000Y10443000D01*
X40671000Y26381000D02*
X40671000Y10449000D01*
X40711000Y26374000D02*
X40711000Y10456000D01*
X40751000Y26367000D02*
X40751000Y10463000D01*
X40791000Y26359000D02*
X40791000Y10471000D01*
X40831000Y26352000D02*
X40831000Y10478000D01*
X40871000Y26344000D02*
X40871000Y10486000D01*
X40911000Y26336000D02*
X40911000Y10494000D01*
X40951000Y26328000D02*
X40951000Y10502000D01*
X40991000Y26320000D02*
X40991000Y10510000D01*
X41031000Y26311000D02*
X41031000Y10519000D01*
X41071000Y26302000D02*
X41071000Y10528000D01*
X41111000Y26293000D02*
X41111000Y10537000D01*
X41151000Y26284000D02*
X41151000Y10546000D01*
X41191000Y26275000D02*
X41191000Y10555000D01*
X41231000Y26265000D02*
X41231000Y10565000D01*
X41271000Y26255000D02*
X41271000Y10575000D01*
X41311000Y26245000D02*
X41311000Y10585000D01*
X41351000Y26235000D02*
X41351000Y10595000D01*
X41391000Y26225000D02*
X41391000Y10605000D01*
X41431000Y26214000D02*
X41431000Y10616000D01*
X41471000Y26203000D02*
X41471000Y10627000D01*
X41511000Y26192000D02*
X41511000Y10638000D01*
X41551000Y26180000D02*
X41551000Y10650000D01*
X41591000Y26169000D02*
X41591000Y10661000D01*
X41631000Y26157000D02*
X41631000Y19855000D01*
X41631000Y16975000D02*
X41631000Y10673000D01*
X41671000Y26145000D02*
X41671000Y19855000D01*
X41671000Y16975000D02*
X41671000Y10685000D01*
X41711000Y26133000D02*
X41711000Y19855000D01*
X41711000Y16975000D02*
X41711000Y10697000D01*
X41751000Y26120000D02*
X41751000Y19855000D01*
X41751000Y16975000D02*
X41751000Y10710000D01*
X41791000Y26108000D02*
X41791000Y19855000D01*
X41791000Y16975000D02*
X41791000Y10722000D01*
X41831000Y26095000D02*
X41831000Y19855000D01*
X41831000Y16975000D02*
X41831000Y10735000D01*
X41871000Y26081000D02*
X41871000Y19855000D01*
X41871000Y16975000D02*
X41871000Y10749000D01*
X41911000Y26068000D02*
X41911000Y19855000D01*
X41911000Y16975000D02*
X41911000Y10762000D01*
X41951000Y26054000D02*
X41951000Y19855000D01*
X41951000Y16975000D02*
X41951000Y10776000D01*
X41991000Y26040000D02*
X41991000Y19855000D01*
X41991000Y16975000D02*
X41991000Y10790000D01*
X42031000Y26026000D02*
X42031000Y19855000D01*
X42031000Y16975000D02*
X42031000Y10804000D01*
X42071000Y26012000D02*
X42071000Y19855000D01*
X42071000Y16975000D02*
X42071000Y10818000D01*
X42111000Y25997000D02*
X42111000Y19855000D01*
X42111000Y16975000D02*
X42111000Y10833000D01*
X42151000Y25983000D02*
X42151000Y19855000D01*
X42151000Y16975000D02*
X42151000Y10847000D01*
X42191000Y25968000D02*
X42191000Y19855000D01*
X42191000Y16975000D02*
X42191000Y10862000D01*
X42231000Y25952000D02*
X42231000Y19855000D01*
X42231000Y16975000D02*
X42231000Y10878000D01*
X42271000Y25937000D02*
X42271000Y19855000D01*
X42271000Y16975000D02*
X42271000Y10893000D01*
X42311000Y25921000D02*
X42311000Y19855000D01*
X42311000Y16975000D02*
X42311000Y10909000D01*
X42351000Y25905000D02*
X42351000Y19855000D01*
X42351000Y16975000D02*
X42351000Y10925000D01*
X42391000Y25889000D02*
X42391000Y19855000D01*
X42391000Y16975000D02*
X42391000Y10941000D01*
X42431000Y25872000D02*
X42431000Y19855000D01*
X42431000Y16975000D02*
X42431000Y10958000D01*
X42471000Y25855000D02*
X42471000Y19855000D01*
X42471000Y16975000D02*
X42471000Y10975000D01*
X42511000Y25838000D02*
X42511000Y19855000D01*
X42511000Y16975000D02*
X42511000Y10992000D01*
X42551000Y25821000D02*
X42551000Y19855000D01*
X42551000Y16975000D02*
X42551000Y11009000D01*
X42591000Y25804000D02*
X42591000Y19855000D01*
X42591000Y16975000D02*
X42591000Y11026000D01*
X42631000Y25786000D02*
X42631000Y19855000D01*
X42631000Y16975000D02*
X42631000Y11044000D01*
X42671000Y25768000D02*
X42671000Y19855000D01*
X42671000Y16975000D02*
X42671000Y11062000D01*
X42711000Y25749000D02*
X42711000Y19855000D01*
X42711000Y16975000D02*
X42711000Y11081000D01*
X42751000Y25731000D02*
X42751000Y19855000D01*
X42751000Y16975000D02*
X42751000Y11099000D01*
X42791000Y25712000D02*
X42791000Y19855000D01*
X42791000Y16975000D02*
X42791000Y11118000D01*
X42831000Y25693000D02*
X42831000Y19855000D01*
X42831000Y16975000D02*
X42831000Y11137000D01*
X42871000Y25673000D02*
X42871000Y19855000D01*
X42871000Y16975000D02*
X42871000Y11157000D01*
X42911000Y25654000D02*
X42911000Y19855000D01*
X42911000Y16975000D02*
X42911000Y11176000D01*
X42951000Y25634000D02*
X42951000Y19855000D01*
X42951000Y16975000D02*
X42951000Y11196000D01*
X42991000Y25614000D02*
X42991000Y19855000D01*
X42991000Y16975000D02*
X42991000Y11216000D01*
X43031000Y25593000D02*
X43031000Y19855000D01*
X43031000Y16975000D02*
X43031000Y11237000D01*
X43071000Y25572000D02*
X43071000Y19855000D01*
X43071000Y16975000D02*
X43071000Y11258000D01*
X43111000Y25551000D02*
X43111000Y19855000D01*
X43111000Y16975000D02*
X43111000Y11279000D01*
X43151000Y25530000D02*
X43151000Y19855000D01*
X43151000Y16975000D02*
X43151000Y11300000D01*
X43191000Y25509000D02*
X43191000Y19855000D01*
X43191000Y16975000D02*
X43191000Y11321000D01*
X43231000Y25487000D02*
X43231000Y19855000D01*
X43231000Y16975000D02*
X43231000Y11343000D01*
X43271000Y25464000D02*
X43271000Y19855000D01*
X43271000Y16975000D02*
X43271000Y11366000D01*
X43311000Y25442000D02*
X43311000Y19855000D01*
X43311000Y16975000D02*
X43311000Y11388000D01*
X43351000Y25419000D02*
X43351000Y19855000D01*
X43351000Y16975000D02*
X43351000Y11411000D01*
X43391000Y25396000D02*
X43391000Y19855000D01*
X43391000Y16975000D02*
X43391000Y11434000D01*
X43431000Y25373000D02*
X43431000Y19855000D01*
X43431000Y16975000D02*
X43431000Y11457000D01*
X43471000Y25349000D02*
X43471000Y19855000D01*
X43471000Y16975000D02*
X43471000Y11481000D01*
X43511000Y25325000D02*
X43511000Y19855000D01*
X43511000Y16975000D02*
X43511000Y11505000D01*
X43551000Y25301000D02*
X43551000Y19855000D01*
X43551000Y16975000D02*
X43551000Y11529000D01*
X43591000Y25276000D02*
X43591000Y19855000D01*
X43591000Y16975000D02*
X43591000Y11554000D01*
X43631000Y25251000D02*
X43631000Y19855000D01*
X43631000Y16975000D02*
X43631000Y11579000D01*
X43671000Y25226000D02*
X43671000Y19855000D01*
X43671000Y16975000D02*
X43671000Y11604000D01*
X43711000Y25200000D02*
X43711000Y19855000D01*
X43711000Y16975000D02*
X43711000Y11630000D01*
X43751000Y25174000D02*
X43751000Y19855000D01*
X43751000Y16975000D02*
X43751000Y11656000D01*
X43791000Y25148000D02*
X43791000Y19855000D01*
X43791000Y16975000D02*
X43791000Y11682000D01*
X43831000Y25121000D02*
X43831000Y19855000D01*
X43831000Y16975000D02*
X43831000Y11709000D01*
X43871000Y25094000D02*
X43871000Y19855000D01*
X43871000Y16975000D02*
X43871000Y11736000D01*
X43911000Y25067000D02*
X43911000Y19855000D01*
X43911000Y16975000D02*
X43911000Y11763000D01*
X43951000Y25039000D02*
X43951000Y19855000D01*
X43951000Y16975000D02*
X43951000Y11791000D01*
X43991000Y25011000D02*
X43991000Y19855000D01*
X43991000Y16975000D02*
X43991000Y11819000D01*
X44031000Y24983000D02*
X44031000Y19855000D01*
X44031000Y16975000D02*
X44031000Y11847000D01*
X44071000Y24954000D02*
X44071000Y19855000D01*
X44071000Y16975000D02*
X44071000Y11876000D01*
X44111000Y24925000D02*
X44111000Y19855000D01*
X44111000Y16975000D02*
X44111000Y11905000D01*
X44151000Y24895000D02*
X44151000Y19855000D01*
X44151000Y16975000D02*
X44151000Y11935000D01*
X44191000Y24865000D02*
X44191000Y19855000D01*
X44191000Y16975000D02*
X44191000Y11965000D01*
X44231000Y24835000D02*
X44231000Y19855000D01*
X44231000Y16975000D02*
X44231000Y11995000D01*
X44271000Y24805000D02*
X44271000Y19855000D01*
X44271000Y16975000D02*
X44271000Y12025000D01*
X44311000Y24773000D02*
X44311000Y19855000D01*
X44311000Y16975000D02*
X44311000Y12057000D01*
X44351000Y24742000D02*
X44351000Y19855000D01*
X44351000Y16975000D02*
X44351000Y12088000D01*
X44391000Y24710000D02*
X44391000Y19855000D01*
X44391000Y16975000D02*
X44391000Y12120000D01*
X44431000Y24678000D02*
X44431000Y19855000D01*
X44431000Y16975000D02*
X44431000Y12152000D01*
X44471000Y24645000D02*
X44471000Y19855000D01*
X44471000Y16975000D02*
X44471000Y12185000D01*
X44511000Y24612000D02*
X44511000Y12218000D01*
X44551000Y24578000D02*
X44551000Y12252000D01*
X44591000Y24544000D02*
X44591000Y12286000D01*
X44631000Y24510000D02*
X44631000Y12320000D01*
X44671000Y24475000D02*
X44671000Y12355000D01*
X44711000Y24440000D02*
X44711000Y12390000D01*
X44751000Y24404000D02*
X44751000Y12426000D01*
X44791000Y24367000D02*
X44791000Y12463000D01*
X44831000Y24331000D02*
X44831000Y12499000D01*
X44871000Y24293000D02*
X44871000Y12537000D01*
X44911000Y24255000D02*
X44911000Y12575000D01*
X44951000Y24217000D02*
X44951000Y12613000D01*
X44991000Y24178000D02*
X44991000Y12652000D01*
X45031000Y24139000D02*
X45031000Y12691000D01*
X45071000Y24099000D02*
X45071000Y12731000D01*
X45111000Y24058000D02*
X45111000Y12772000D01*
X45151000Y24017000D02*
X45151000Y12813000D01*
X45191000Y23975000D02*
X45191000Y12855000D01*
X45231000Y23933000D02*
X45231000Y12897000D01*
X45271000Y23890000D02*
X45271000Y12940000D01*
X45311000Y23847000D02*
X45311000Y12983000D01*
X45351000Y23803000D02*
X45351000Y13027000D01*
X45391000Y23758000D02*
X45391000Y13072000D01*
X45431000Y23712000D02*
X45431000Y13118000D01*
X45471000Y23666000D02*
X45471000Y13164000D01*
X45511000Y23619000D02*
X45511000Y13211000D01*
X45551000Y23571000D02*
X45551000Y13259000D01*
X45591000Y23523000D02*
X45591000Y13307000D01*
X45631000Y23474000D02*
X45631000Y13356000D01*
X45671000Y23424000D02*
X45671000Y13406000D01*
X45711000Y23373000D02*
X45711000Y13457000D01*
X45751000Y23321000D02*
X45751000Y13509000D01*
X45791000Y23269000D02*
X45791000Y13561000D01*
X45831000Y23215000D02*
X45831000Y13615000D01*
X45871000Y23161000D02*
X45871000Y13669000D01*
X45911000Y23106000D02*
X45911000Y13724000D01*
X45951000Y23049000D02*
X45951000Y13781000D01*
X45991000Y22992000D02*
X45991000Y13838000D01*
X46031000Y22934000D02*
X46031000Y13896000D01*
X46071000Y22874000D02*
X46071000Y13956000D01*
X46111000Y22813000D02*
X46111000Y14017000D01*
X46151000Y22751000D02*
X46151000Y14079000D01*
X46191000Y22688000D02*
X46191000Y14142000D01*
X46231000Y22624000D02*
X46231000Y14206000D01*
X46271000Y22558000D02*
X46271000Y14272000D01*
X46311000Y22491000D02*
X46311000Y14339000D01*
X46351000Y22422000D02*
X46351000Y14408000D01*
X46391000Y22351000D02*
X46391000Y14479000D01*
X46431000Y22279000D02*
X46431000Y14551000D01*
X46471000Y22205000D02*
X46471000Y14625000D01*
X46511000Y22130000D02*
X46511000Y14700000D01*
X46551000Y22052000D02*
X46551000Y14778000D01*
X46591000Y21972000D02*
X46591000Y14858000D01*
X46631000Y21890000D02*
X46631000Y14940000D01*
X46671000Y21805000D02*
X46671000Y15025000D01*
X46711000Y21718000D02*
X46711000Y15112000D01*
X46751000Y21628000D02*
X46751000Y15202000D01*
X46791000Y21535000D02*
X46791000Y15295000D01*
X46831000Y21439000D02*
X46831000Y15391000D01*
X46871000Y21339000D02*
X46871000Y15491000D01*
X46911000Y21235000D02*
X46911000Y15595000D01*
X46951000Y21126000D02*
X46951000Y15704000D01*
X46991000Y21012000D02*
X46991000Y15818000D01*
X47031000Y20893000D02*
X47031000Y15937000D01*
X47071000Y20766000D02*
X47071000Y16064000D01*
X47111000Y20633000D02*
X47111000Y16197000D01*
X47151000Y20489000D02*
X47151000Y16341000D01*
X47191000Y20335000D02*
X47191000Y16495000D01*
X47231000Y20167000D02*
X47231000Y16663000D01*
X47271000Y19979000D02*
X47271000Y16851000D01*
X47311000Y19766000D02*
X47311000Y17064000D01*
X47351000Y19513000D02*
X47351000Y17317000D01*
X47391000Y19180000D02*
X47391000Y17650000D01*
X30620509Y22970000D02*
X32220509Y22970000D01*
X31420509Y23770000D02*
X31420509Y22170000D01*
X16815509Y32660000D02*
X16815509Y31060000D01*
X16015509Y31860000D02*
X17615509Y31860000D01*
X32786000Y28070000D02*
X32786000Y26540000D01*
X32746000Y28403000D02*
X32746000Y26207000D01*
X32706000Y28656000D02*
X32706000Y25954000D01*
X32666000Y28869000D02*
X32666000Y25741000D01*
X32626000Y29057000D02*
X32626000Y25553000D01*
X32586000Y29225000D02*
X32586000Y25385000D01*
X32546000Y29379000D02*
X32546000Y25231000D01*
X32506000Y29523000D02*
X32506000Y25087000D01*
X32466000Y29656000D02*
X32466000Y24954000D01*
X32426000Y29783000D02*
X32426000Y24827000D01*
X32386000Y29902000D02*
X32386000Y24708000D01*
X32346000Y30016000D02*
X32346000Y24594000D01*
X32306000Y30125000D02*
X32306000Y24485000D01*
X32266000Y30229000D02*
X32266000Y24381000D01*
X32226000Y30329000D02*
X32226000Y24281000D01*
X32186000Y30425000D02*
X32186000Y24185000D01*
X32146000Y30518000D02*
X32146000Y24092000D01*
X32106000Y30608000D02*
X32106000Y24002000D01*
X32066000Y30695000D02*
X32066000Y23915000D01*
X32026000Y30780000D02*
X32026000Y23830000D01*
X31986000Y30862000D02*
X31986000Y23748000D01*
X31946000Y30942000D02*
X31946000Y23668000D01*
X31906000Y31020000D02*
X31906000Y23590000D01*
X31866000Y31095000D02*
X31866000Y23515000D01*
X31826000Y31169000D02*
X31826000Y23441000D01*
X31786000Y31241000D02*
X31786000Y23369000D01*
X31746000Y31312000D02*
X31746000Y23298000D01*
X31706000Y31381000D02*
X31706000Y23229000D01*
X31666000Y31448000D02*
X31666000Y23162000D01*
X31626000Y31514000D02*
X31626000Y23096000D01*
X31586000Y31578000D02*
X31586000Y23032000D01*
X31546000Y31641000D02*
X31546000Y22969000D01*
X31506000Y31703000D02*
X31506000Y22907000D01*
X31466000Y31764000D02*
X31466000Y22846000D01*
X31426000Y31824000D02*
X31426000Y22786000D01*
X31386000Y31882000D02*
X31386000Y22728000D01*
X31346000Y31939000D02*
X31346000Y22671000D01*
X31306000Y31996000D02*
X31306000Y22614000D01*
X31266000Y32051000D02*
X31266000Y22559000D01*
X31226000Y32105000D02*
X31226000Y22505000D01*
X31186000Y32159000D02*
X31186000Y22451000D01*
X31146000Y32211000D02*
X31146000Y22399000D01*
X31106000Y32263000D02*
X31106000Y22347000D01*
X31066000Y32314000D02*
X31066000Y22296000D01*
X31026000Y32364000D02*
X31026000Y22246000D01*
X30986000Y32413000D02*
X30986000Y22197000D01*
X30946000Y32461000D02*
X30946000Y22149000D01*
X30906000Y32509000D02*
X30906000Y22101000D01*
X30866000Y32556000D02*
X30866000Y22054000D01*
X30826000Y32602000D02*
X30826000Y22008000D01*
X30786000Y32648000D02*
X30786000Y21962000D01*
X30746000Y32693000D02*
X30746000Y21917000D01*
X30706000Y32737000D02*
X30706000Y21873000D01*
X30666000Y32780000D02*
X30666000Y21830000D01*
X30626000Y32823000D02*
X30626000Y21787000D01*
X30586000Y32865000D02*
X30586000Y21745000D01*
X30546000Y32907000D02*
X30546000Y21703000D01*
X30506000Y32948000D02*
X30506000Y21662000D01*
X30466000Y32989000D02*
X30466000Y21621000D01*
X30426000Y33029000D02*
X30426000Y21581000D01*
X30386000Y33068000D02*
X30386000Y21542000D01*
X30346000Y33107000D02*
X30346000Y21503000D01*
X30306000Y33145000D02*
X30306000Y21465000D01*
X30266000Y33183000D02*
X30266000Y21427000D01*
X30226000Y33221000D02*
X30226000Y21389000D01*
X30186000Y33257000D02*
X30186000Y21353000D01*
X30146000Y33294000D02*
X30146000Y21316000D01*
X30106000Y33330000D02*
X30106000Y21280000D01*
X30066000Y33365000D02*
X30066000Y21245000D01*
X30026000Y33400000D02*
X30026000Y21210000D01*
X29986000Y33434000D02*
X29986000Y21176000D01*
X29946000Y33468000D02*
X29946000Y21142000D01*
X29906000Y33502000D02*
X29906000Y21108000D01*
X29866000Y25865000D02*
X29866000Y21075000D01*
X29866000Y33535000D02*
X29866000Y28745000D01*
X29826000Y25865000D02*
X29826000Y21042000D01*
X29826000Y33568000D02*
X29826000Y28745000D01*
X29786000Y25865000D02*
X29786000Y21010000D01*
X29786000Y33600000D02*
X29786000Y28745000D01*
X29746000Y25865000D02*
X29746000Y20978000D01*
X29746000Y33632000D02*
X29746000Y28745000D01*
X29706000Y25865000D02*
X29706000Y20947000D01*
X29706000Y33663000D02*
X29706000Y28745000D01*
X29666000Y25865000D02*
X29666000Y20915000D01*
X29666000Y33695000D02*
X29666000Y28745000D01*
X29626000Y25865000D02*
X29626000Y20885000D01*
X29626000Y33725000D02*
X29626000Y28745000D01*
X29586000Y25865000D02*
X29586000Y20855000D01*
X29586000Y33755000D02*
X29586000Y28745000D01*
X29546000Y25865000D02*
X29546000Y20825000D01*
X29546000Y33785000D02*
X29546000Y28745000D01*
X29506000Y25865000D02*
X29506000Y20795000D01*
X29506000Y33815000D02*
X29506000Y28745000D01*
X29466000Y25865000D02*
X29466000Y20766000D01*
X29466000Y33844000D02*
X29466000Y28745000D01*
X29426000Y25865000D02*
X29426000Y20737000D01*
X29426000Y33873000D02*
X29426000Y28745000D01*
X29386000Y25865000D02*
X29386000Y20709000D01*
X29386000Y33901000D02*
X29386000Y28745000D01*
X29346000Y25865000D02*
X29346000Y20681000D01*
X29346000Y33929000D02*
X29346000Y28745000D01*
X29306000Y25865000D02*
X29306000Y20653000D01*
X29306000Y33957000D02*
X29306000Y28745000D01*
X29266000Y25865000D02*
X29266000Y20626000D01*
X29266000Y33984000D02*
X29266000Y28745000D01*
X29226000Y25865000D02*
X29226000Y20599000D01*
X29226000Y34011000D02*
X29226000Y28745000D01*
X29186000Y25865000D02*
X29186000Y20572000D01*
X29186000Y34038000D02*
X29186000Y28745000D01*
X29146000Y25865000D02*
X29146000Y20546000D01*
X29146000Y34064000D02*
X29146000Y28745000D01*
X29106000Y25865000D02*
X29106000Y20520000D01*
X29106000Y34090000D02*
X29106000Y28745000D01*
X29066000Y25865000D02*
X29066000Y20494000D01*
X29066000Y34116000D02*
X29066000Y28745000D01*
X29026000Y25865000D02*
X29026000Y20469000D01*
X29026000Y34141000D02*
X29026000Y28745000D01*
X28986000Y25865000D02*
X28986000Y20444000D01*
X28986000Y34166000D02*
X28986000Y28745000D01*
X28946000Y25865000D02*
X28946000Y20419000D01*
X28946000Y34191000D02*
X28946000Y28745000D01*
X28906000Y25865000D02*
X28906000Y20395000D01*
X28906000Y34215000D02*
X28906000Y28745000D01*
X28866000Y25865000D02*
X28866000Y20371000D01*
X28866000Y34239000D02*
X28866000Y28745000D01*
X28826000Y25865000D02*
X28826000Y20347000D01*
X28826000Y34263000D02*
X28826000Y28745000D01*
X28786000Y25865000D02*
X28786000Y20324000D01*
X28786000Y34286000D02*
X28786000Y28745000D01*
X28746000Y25865000D02*
X28746000Y20301000D01*
X28746000Y34309000D02*
X28746000Y28745000D01*
X28706000Y25865000D02*
X28706000Y20278000D01*
X28706000Y34332000D02*
X28706000Y28745000D01*
X28666000Y25865000D02*
X28666000Y20256000D01*
X28666000Y34354000D02*
X28666000Y28745000D01*
X28626000Y25865000D02*
X28626000Y20233000D01*
X28626000Y34377000D02*
X28626000Y28745000D01*
X28586000Y25865000D02*
X28586000Y20211000D01*
X28586000Y34399000D02*
X28586000Y28745000D01*
X28546000Y25865000D02*
X28546000Y20190000D01*
X28546000Y34420000D02*
X28546000Y28745000D01*
X28506000Y25865000D02*
X28506000Y20169000D01*
X28506000Y34441000D02*
X28506000Y28745000D01*
X28466000Y25865000D02*
X28466000Y20148000D01*
X28466000Y34462000D02*
X28466000Y28745000D01*
X28426000Y25865000D02*
X28426000Y20127000D01*
X28426000Y34483000D02*
X28426000Y28745000D01*
X28386000Y25865000D02*
X28386000Y20106000D01*
X28386000Y34504000D02*
X28386000Y28745000D01*
X28346000Y25865000D02*
X28346000Y20086000D01*
X28346000Y34524000D02*
X28346000Y28745000D01*
X28306000Y25865000D02*
X28306000Y20066000D01*
X28306000Y34544000D02*
X28306000Y28745000D01*
X28266000Y25865000D02*
X28266000Y20047000D01*
X28266000Y34563000D02*
X28266000Y28745000D01*
X28226000Y25865000D02*
X28226000Y20027000D01*
X28226000Y34583000D02*
X28226000Y28745000D01*
X28186000Y25865000D02*
X28186000Y20008000D01*
X28186000Y34602000D02*
X28186000Y28745000D01*
X28146000Y25865000D02*
X28146000Y19989000D01*
X28146000Y34621000D02*
X28146000Y28745000D01*
X28106000Y25865000D02*
X28106000Y19971000D01*
X28106000Y34639000D02*
X28106000Y28745000D01*
X28066000Y25865000D02*
X28066000Y19952000D01*
X28066000Y34658000D02*
X28066000Y28745000D01*
X28026000Y25865000D02*
X28026000Y19934000D01*
X28026000Y34676000D02*
X28026000Y28745000D01*
X27986000Y25865000D02*
X27986000Y19916000D01*
X27986000Y34694000D02*
X27986000Y28745000D01*
X27946000Y25865000D02*
X27946000Y19899000D01*
X27946000Y34711000D02*
X27946000Y28745000D01*
X27906000Y25865000D02*
X27906000Y19882000D01*
X27906000Y34728000D02*
X27906000Y28745000D01*
X27866000Y25865000D02*
X27866000Y19865000D01*
X27866000Y34745000D02*
X27866000Y28745000D01*
X27826000Y25865000D02*
X27826000Y19848000D01*
X27826000Y34762000D02*
X27826000Y28745000D01*
X27786000Y25865000D02*
X27786000Y19831000D01*
X27786000Y34779000D02*
X27786000Y28745000D01*
X27746000Y25865000D02*
X27746000Y19815000D01*
X27746000Y34795000D02*
X27746000Y28745000D01*
X27706000Y25865000D02*
X27706000Y19799000D01*
X27706000Y34811000D02*
X27706000Y28745000D01*
X27666000Y25865000D02*
X27666000Y19783000D01*
X27666000Y34827000D02*
X27666000Y28745000D01*
X27626000Y25865000D02*
X27626000Y19768000D01*
X27626000Y34842000D02*
X27626000Y28745000D01*
X27586000Y25865000D02*
X27586000Y19752000D01*
X27586000Y34858000D02*
X27586000Y28745000D01*
X27546000Y25865000D02*
X27546000Y19737000D01*
X27546000Y34873000D02*
X27546000Y28745000D01*
X27506000Y25865000D02*
X27506000Y19723000D01*
X27506000Y34887000D02*
X27506000Y28745000D01*
X27466000Y25865000D02*
X27466000Y19708000D01*
X27466000Y34902000D02*
X27466000Y28745000D01*
X27426000Y25865000D02*
X27426000Y19694000D01*
X27426000Y34916000D02*
X27426000Y28745000D01*
X27386000Y25865000D02*
X27386000Y19680000D01*
X27386000Y34930000D02*
X27386000Y28745000D01*
X27346000Y25865000D02*
X27346000Y19666000D01*
X27346000Y34944000D02*
X27346000Y28745000D01*
X27306000Y25865000D02*
X27306000Y19652000D01*
X27306000Y34958000D02*
X27306000Y28745000D01*
X27266000Y25865000D02*
X27266000Y19639000D01*
X27266000Y34971000D02*
X27266000Y28745000D01*
X27226000Y25865000D02*
X27226000Y19625000D01*
X27226000Y34985000D02*
X27226000Y28745000D01*
X27186000Y25865000D02*
X27186000Y19612000D01*
X27186000Y34998000D02*
X27186000Y28745000D01*
X27146000Y25865000D02*
X27146000Y19600000D01*
X27146000Y35010000D02*
X27146000Y28745000D01*
X27106000Y25865000D02*
X27106000Y19587000D01*
X27106000Y35023000D02*
X27106000Y28745000D01*
X27066000Y25865000D02*
X27066000Y19575000D01*
X27066000Y35035000D02*
X27066000Y28745000D01*
X27026000Y25865000D02*
X27026000Y19563000D01*
X27026000Y35047000D02*
X27026000Y28745000D01*
X26986000Y35059000D02*
X26986000Y19551000D01*
X26946000Y35070000D02*
X26946000Y19540000D01*
X26906000Y35082000D02*
X26906000Y19528000D01*
X26866000Y35093000D02*
X26866000Y19517000D01*
X26826000Y35104000D02*
X26826000Y19506000D01*
X26786000Y35115000D02*
X26786000Y19495000D01*
X26746000Y35125000D02*
X26746000Y19485000D01*
X26706000Y35135000D02*
X26706000Y19475000D01*
X26666000Y35145000D02*
X26666000Y19465000D01*
X26626000Y35155000D02*
X26626000Y19455000D01*
X26586000Y35165000D02*
X26586000Y19445000D01*
X26546000Y35174000D02*
X26546000Y19436000D01*
X26506000Y35183000D02*
X26506000Y19427000D01*
X26466000Y35192000D02*
X26466000Y19418000D01*
X26426000Y35201000D02*
X26426000Y19409000D01*
X26386000Y35210000D02*
X26386000Y19400000D01*
X26346000Y35218000D02*
X26346000Y19392000D01*
X26306000Y35226000D02*
X26306000Y19384000D01*
X26266000Y35234000D02*
X26266000Y19376000D01*
X26226000Y35242000D02*
X26226000Y19368000D01*
X26186000Y35249000D02*
X26186000Y19361000D01*
X26146000Y35257000D02*
X26146000Y19353000D01*
X26106000Y35264000D02*
X26106000Y19346000D01*
X26066000Y35271000D02*
X26066000Y19339000D01*
X26026000Y35277000D02*
X26026000Y19333000D01*
X25986000Y35284000D02*
X25986000Y19326000D01*
X25946000Y35290000D02*
X25946000Y19320000D01*
X25906000Y35296000D02*
X25906000Y19314000D01*
X25866000Y35302000D02*
X25866000Y19308000D01*
X25826000Y35308000D02*
X25826000Y19302000D01*
X25786000Y35313000D02*
X25786000Y19297000D01*
X25746000Y35319000D02*
X25746000Y19291000D01*
X25706000Y35324000D02*
X25706000Y19286000D01*
X25666000Y35329000D02*
X25666000Y19281000D01*
X25626000Y35333000D02*
X25626000Y19277000D01*
X25586000Y35338000D02*
X25586000Y19272000D01*
X25546000Y35342000D02*
X25546000Y19268000D01*
X25506000Y35346000D02*
X25506000Y19264000D01*
X25466000Y35350000D02*
X25466000Y19260000D01*
X25426000Y35354000D02*
X25426000Y19256000D01*
X25385000Y35357000D02*
X25385000Y19253000D01*
X25345000Y35360000D02*
X25345000Y19250000D01*
X25305000Y35363000D02*
X25305000Y19247000D01*
X25265000Y35366000D02*
X25265000Y19244000D01*
X25225000Y35369000D02*
X25225000Y19241000D01*
X25185000Y35371000D02*
X25185000Y19239000D01*
X25145000Y35374000D02*
X25145000Y19236000D01*
X25105000Y35376000D02*
X25105000Y19234000D01*
X25065000Y35378000D02*
X25065000Y19232000D01*
X25025000Y35379000D02*
X25025000Y19231000D01*
X24985000Y35381000D02*
X24985000Y19229000D01*
X24945000Y35382000D02*
X24945000Y19228000D01*
X24905000Y35383000D02*
X24905000Y19227000D01*
X24865000Y35384000D02*
X24865000Y19226000D01*
X24825000Y35385000D02*
X24825000Y19225000D01*
X24785000Y35385000D02*
X24785000Y19225000D01*
X24745000Y35385000D02*
X24745000Y19225000D01*
X24705000Y35386000D02*
X24705000Y19224000D01*
X32825000Y27305000D02*
G75*
G03X32825000Y27305000I-8120000J0D01*
G01*
X13830000Y16210000D02*
X13330000Y16210000D01*
X13830000Y13010000D02*
X10230000Y13010000D01*
X13830000Y35310000D02*
X13830000Y13010000D01*
X10230000Y35310000D02*
X13830000Y35310000D01*
X10230000Y33310000D02*
X10230000Y35310000D01*
X10230000Y28210000D02*
X10230000Y30210000D01*
X10230000Y23210000D02*
X10230000Y25110000D01*
X10230000Y18510000D02*
X10230000Y20010000D01*
X10230000Y13010000D02*
X10230000Y14510000D01*
X-16400000Y35390000D02*
X-16400000Y32230000D01*
X-16400000Y35390000D02*
X-39120000Y35390000D01*
X-16400000Y25570000D02*
X-39120000Y25570000D01*
X-16400000Y28730000D02*
X-16400000Y25570000D01*
X-39120000Y28730000D02*
X-39120000Y25570000D01*
X-39120000Y35390000D02*
X-39120000Y32230000D01*
X-35640000Y23650000D02*
X-35640000Y15570000D01*
X-35640000Y15570000D02*
X-39060000Y15570000D01*
X-39060000Y15570000D02*
X-39060000Y16620000D01*
X-39060000Y16620000D02*
X-45260000Y16620000D01*
X-45260000Y16620000D02*
X-45260000Y22600000D01*
X-45260000Y22600000D02*
X-39060000Y22600000D01*
X-39060000Y22600000D02*
X-39060000Y23650000D01*
X-39060000Y23650000D02*
X-35640000Y23650000D01*
X-45260000Y22410000D02*
X-46760000Y22410000D01*
X-46760000Y22410000D02*
X-46760000Y20770000D01*
X-46760000Y20770000D02*
X-45260000Y20770000D01*
X-45260000Y18450000D02*
X-46760000Y18450000D01*
X-46760000Y18450000D02*
X-46760000Y16810000D01*
X-46760000Y16810000D02*
X-45260000Y16810000D01*
X-30140000Y21590000D02*
X-30140000Y23200000D01*
X-30140000Y23200000D02*
X-31750000Y23200000D01*
X-7920000Y23935000D02*
X-7620000Y24535000D01*
X-7320000Y23935000D02*
X-7920000Y23935000D01*
X-7620000Y24535000D02*
X-7320000Y23935000D01*
X-10370000Y29235000D02*
X-9870000Y29235000D01*
X-10370000Y34735000D02*
X-10370000Y29235000D01*
X-9870000Y34735000D02*
X-10370000Y34735000D01*
X-9870000Y29235000D02*
X-9870000Y34735000D01*
X-7870000Y29235000D02*
X-7370000Y29235000D01*
X-7870000Y34735000D02*
X-7870000Y29235000D01*
X-7370000Y34735000D02*
X-7870000Y34735000D01*
X-7370000Y29235000D02*
X-7370000Y34735000D01*
X-11260000Y28125000D02*
X-8870000Y28125000D01*
X-11260000Y23625000D02*
X-11260000Y28125000D01*
X-12680000Y23625000D02*
X-11260000Y23625000D01*
X-12680000Y35345000D02*
X-12680000Y23625000D01*
X-8870000Y35345000D02*
X-12680000Y35345000D01*
X-6480000Y28125000D02*
X-8870000Y28125000D01*
X-6480000Y23625000D02*
X-6480000Y28125000D01*
X-5060000Y23625000D02*
X-6480000Y23625000D01*
X-5060000Y35345000D02*
X-5060000Y23625000D01*
X-8870000Y35345000D02*
X-5060000Y35345000D01*
X11410000Y-35345000D02*
X7600000Y-35345000D01*
X7600000Y-35345000D02*
X7600000Y-23625000D01*
X7600000Y-23625000D02*
X9020000Y-23625000D01*
X9020000Y-23625000D02*
X9020000Y-28125000D01*
X9020000Y-28125000D02*
X11410000Y-28125000D01*
X11410000Y-35345000D02*
X15220000Y-35345000D01*
X15220000Y-35345000D02*
X15220000Y-23625000D01*
X15220000Y-23625000D02*
X13800000Y-23625000D01*
X13800000Y-23625000D02*
X13800000Y-28125000D01*
X13800000Y-28125000D02*
X11410000Y-28125000D01*
X9910000Y-29235000D02*
X9910000Y-34735000D01*
X9910000Y-34735000D02*
X10410000Y-34735000D01*
X10410000Y-34735000D02*
X10410000Y-29235000D01*
X10410000Y-29235000D02*
X9910000Y-29235000D01*
X12410000Y-29235000D02*
X12410000Y-34735000D01*
X12410000Y-34735000D02*
X12910000Y-34735000D01*
X12910000Y-34735000D02*
X12910000Y-29235000D01*
X12910000Y-29235000D02*
X12410000Y-29235000D01*
X10160000Y-24535000D02*
X9860000Y-23935000D01*
X9860000Y-23935000D02*
X10460000Y-23935000D01*
X10460000Y-23935000D02*
X10160000Y-24535000D01*
X-970000Y-23935000D02*
X-1270000Y-24535000D01*
X-1570000Y-23935000D02*
X-970000Y-23935000D01*
X-1270000Y-24535000D02*
X-1570000Y-23935000D01*
X1480000Y-29235000D02*
X980000Y-29235000D01*
X1480000Y-34735000D02*
X1480000Y-29235000D01*
X980000Y-34735000D02*
X1480000Y-34735000D01*
X980000Y-29235000D02*
X980000Y-34735000D01*
X-1020000Y-29235000D02*
X-1520000Y-29235000D01*
X-1020000Y-34735000D02*
X-1020000Y-29235000D01*
X-1520000Y-34735000D02*
X-1020000Y-34735000D01*
X-1520000Y-29235000D02*
X-1520000Y-34735000D01*
X2370000Y-28125000D02*
X-20000Y-28125000D01*
X2370000Y-23625000D02*
X2370000Y-28125000D01*
X3790000Y-23625000D02*
X2370000Y-23625000D01*
X3790000Y-35345000D02*
X3790000Y-23625000D01*
X-20000Y-35345000D02*
X3790000Y-35345000D01*
X-2410000Y-28125000D02*
X-20000Y-28125000D01*
X-2410000Y-23625000D02*
X-2410000Y-28125000D01*
X-3830000Y-23625000D02*
X-2410000Y-23625000D01*
X-3830000Y-35345000D02*
X-3830000Y-23625000D01*
X-20000Y-35345000D02*
X-3830000Y-35345000D01*
X20615000Y-18710000D02*
X20615000Y-20320000D01*
X22225000Y-18710000D02*
X20615000Y-18710000D01*
X27005000Y-35330000D02*
X27005000Y-33830000D01*
X25365000Y-35330000D02*
X27005000Y-35330000D01*
X25365000Y-33830000D02*
X25365000Y-35330000D01*
X23045000Y-35330000D02*
X23045000Y-33830000D01*
X21405000Y-35330000D02*
X23045000Y-35330000D01*
X21405000Y-33830000D02*
X21405000Y-35330000D01*
X20165000Y-27630000D02*
X20165000Y-24210000D01*
X21215000Y-27630000D02*
X20165000Y-27630000D01*
X21215000Y-33830000D02*
X21215000Y-27630000D01*
X27195000Y-33830000D02*
X21215000Y-33830000D01*
X27195000Y-27630000D02*
X27195000Y-33830000D01*
X28245000Y-27630000D02*
X27195000Y-27630000D01*
X28245000Y-24210000D02*
X28245000Y-27630000D01*
X20165000Y-24210000D02*
X28245000Y-24210000D01*
X3305000Y18415000D02*
G75*
G03X3305000Y18415000I-130000J0D01*
G01*
X8675000Y35335000D02*
X8675000Y14195000D01*
X-2325000Y35335000D02*
X8675000Y35335000D01*
X-2325000Y14195000D02*
X8675000Y14195000D01*
X-2325000Y35335000D02*
X-2325000Y14195000D01*
X1655000Y30605000D02*
X1655000Y31115000D01*
X4195000Y30605000D02*
X1655000Y30605000D01*
X4195000Y31115000D02*
X4195000Y30605000D01*
X4195000Y31625000D02*
X4195000Y31115000D01*
X1655000Y31625000D02*
X4195000Y31625000D01*
X1655000Y31115000D02*
X1655000Y31625000D01*
X-635000Y32385000D02*
X-635000Y31115000D01*
X-635000Y31115000D02*
X1655000Y31115000D01*
X4195000Y31115000D02*
X6985000Y31115000D01*
X6985000Y31115000D02*
X6985000Y32385000D01*
X2415000Y31625000D02*
X3425000Y30605000D01*
X3175000Y23495000D02*
X3175000Y18415000D01*
X635000Y23495000D02*
X3175000Y23495000D01*
X635000Y15875000D02*
X1905000Y15875000D01*
X3175000Y18415000D02*
X4575000Y15625000D01*
X-39465000Y-13195000D02*
X-33465000Y-13195000D01*
X-40435000Y-35965000D02*
X-6495000Y-35965000D01*
X-40435000Y-13525000D02*
X-6495000Y-13525000D01*
X-6495000Y-13525000D02*
X-6495000Y-35965000D01*
X-40435000Y-35965000D02*
X-40435000Y-13525000D01*
X-7445000Y18415000D02*
X-5945000Y18415000D01*
X-7445000Y23035000D02*
X-16685000Y23035000D01*
X-7445000Y13795000D02*
X-7445000Y23035000D01*
X-16685000Y13795000D02*
X-7445000Y13795000D01*
X-16685000Y23035000D02*
X-16685000Y13795000D01*
D10*
X-4389285Y-14422380D02*
X-4389285Y-13422380D01*
X-4008333Y-13422380D01*
X-3913095Y-13470000D01*
X-3865476Y-13517619D01*
X-3817857Y-13612857D01*
X-3817857Y-13755714D01*
X-3865476Y-13850952D01*
X-3913095Y-13898571D01*
X-4008333Y-13946190D01*
X-4389285Y-13946190D01*
X-3436904Y-14374761D02*
X-3294047Y-14422380D01*
X-3055952Y-14422380D01*
X-2960714Y-14374761D01*
X-2913095Y-14327142D01*
X-2865476Y-14231904D01*
X-2865476Y-14136666D01*
X-2913095Y-14041428D01*
X-2960714Y-13993809D01*
X-3055952Y-13946190D01*
X-3246428Y-13898571D01*
X-3341666Y-13850952D01*
X-3389285Y-13803333D01*
X-3436904Y-13708095D01*
X-3436904Y-13612857D01*
X-3389285Y-13517619D01*
X-3341666Y-13470000D01*
X-3246428Y-13422380D01*
X-3008333Y-13422380D01*
X-2865476Y-13470000D01*
X-2484523Y-13517619D02*
X-2436904Y-13470000D01*
X-2341666Y-13422380D01*
X-2103571Y-13422380D01*
X-2008333Y-13470000D01*
X-1960714Y-13517619D01*
X-1913095Y-13612857D01*
X-1913095Y-13708095D01*
X-1960714Y-13850952D01*
X-2532142Y-14422380D01*
X-1913095Y-14422380D01*
X-25042857Y18963333D02*
X-24995238Y18915714D01*
X-24947619Y18772857D01*
X-24947619Y18677619D01*
X-24995238Y18534761D01*
X-25090476Y18439523D01*
X-25185714Y18391904D01*
X-25376190Y18344285D01*
X-25519047Y18344285D01*
X-25709523Y18391904D01*
X-25804761Y18439523D01*
X-25900000Y18534761D01*
X-25947619Y18677619D01*
X-25947619Y18772857D01*
X-25900000Y18915714D01*
X-25852380Y18963333D01*
X-24947619Y19915714D02*
X-24947619Y19344285D01*
X-24947619Y19630000D02*
X-25947619Y19630000D01*
X-25804761Y19534761D01*
X-25709523Y19439523D01*
X-25661904Y19344285D01*
X34758333Y-25757142D02*
X34710714Y-25804761D01*
X34567857Y-25852380D01*
X34472619Y-25852380D01*
X34329761Y-25804761D01*
X34234523Y-25709523D01*
X34186904Y-25614285D01*
X34139285Y-25423809D01*
X34139285Y-25280952D01*
X34186904Y-25090476D01*
X34234523Y-24995238D01*
X34329761Y-24900000D01*
X34472619Y-24852380D01*
X34567857Y-24852380D01*
X34710714Y-24900000D01*
X34758333Y-24947619D01*
X35139285Y-24947619D02*
X35186904Y-24900000D01*
X35282142Y-24852380D01*
X35520238Y-24852380D01*
X35615476Y-24900000D01*
X35663095Y-24947619D01*
X35710714Y-25042857D01*
X35710714Y-25138095D01*
X35663095Y-25280952D01*
X35091666Y-25852380D01*
X35710714Y-25852380D01*
X2373333Y-21947142D02*
X2325714Y-21994761D01*
X2182857Y-22042380D01*
X2087619Y-22042380D01*
X1944761Y-21994761D01*
X1849523Y-21899523D01*
X1801904Y-21804285D01*
X1754285Y-21613809D01*
X1754285Y-21470952D01*
X1801904Y-21280476D01*
X1849523Y-21185238D01*
X1944761Y-21090000D01*
X2087619Y-21042380D01*
X2182857Y-21042380D01*
X2325714Y-21090000D01*
X2373333Y-21137619D01*
X2706666Y-21042380D02*
X3325714Y-21042380D01*
X2992380Y-21423333D01*
X3135238Y-21423333D01*
X3230476Y-21470952D01*
X3278095Y-21518571D01*
X3325714Y-21613809D01*
X3325714Y-21851904D01*
X3278095Y-21947142D01*
X3230476Y-21994761D01*
X3135238Y-22042380D01*
X2849523Y-22042380D01*
X2754285Y-21994761D01*
X2706666Y-21947142D01*
X19518333Y-16867142D02*
X19470714Y-16914761D01*
X19327857Y-16962380D01*
X19232619Y-16962380D01*
X19089761Y-16914761D01*
X18994523Y-16819523D01*
X18946904Y-16724285D01*
X18899285Y-16533809D01*
X18899285Y-16390952D01*
X18946904Y-16200476D01*
X18994523Y-16105238D01*
X19089761Y-16010000D01*
X19232619Y-15962380D01*
X19327857Y-15962380D01*
X19470714Y-16010000D01*
X19518333Y-16057619D01*
X20375476Y-16295714D02*
X20375476Y-16962380D01*
X20137380Y-15914761D02*
X19899285Y-16629047D01*
X20518333Y-16629047D01*
X34758333Y-7977142D02*
X34710714Y-8024761D01*
X34567857Y-8072380D01*
X34472619Y-8072380D01*
X34329761Y-8024761D01*
X34234523Y-7929523D01*
X34186904Y-7834285D01*
X34139285Y-7643809D01*
X34139285Y-7500952D01*
X34186904Y-7310476D01*
X34234523Y-7215238D01*
X34329761Y-7120000D01*
X34472619Y-7072380D01*
X34567857Y-7072380D01*
X34710714Y-7120000D01*
X34758333Y-7167619D01*
X35663095Y-7072380D02*
X35186904Y-7072380D01*
X35139285Y-7548571D01*
X35186904Y-7500952D01*
X35282142Y-7453333D01*
X35520238Y-7453333D01*
X35615476Y-7500952D01*
X35663095Y-7548571D01*
X35710714Y-7643809D01*
X35710714Y-7881904D01*
X35663095Y-7977142D01*
X35615476Y-8024761D01*
X35520238Y-8072380D01*
X35282142Y-8072380D01*
X35186904Y-8024761D01*
X35139285Y-7977142D01*
X2373333Y-4167142D02*
X2325714Y-4214761D01*
X2182857Y-4262380D01*
X2087619Y-4262380D01*
X1944761Y-4214761D01*
X1849523Y-4119523D01*
X1801904Y-4024285D01*
X1754285Y-3833809D01*
X1754285Y-3690952D01*
X1801904Y-3500476D01*
X1849523Y-3405238D01*
X1944761Y-3310000D01*
X2087619Y-3262380D01*
X2182857Y-3262380D01*
X2325714Y-3310000D01*
X2373333Y-3357619D01*
X3230476Y-3262380D02*
X3040000Y-3262380D01*
X2944761Y-3310000D01*
X2897142Y-3357619D01*
X2801904Y-3500476D01*
X2754285Y-3690952D01*
X2754285Y-4071904D01*
X2801904Y-4167142D01*
X2849523Y-4214761D01*
X2944761Y-4262380D01*
X3135238Y-4262380D01*
X3230476Y-4214761D01*
X3278095Y-4167142D01*
X3325714Y-4071904D01*
X3325714Y-3833809D01*
X3278095Y-3738571D01*
X3230476Y-3690952D01*
X3135238Y-3643333D01*
X2944761Y-3643333D01*
X2849523Y-3690952D01*
X2801904Y-3738571D01*
X2754285Y-3833809D01*
X19518333Y912857D02*
X19470714Y865238D01*
X19327857Y817619D01*
X19232619Y817619D01*
X19089761Y865238D01*
X18994523Y960476D01*
X18946904Y1055714D01*
X18899285Y1246190D01*
X18899285Y1389047D01*
X18946904Y1579523D01*
X18994523Y1674761D01*
X19089761Y1770000D01*
X19232619Y1817619D01*
X19327857Y1817619D01*
X19470714Y1770000D01*
X19518333Y1722380D01*
X19851666Y1817619D02*
X20518333Y1817619D01*
X20089761Y817619D01*
X34758333Y9802857D02*
X34710714Y9755238D01*
X34567857Y9707619D01*
X34472619Y9707619D01*
X34329761Y9755238D01*
X34234523Y9850476D01*
X34186904Y9945714D01*
X34139285Y10136190D01*
X34139285Y10279047D01*
X34186904Y10469523D01*
X34234523Y10564761D01*
X34329761Y10660000D01*
X34472619Y10707619D01*
X34567857Y10707619D01*
X34710714Y10660000D01*
X34758333Y10612380D01*
X35329761Y10279047D02*
X35234523Y10326666D01*
X35186904Y10374285D01*
X35139285Y10469523D01*
X35139285Y10517142D01*
X35186904Y10612380D01*
X35234523Y10660000D01*
X35329761Y10707619D01*
X35520238Y10707619D01*
X35615476Y10660000D01*
X35663095Y10612380D01*
X35710714Y10517142D01*
X35710714Y10469523D01*
X35663095Y10374285D01*
X35615476Y10326666D01*
X35520238Y10279047D01*
X35329761Y10279047D01*
X35234523Y10231428D01*
X35186904Y10183809D01*
X35139285Y10088571D01*
X35139285Y9898095D01*
X35186904Y9802857D01*
X35234523Y9755238D01*
X35329761Y9707619D01*
X35520238Y9707619D01*
X35615476Y9755238D01*
X35663095Y9802857D01*
X35710714Y9898095D01*
X35710714Y10088571D01*
X35663095Y10183809D01*
X35615476Y10231428D01*
X35520238Y10279047D01*
X19518333Y18692857D02*
X19470714Y18645238D01*
X19327857Y18597619D01*
X19232619Y18597619D01*
X19089761Y18645238D01*
X18994523Y18740476D01*
X18946904Y18835714D01*
X18899285Y19026190D01*
X18899285Y19169047D01*
X18946904Y19359523D01*
X18994523Y19454761D01*
X19089761Y19550000D01*
X19232619Y19597619D01*
X19327857Y19597619D01*
X19470714Y19550000D01*
X19518333Y19502380D01*
X19994523Y18597619D02*
X20185000Y18597619D01*
X20280238Y18645238D01*
X20327857Y18692857D01*
X20423095Y18835714D01*
X20470714Y19026190D01*
X20470714Y19407142D01*
X20423095Y19502380D01*
X20375476Y19550000D01*
X20280238Y19597619D01*
X20089761Y19597619D01*
X19994523Y19550000D01*
X19946904Y19502380D01*
X19899285Y19407142D01*
X19899285Y19169047D01*
X19946904Y19073809D01*
X19994523Y19026190D01*
X20089761Y18978571D01*
X20280238Y18978571D01*
X20375476Y19026190D01*
X20423095Y19073809D01*
X20470714Y19169047D01*
X15182380Y18311904D02*
X14182380Y18311904D01*
X14182380Y18550000D01*
X14230000Y18692857D01*
X14325238Y18788095D01*
X14420476Y18835714D01*
X14610952Y18883333D01*
X14753809Y18883333D01*
X14944285Y18835714D01*
X15039523Y18788095D01*
X15134761Y18692857D01*
X15182380Y18550000D01*
X15182380Y18311904D01*
X15182380Y19835714D02*
X15182380Y19264285D01*
X15182380Y19550000D02*
X14182380Y19550000D01*
X14325238Y19454761D01*
X14420476Y19359523D01*
X14468095Y19264285D01*
X-41608333Y28646428D02*
X-41941666Y28646428D01*
X-41941666Y28122619D02*
X-41941666Y29122619D01*
X-41465476Y29122619D01*
X-40560714Y28122619D02*
X-41132142Y28122619D01*
X-40846428Y28122619D02*
X-40846428Y29122619D01*
X-40941666Y28979761D01*
X-41036904Y28884523D01*
X-41132142Y28836904D01*
X-37798333Y15152619D02*
X-37798333Y14438333D01*
X-37845952Y14295476D01*
X-37941190Y14200238D01*
X-38084047Y14152619D01*
X-38179285Y14152619D01*
X-36798333Y14152619D02*
X-37369761Y14152619D01*
X-37084047Y14152619D02*
X-37084047Y15152619D01*
X-37179285Y15009761D01*
X-37274523Y14914523D01*
X-37369761Y14866904D01*
X-14517619Y25066666D02*
X-13803333Y25066666D01*
X-13660476Y25019047D01*
X-13565238Y24923809D01*
X-13517619Y24780952D01*
X-13517619Y24685714D01*
X-14422380Y25495238D02*
X-14470000Y25542857D01*
X-14517619Y25638095D01*
X-14517619Y25876190D01*
X-14470000Y25971428D01*
X-14422380Y26019047D01*
X-14327142Y26066666D01*
X-14231904Y26066666D01*
X-14089047Y26019047D01*
X-13517619Y25447619D01*
X-13517619Y26066666D01*
X16176666Y-24852380D02*
X16176666Y-25566666D01*
X16129047Y-25709523D01*
X16033809Y-25804761D01*
X15890952Y-25852380D01*
X15795714Y-25852380D01*
X16557619Y-24852380D02*
X17176666Y-24852380D01*
X16843333Y-25233333D01*
X16986190Y-25233333D01*
X17081428Y-25280952D01*
X17129047Y-25328571D01*
X17176666Y-25423809D01*
X17176666Y-25661904D01*
X17129047Y-25757142D01*
X17081428Y-25804761D01*
X16986190Y-25852380D01*
X16700476Y-25852380D01*
X16605238Y-25804761D01*
X16557619Y-25757142D01*
X4746666Y-24852380D02*
X4746666Y-25566666D01*
X4699047Y-25709523D01*
X4603809Y-25804761D01*
X4460952Y-25852380D01*
X4365714Y-25852380D01*
X5651428Y-25185714D02*
X5651428Y-25852380D01*
X5413333Y-24804761D02*
X5175238Y-25519047D01*
X5794285Y-25519047D01*
X29511666Y-24852380D02*
X29511666Y-25566666D01*
X29464047Y-25709523D01*
X29368809Y-25804761D01*
X29225952Y-25852380D01*
X29130714Y-25852380D01*
X30464047Y-24852380D02*
X29987857Y-24852380D01*
X29940238Y-25328571D01*
X29987857Y-25280952D01*
X30083095Y-25233333D01*
X30321190Y-25233333D01*
X30416428Y-25280952D01*
X30464047Y-25328571D01*
X30511666Y-25423809D01*
X30511666Y-25661904D01*
X30464047Y-25757142D01*
X30416428Y-25804761D01*
X30321190Y-25852380D01*
X30083095Y-25852380D01*
X29987857Y-25804761D01*
X29940238Y-25757142D01*
X-2722619Y24661904D02*
X-3722619Y24661904D01*
X-2722619Y25233333D02*
X-3294047Y24804761D01*
X-3722619Y25233333D02*
X-3151190Y24661904D01*
X-2722619Y26185714D02*
X-2722619Y25614285D01*
X-2722619Y25900000D02*
X-3722619Y25900000D01*
X-3579761Y25804761D01*
X-3484523Y25709523D01*
X-3436904Y25614285D01*
X-5659285Y-17597380D02*
X-5659285Y-16597380D01*
X-5278333Y-16597380D01*
X-5183095Y-16645000D01*
X-5135476Y-16692619D01*
X-5087857Y-16787857D01*
X-5087857Y-16930714D01*
X-5135476Y-17025952D01*
X-5183095Y-17073571D01*
X-5278333Y-17121190D01*
X-5659285Y-17121190D01*
X-4706904Y-17549761D02*
X-4564047Y-17597380D01*
X-4325952Y-17597380D01*
X-4230714Y-17549761D01*
X-4183095Y-17502142D01*
X-4135476Y-17406904D01*
X-4135476Y-17311666D01*
X-4183095Y-17216428D01*
X-4230714Y-17168809D01*
X-4325952Y-17121190D01*
X-4516428Y-17073571D01*
X-4611666Y-17025952D01*
X-4659285Y-16978333D01*
X-4706904Y-16883095D01*
X-4706904Y-16787857D01*
X-4659285Y-16692619D01*
X-4611666Y-16645000D01*
X-4516428Y-16597380D01*
X-4278333Y-16597380D01*
X-4135476Y-16645000D01*
X-3183095Y-17597380D02*
X-3754523Y-17597380D01*
X-3468809Y-17597380D02*
X-3468809Y-16597380D01*
X-3564047Y-16740238D01*
X-3659285Y-16835476D01*
X-3754523Y-16883095D01*
X-5881666Y14152619D02*
X-6215000Y14628809D01*
X-6453095Y14152619D02*
X-6453095Y15152619D01*
X-6072142Y15152619D01*
X-5976904Y15105000D01*
X-5929285Y15057380D01*
X-5881666Y14962142D01*
X-5881666Y14819285D01*
X-5929285Y14724047D01*
X-5976904Y14676428D01*
X-6072142Y14628809D01*
X-6453095Y14628809D01*
X-4929285Y14152619D02*
X-5500714Y14152619D01*
X-5215000Y14152619D02*
X-5215000Y15152619D01*
X-5310238Y15009761D01*
X-5405476Y14914523D01*
X-5500714Y14866904D01*
M02*
