M48
; DRILL file {KiCad (5.1.2)-1} date 2020/05/02 19:58:55
; FORMAT={-:-/ absolute / metric / decimal}
; #@! TF.CreationDate,2020-05-02T19:58:55+09:00
; #@! TF.GenerationSoftware,Kicad,Pcbnew,(5.1.2)-1
FMAT,2
METRIC
T1C0.760
T2C0.800
T3C1.000
T4C1.200
T5C1.300
T6C1.500
T7C1.600
T8C1.700
T9C2.000
T10C2.700
T11C3.200
%
G90
G05
T1
X-9.465Y-17.145
X-9.465Y-24.745
T2
X-37.465Y-17.145
X-37.465Y-32.345
X-20.955Y24.13
X-20.955Y14.13
T3
X10.16Y-26.035
X12.66Y-26.035
X-1.27Y-26.035
X1.23Y-26.035
X-10.12Y26.035
X-7.62Y26.035
T4
X20.955Y9.525
X28.455Y9.525
X20.955Y-8.255
X28.455Y-8.255
X5.08Y3.175
X12.58Y3.175
X20.955Y27.305
X28.455Y27.305
X-12.065Y18.415
X-4.445Y18.415
X35.56Y0.635
X43.06Y0.635
X5.08Y-14.605
X12.58Y-14.605
X35.56Y-17.145
X43.06Y-17.145
X35.56Y18.415
X43.06Y18.415
T5
X-39.01Y30.48
X-16.51Y30.48
X-0.635Y33.655
X-0.635Y23.495
X-0.635Y15.875
X6.985Y33.655
T6
X-43.18Y1.27
X-43.18Y-9.48
X-4.68Y-1.48
X-4.68Y-9.48
T7
X11.43Y31.75
X11.43Y26.67
X11.43Y21.59
X11.43Y16.51
T8
X22.225Y-20.32
X26.185Y-20.32
X-31.75Y21.59
X-31.75Y17.63
T9
X-26.67Y24.13
X-26.67Y13.97
T10
X-27.76Y30.48
T11
X44.5Y-33.0
X-44.5Y33.0
X-44.5Y-33.0
X44.5Y33.0
T0
M30
