G04 #@! TF.GenerationSoftware,KiCad,Pcbnew,(5.1.2)-1*
G04 #@! TF.CreationDate,2020-05-02T19:55:25+09:00*
G04 #@! TF.ProjectId,PowerBoard,506f7765-7242-46f6-9172-642e6b696361,rev?*
G04 #@! TF.SameCoordinates,Original*
G04 #@! TF.FileFunction,Soldermask,Top*
G04 #@! TF.FilePolarity,Negative*
%FSLAX46Y46*%
G04 Gerber Fmt 4.6, Leading zero omitted, Abs format (unit mm)*
G04 Created by KiCad (PCBNEW (5.1.2)-1) date 2020-05-02 19:55:25*
%MOMM*%
%LPD*%
G04 APERTURE LIST*
%ADD10C,2.000000*%
%ADD11C,0.100000*%
G04 APERTURE END LIST*
D10*
X-42500000Y-33000000D02*
G75*
G03X-42500000Y-33000000I-2000000J0D01*
G01*
X46500000Y-33000000D02*
G75*
G03X46500000Y-33000000I-2000000J0D01*
G01*
X46500000Y33000000D02*
G75*
G03X46500000Y33000000I-2000000J0D01*
G01*
X-42500000Y33000000D02*
G75*
G03X-42500000Y33000000I-2000000J0D01*
G01*
D11*
G36*
X44875256Y-31391298D02*
G01*
X44981579Y-31412447D01*
X45282042Y-31536903D01*
X45552451Y-31717585D01*
X45782415Y-31947549D01*
X45963097Y-32217958D01*
X46087553Y-32518421D01*
X46151000Y-32837391D01*
X46151000Y-33162609D01*
X46087553Y-33481579D01*
X45963097Y-33782042D01*
X45782415Y-34052451D01*
X45552451Y-34282415D01*
X45282042Y-34463097D01*
X44981579Y-34587553D01*
X44875256Y-34608702D01*
X44662611Y-34651000D01*
X44337389Y-34651000D01*
X44124744Y-34608702D01*
X44018421Y-34587553D01*
X43717958Y-34463097D01*
X43447549Y-34282415D01*
X43217585Y-34052451D01*
X43036903Y-33782042D01*
X42912447Y-33481579D01*
X42849000Y-33162609D01*
X42849000Y-32837391D01*
X42912447Y-32518421D01*
X43036903Y-32217958D01*
X43217585Y-31947549D01*
X43447549Y-31717585D01*
X43717958Y-31536903D01*
X44018421Y-31412447D01*
X44124744Y-31391298D01*
X44337389Y-31349000D01*
X44662611Y-31349000D01*
X44875256Y-31391298D01*
X44875256Y-31391298D01*
G37*
G36*
X-44124744Y-31391298D02*
G01*
X-44018421Y-31412447D01*
X-43717958Y-31536903D01*
X-43447549Y-31717585D01*
X-43217585Y-31947549D01*
X-43036903Y-32217958D01*
X-42912447Y-32518421D01*
X-42849000Y-32837391D01*
X-42849000Y-33162609D01*
X-42912447Y-33481579D01*
X-43036903Y-33782042D01*
X-43217585Y-34052451D01*
X-43447549Y-34282415D01*
X-43717958Y-34463097D01*
X-44018421Y-34587553D01*
X-44124744Y-34608702D01*
X-44337389Y-34651000D01*
X-44662611Y-34651000D01*
X-44875256Y-34608702D01*
X-44981579Y-34587553D01*
X-45282042Y-34463097D01*
X-45552451Y-34282415D01*
X-45782415Y-34052451D01*
X-45963097Y-33782042D01*
X-46087553Y-33481579D01*
X-46151000Y-33162609D01*
X-46151000Y-32837391D01*
X-46087553Y-32518421D01*
X-45963097Y-32217958D01*
X-45782415Y-31947549D01*
X-45552451Y-31717585D01*
X-45282042Y-31536903D01*
X-44981579Y-31412447D01*
X-44875256Y-31391298D01*
X-44662611Y-31349000D01*
X-44337389Y-31349000D01*
X-44124744Y-31391298D01*
X-44124744Y-31391298D01*
G37*
G36*
X-37114682Y-31190153D02*
G01*
X-36896115Y-31280687D01*
X-36896113Y-31280688D01*
X-36699407Y-31412122D01*
X-36532122Y-31579407D01*
X-36439796Y-31717584D01*
X-36400687Y-31776115D01*
X-36310153Y-31994682D01*
X-36264000Y-32226710D01*
X-36264000Y-32463290D01*
X-36310153Y-32695318D01*
X-36369001Y-32837389D01*
X-36400688Y-32913887D01*
X-36532122Y-33110593D01*
X-36699407Y-33277878D01*
X-36896113Y-33409312D01*
X-36896114Y-33409313D01*
X-36896115Y-33409313D01*
X-37114682Y-33499847D01*
X-37346710Y-33546000D01*
X-37583290Y-33546000D01*
X-37815318Y-33499847D01*
X-38033885Y-33409313D01*
X-38033886Y-33409313D01*
X-38033887Y-33409312D01*
X-38230593Y-33277878D01*
X-38397878Y-33110593D01*
X-38529312Y-32913887D01*
X-38560999Y-32837389D01*
X-38619847Y-32695318D01*
X-38666000Y-32463290D01*
X-38666000Y-32226710D01*
X-38619847Y-31994682D01*
X-38529313Y-31776115D01*
X-38490204Y-31717584D01*
X-38397878Y-31579407D01*
X-38230593Y-31412122D01*
X-38033887Y-31280688D01*
X-38033885Y-31280687D01*
X-37815318Y-31190153D01*
X-37583290Y-31144000D01*
X-37346710Y-31144000D01*
X-37114682Y-31190153D01*
X-37114682Y-31190153D01*
G37*
G36*
X12836626Y-24997037D02*
G01*
X13006465Y-25048557D01*
X13006467Y-25048558D01*
X13162989Y-25132221D01*
X13300186Y-25244814D01*
X13383448Y-25346271D01*
X13412778Y-25382009D01*
X13496443Y-25538534D01*
X13547963Y-25708373D01*
X13547963Y-25708375D01*
X13557905Y-25809312D01*
X13561000Y-25840742D01*
X13561000Y-26229257D01*
X13547963Y-26361626D01*
X13496443Y-26531466D01*
X13412778Y-26687991D01*
X13383448Y-26723729D01*
X13300186Y-26825186D01*
X13205250Y-26903097D01*
X13162991Y-26937778D01*
X13006466Y-27021443D01*
X12836627Y-27072963D01*
X12660000Y-27090359D01*
X12483374Y-27072963D01*
X12313535Y-27021443D01*
X12157010Y-26937778D01*
X12019815Y-26825185D01*
X11907222Y-26687991D01*
X11823557Y-26531466D01*
X11772037Y-26361627D01*
X11759000Y-26229258D01*
X11759000Y-25840743D01*
X11762096Y-25809313D01*
X11772037Y-25708376D01*
X11772037Y-25708374D01*
X11823557Y-25538535D01*
X11907222Y-25382010D01*
X11907223Y-25382009D01*
X12019814Y-25244814D01*
X12121271Y-25161552D01*
X12157009Y-25132222D01*
X12313534Y-25048557D01*
X12483373Y-24997037D01*
X12660000Y-24979641D01*
X12836626Y-24997037D01*
X12836626Y-24997037D01*
G37*
G36*
X1406626Y-24997037D02*
G01*
X1576465Y-25048557D01*
X1576467Y-25048558D01*
X1732989Y-25132221D01*
X1870186Y-25244814D01*
X1953448Y-25346271D01*
X1982778Y-25382009D01*
X2066443Y-25538534D01*
X2117963Y-25708373D01*
X2117963Y-25708375D01*
X2127905Y-25809312D01*
X2131000Y-25840742D01*
X2131000Y-26229257D01*
X2117963Y-26361626D01*
X2066443Y-26531466D01*
X1982778Y-26687991D01*
X1953448Y-26723729D01*
X1870186Y-26825186D01*
X1775250Y-26903097D01*
X1732991Y-26937778D01*
X1576466Y-27021443D01*
X1406627Y-27072963D01*
X1230000Y-27090359D01*
X1053374Y-27072963D01*
X883535Y-27021443D01*
X727010Y-26937778D01*
X589815Y-26825185D01*
X477222Y-26687991D01*
X393557Y-26531466D01*
X342037Y-26361627D01*
X329000Y-26229258D01*
X329000Y-25840743D01*
X332096Y-25809313D01*
X342037Y-25708376D01*
X342037Y-25708374D01*
X393557Y-25538535D01*
X477222Y-25382010D01*
X477223Y-25382009D01*
X589814Y-25244814D01*
X691271Y-25161552D01*
X727009Y-25132222D01*
X883534Y-25048557D01*
X1053373Y-24997037D01*
X1230000Y-24979641D01*
X1406626Y-24997037D01*
X1406626Y-24997037D01*
G37*
G36*
X10918600Y-24987989D02*
G01*
X10951652Y-24998015D01*
X10982103Y-25014292D01*
X11008799Y-25036201D01*
X11030708Y-25062897D01*
X11046985Y-25093348D01*
X11057011Y-25126400D01*
X11061000Y-25166903D01*
X11061000Y-26903097D01*
X11057011Y-26943600D01*
X11046985Y-26976652D01*
X11030708Y-27007103D01*
X11008799Y-27033799D01*
X10982103Y-27055708D01*
X10951652Y-27071985D01*
X10918600Y-27082011D01*
X10878097Y-27086000D01*
X9441903Y-27086000D01*
X9401400Y-27082011D01*
X9368348Y-27071985D01*
X9337897Y-27055708D01*
X9311201Y-27033799D01*
X9289292Y-27007103D01*
X9273015Y-26976652D01*
X9262989Y-26943600D01*
X9259000Y-26903097D01*
X9259000Y-25166903D01*
X9262989Y-25126400D01*
X9273015Y-25093348D01*
X9289292Y-25062897D01*
X9311201Y-25036201D01*
X9337897Y-25014292D01*
X9368348Y-24998015D01*
X9401400Y-24987989D01*
X9441903Y-24984000D01*
X10878097Y-24984000D01*
X10918600Y-24987989D01*
X10918600Y-24987989D01*
G37*
G36*
X-511400Y-24987989D02*
G01*
X-478348Y-24998015D01*
X-447897Y-25014292D01*
X-421201Y-25036201D01*
X-399292Y-25062897D01*
X-383015Y-25093348D01*
X-372989Y-25126400D01*
X-369000Y-25166903D01*
X-369000Y-26903097D01*
X-372989Y-26943600D01*
X-383015Y-26976652D01*
X-399292Y-27007103D01*
X-421201Y-27033799D01*
X-447897Y-27055708D01*
X-478348Y-27071985D01*
X-511400Y-27082011D01*
X-551903Y-27086000D01*
X-1988097Y-27086000D01*
X-2028600Y-27082011D01*
X-2061652Y-27071985D01*
X-2092103Y-27055708D01*
X-2118799Y-27033799D01*
X-2140708Y-27007103D01*
X-2156985Y-26976652D01*
X-2167011Y-26943600D01*
X-2171000Y-26903097D01*
X-2171000Y-25166903D01*
X-2167011Y-25126400D01*
X-2156985Y-25093348D01*
X-2140708Y-25062897D01*
X-2118799Y-25036201D01*
X-2092103Y-25014292D01*
X-2061652Y-24998015D01*
X-2028600Y-24987989D01*
X-1988097Y-24984000D01*
X-551903Y-24984000D01*
X-511400Y-24987989D01*
X-511400Y-24987989D01*
G37*
G36*
X-9114682Y-23590153D02*
G01*
X-8896115Y-23680687D01*
X-8896113Y-23680688D01*
X-8699407Y-23812122D01*
X-8532122Y-23979407D01*
X-8400688Y-24176113D01*
X-8400687Y-24176115D01*
X-8310153Y-24394682D01*
X-8264000Y-24626710D01*
X-8264000Y-24863290D01*
X-8310153Y-25095318D01*
X-8339805Y-25166903D01*
X-8400688Y-25313887D01*
X-8532122Y-25510593D01*
X-8699407Y-25677878D01*
X-8896113Y-25809312D01*
X-8896114Y-25809313D01*
X-8896115Y-25809313D01*
X-9114682Y-25899847D01*
X-9346710Y-25946000D01*
X-9583290Y-25946000D01*
X-9815318Y-25899847D01*
X-10033885Y-25809313D01*
X-10033886Y-25809313D01*
X-10033887Y-25809312D01*
X-10230593Y-25677878D01*
X-10397878Y-25510593D01*
X-10529312Y-25313887D01*
X-10590195Y-25166903D01*
X-10619847Y-25095318D01*
X-10666000Y-24863290D01*
X-10666000Y-24626710D01*
X-10619847Y-24394682D01*
X-10529313Y-24176115D01*
X-10529312Y-24176113D01*
X-10397878Y-23979407D01*
X-10230593Y-23812122D01*
X-10033887Y-23680688D01*
X-10033885Y-23680687D01*
X-9815318Y-23590153D01*
X-9583290Y-23544000D01*
X-9346710Y-23544000D01*
X-9114682Y-23590153D01*
X-9114682Y-23590153D01*
G37*
G36*
X26459038Y-18946062D02*
G01*
X26593657Y-18972839D01*
X26699097Y-19016514D01*
X26848621Y-19078449D01*
X26922525Y-19127830D01*
X27078086Y-19231772D01*
X27273228Y-19426914D01*
X27375675Y-19580237D01*
X27426551Y-19656379D01*
X27532161Y-19911344D01*
X27586000Y-20182012D01*
X27586000Y-20457988D01*
X27532161Y-20728656D01*
X27426551Y-20983621D01*
X27426550Y-20983622D01*
X27273228Y-21213086D01*
X27078086Y-21408228D01*
X26998276Y-21461555D01*
X26848621Y-21561551D01*
X26770207Y-21594031D01*
X26593657Y-21667161D01*
X26503433Y-21685107D01*
X26322988Y-21721000D01*
X26047012Y-21721000D01*
X25866567Y-21685107D01*
X25776343Y-21667161D01*
X25599793Y-21594031D01*
X25521379Y-21561551D01*
X25371724Y-21461555D01*
X25291914Y-21408228D01*
X25096772Y-21213086D01*
X24943450Y-20983622D01*
X24943449Y-20983621D01*
X24837839Y-20728656D01*
X24784000Y-20457988D01*
X24784000Y-20182012D01*
X24837839Y-19911344D01*
X24943449Y-19656379D01*
X24994325Y-19580237D01*
X25096772Y-19426914D01*
X25291914Y-19231772D01*
X25447475Y-19127830D01*
X25521379Y-19078449D01*
X25670903Y-19016514D01*
X25776343Y-18972839D01*
X25910962Y-18946062D01*
X26047012Y-18919000D01*
X26322988Y-18919000D01*
X26459038Y-18946062D01*
X26459038Y-18946062D01*
G37*
G36*
X23499031Y-18922621D02*
G01*
X23528486Y-18931556D01*
X23555623Y-18946062D01*
X23579414Y-18965586D01*
X23598938Y-18989377D01*
X23613444Y-19016514D01*
X23622379Y-19045969D01*
X23626000Y-19082734D01*
X23626000Y-21557266D01*
X23622379Y-21594031D01*
X23613444Y-21623486D01*
X23598938Y-21650623D01*
X23579414Y-21674414D01*
X23555623Y-21693938D01*
X23528486Y-21708444D01*
X23499031Y-21717379D01*
X23462266Y-21721000D01*
X20987734Y-21721000D01*
X20950969Y-21717379D01*
X20921514Y-21708444D01*
X20894377Y-21693938D01*
X20870586Y-21674414D01*
X20851062Y-21650623D01*
X20836556Y-21623486D01*
X20827621Y-21594031D01*
X20824000Y-21557266D01*
X20824000Y-19082734D01*
X20827621Y-19045969D01*
X20836556Y-19016514D01*
X20851062Y-18989377D01*
X20870586Y-18965586D01*
X20894377Y-18946062D01*
X20921514Y-18931556D01*
X20950969Y-18922621D01*
X20987734Y-18919000D01*
X23462266Y-18919000D01*
X23499031Y-18922621D01*
X23499031Y-18922621D01*
G37*
G36*
X43424903Y-15942075D02*
G01*
X43652571Y-16036378D01*
X43857466Y-16173285D01*
X44031715Y-16347534D01*
X44168622Y-16552429D01*
X44262925Y-16780097D01*
X44311000Y-17021787D01*
X44311000Y-17268213D01*
X44262925Y-17509903D01*
X44168622Y-17737571D01*
X44031715Y-17942466D01*
X43857466Y-18116715D01*
X43652571Y-18253622D01*
X43652570Y-18253623D01*
X43652569Y-18253623D01*
X43424903Y-18347925D01*
X43183214Y-18396000D01*
X42936786Y-18396000D01*
X42695097Y-18347925D01*
X42467431Y-18253623D01*
X42467430Y-18253623D01*
X42467429Y-18253622D01*
X42262534Y-18116715D01*
X42088285Y-17942466D01*
X41951378Y-17737571D01*
X41857075Y-17509903D01*
X41809000Y-17268213D01*
X41809000Y-17021787D01*
X41857075Y-16780097D01*
X41951378Y-16552429D01*
X42088285Y-16347534D01*
X42262534Y-16173285D01*
X42467429Y-16036378D01*
X42695097Y-15942075D01*
X42936786Y-15894000D01*
X43183214Y-15894000D01*
X43424903Y-15942075D01*
X43424903Y-15942075D01*
G37*
G36*
X36811000Y-18396000D02*
G01*
X34309000Y-18396000D01*
X34309000Y-15894000D01*
X36811000Y-15894000D01*
X36811000Y-18396000D01*
X36811000Y-18396000D01*
G37*
G36*
X-9114682Y-15990153D02*
G01*
X-8896115Y-16080687D01*
X-8896113Y-16080688D01*
X-8699407Y-16212122D01*
X-8532122Y-16379407D01*
X-8416513Y-16552429D01*
X-8400687Y-16576115D01*
X-8310153Y-16794682D01*
X-8264000Y-17026710D01*
X-8264000Y-17263290D01*
X-8310153Y-17495318D01*
X-8400687Y-17713885D01*
X-8400688Y-17713887D01*
X-8532122Y-17910593D01*
X-8699407Y-18077878D01*
X-8896113Y-18209312D01*
X-8896114Y-18209313D01*
X-8896115Y-18209313D01*
X-9114682Y-18299847D01*
X-9346710Y-18346000D01*
X-9583290Y-18346000D01*
X-9815318Y-18299847D01*
X-10033885Y-18209313D01*
X-10033886Y-18209313D01*
X-10033887Y-18209312D01*
X-10230593Y-18077878D01*
X-10397878Y-17910593D01*
X-10529312Y-17713887D01*
X-10529313Y-17713885D01*
X-10619847Y-17495318D01*
X-10666000Y-17263290D01*
X-10666000Y-17026710D01*
X-10619847Y-16794682D01*
X-10529313Y-16576115D01*
X-10513487Y-16552429D01*
X-10397878Y-16379407D01*
X-10230593Y-16212122D01*
X-10033887Y-16080688D01*
X-10033885Y-16080687D01*
X-9815318Y-15990153D01*
X-9583290Y-15944000D01*
X-9346710Y-15944000D01*
X-9114682Y-15990153D01*
X-9114682Y-15990153D01*
G37*
G36*
X-36264000Y-18196000D02*
G01*
X-38666000Y-18196000D01*
X-38666000Y-16094000D01*
X-36264000Y-16094000D01*
X-36264000Y-18196000D01*
X-36264000Y-18196000D01*
G37*
G36*
X6331000Y-15856000D02*
G01*
X3829000Y-15856000D01*
X3829000Y-13354000D01*
X6331000Y-13354000D01*
X6331000Y-15856000D01*
X6331000Y-15856000D01*
G37*
G36*
X12944903Y-13402075D02*
G01*
X13172571Y-13496378D01*
X13377466Y-13633285D01*
X13551715Y-13807534D01*
X13688622Y-14012429D01*
X13782925Y-14240097D01*
X13831000Y-14481787D01*
X13831000Y-14728213D01*
X13782925Y-14969903D01*
X13688622Y-15197571D01*
X13551715Y-15402466D01*
X13377466Y-15576715D01*
X13172571Y-15713622D01*
X13172570Y-15713623D01*
X13172569Y-15713623D01*
X12944903Y-15807925D01*
X12703214Y-15856000D01*
X12456786Y-15856000D01*
X12215097Y-15807925D01*
X11987431Y-15713623D01*
X11987430Y-15713623D01*
X11987429Y-15713622D01*
X11782534Y-15576715D01*
X11608285Y-15402466D01*
X11471378Y-15197571D01*
X11377075Y-14969903D01*
X11329000Y-14728213D01*
X11329000Y-14481787D01*
X11377075Y-14240097D01*
X11471378Y-14012429D01*
X11608285Y-13807534D01*
X11782534Y-13633285D01*
X11987429Y-13496378D01*
X12215097Y-13402075D01*
X12456786Y-13354000D01*
X12703214Y-13354000D01*
X12944903Y-13402075D01*
X12944903Y-13402075D01*
G37*
G36*
X-42877415Y-7958802D02*
G01*
X-42727590Y-7988604D01*
X-42445326Y-8105521D01*
X-42191295Y-8275259D01*
X-41975259Y-8491295D01*
X-41805521Y-8745326D01*
X-41688604Y-9027590D01*
X-41629000Y-9327240D01*
X-41629000Y-9632760D01*
X-41688604Y-9932410D01*
X-41805521Y-10214674D01*
X-41975259Y-10468705D01*
X-42191295Y-10684741D01*
X-42445326Y-10854479D01*
X-42727590Y-10971396D01*
X-42877415Y-11001198D01*
X-43027239Y-11031000D01*
X-43332761Y-11031000D01*
X-43482585Y-11001198D01*
X-43632410Y-10971396D01*
X-43914674Y-10854479D01*
X-44168705Y-10684741D01*
X-44384741Y-10468705D01*
X-44554479Y-10214674D01*
X-44671396Y-9932410D01*
X-44731000Y-9632760D01*
X-44731000Y-9327240D01*
X-44671396Y-9027590D01*
X-44554479Y-8745326D01*
X-44384741Y-8491295D01*
X-44168705Y-8275259D01*
X-43914674Y-8105521D01*
X-43632410Y-7988604D01*
X-43482585Y-7958802D01*
X-43332761Y-7929000D01*
X-43027239Y-7929000D01*
X-42877415Y-7958802D01*
X-42877415Y-7958802D01*
G37*
G36*
X-4377415Y-7958802D02*
G01*
X-4227590Y-7988604D01*
X-3945326Y-8105521D01*
X-3691295Y-8275259D01*
X-3475259Y-8491295D01*
X-3305521Y-8745326D01*
X-3188604Y-9027590D01*
X-3129000Y-9327240D01*
X-3129000Y-9632760D01*
X-3188604Y-9932410D01*
X-3305521Y-10214674D01*
X-3475259Y-10468705D01*
X-3691295Y-10684741D01*
X-3945326Y-10854479D01*
X-4227590Y-10971396D01*
X-4377415Y-11001198D01*
X-4527239Y-11031000D01*
X-4832761Y-11031000D01*
X-4982585Y-11001198D01*
X-5132410Y-10971396D01*
X-5414674Y-10854479D01*
X-5668705Y-10684741D01*
X-5884741Y-10468705D01*
X-6054479Y-10214674D01*
X-6171396Y-9932410D01*
X-6231000Y-9632760D01*
X-6231000Y-9327240D01*
X-6171396Y-9027590D01*
X-6054479Y-8745326D01*
X-5884741Y-8491295D01*
X-5668705Y-8275259D01*
X-5414674Y-8105521D01*
X-5132410Y-7988604D01*
X-4982585Y-7958802D01*
X-4832761Y-7929000D01*
X-4527239Y-7929000D01*
X-4377415Y-7958802D01*
X-4377415Y-7958802D01*
G37*
G36*
X22206000Y-9506000D02*
G01*
X19704000Y-9506000D01*
X19704000Y-7004000D01*
X22206000Y-7004000D01*
X22206000Y-9506000D01*
X22206000Y-9506000D01*
G37*
G36*
X28819903Y-7052075D02*
G01*
X29047571Y-7146378D01*
X29252466Y-7283285D01*
X29426715Y-7457534D01*
X29426716Y-7457536D01*
X29563623Y-7662431D01*
X29657925Y-7890097D01*
X29706000Y-8131786D01*
X29706000Y-8378214D01*
X29657925Y-8619903D01*
X29563622Y-8847571D01*
X29426715Y-9052466D01*
X29252466Y-9226715D01*
X29047571Y-9363622D01*
X29047570Y-9363623D01*
X29047569Y-9363623D01*
X28819903Y-9457925D01*
X28578214Y-9506000D01*
X28331786Y-9506000D01*
X28090097Y-9457925D01*
X27862431Y-9363623D01*
X27862430Y-9363623D01*
X27862429Y-9363622D01*
X27657534Y-9226715D01*
X27483285Y-9052466D01*
X27346378Y-8847571D01*
X27252075Y-8619903D01*
X27204000Y-8378214D01*
X27204000Y-8131786D01*
X27252075Y-7890097D01*
X27346377Y-7662431D01*
X27483284Y-7457536D01*
X27483285Y-7457534D01*
X27657534Y-7283285D01*
X27862429Y-7146378D01*
X28090097Y-7052075D01*
X28331786Y-7004000D01*
X28578214Y-7004000D01*
X28819903Y-7052075D01*
X28819903Y-7052075D01*
G37*
G36*
X-4383614Y42431D02*
G01*
X-4227590Y11396D01*
X-3945326Y-105521D01*
X-3691295Y-275259D01*
X-3475259Y-491295D01*
X-3305521Y-745326D01*
X-3188604Y-1027590D01*
X-3129000Y-1327240D01*
X-3129000Y-1632760D01*
X-3188604Y-1932410D01*
X-3305521Y-2214674D01*
X-3475259Y-2468705D01*
X-3691295Y-2684741D01*
X-3945326Y-2854479D01*
X-4227590Y-2971396D01*
X-4377415Y-3001198D01*
X-4527239Y-3031000D01*
X-4832761Y-3031000D01*
X-4982585Y-3001198D01*
X-5132410Y-2971396D01*
X-5414674Y-2854479D01*
X-5668705Y-2684741D01*
X-5884741Y-2468705D01*
X-6054479Y-2214674D01*
X-6171396Y-1932410D01*
X-6231000Y-1632760D01*
X-6231000Y-1327240D01*
X-6171396Y-1027590D01*
X-6054479Y-745326D01*
X-5884741Y-491295D01*
X-5668705Y-275259D01*
X-5414674Y-105521D01*
X-5132410Y11396D01*
X-4976386Y42431D01*
X-4832761Y71000D01*
X-4527239Y71000D01*
X-4383614Y42431D01*
X-4383614Y42431D01*
G37*
G36*
X36811000Y-616000D02*
G01*
X34309000Y-616000D01*
X34309000Y1886000D01*
X36811000Y1886000D01*
X36811000Y-616000D01*
X36811000Y-616000D01*
G37*
G36*
X43424903Y1837925D02*
G01*
X43652571Y1743622D01*
X43857466Y1606715D01*
X44031715Y1432466D01*
X44031716Y1432464D01*
X44168623Y1227569D01*
X44262925Y999903D01*
X44311000Y758214D01*
X44311000Y511786D01*
X44262925Y270097D01*
X44180457Y71000D01*
X44168622Y42429D01*
X44031715Y-162466D01*
X43857466Y-336715D01*
X43652571Y-473622D01*
X43652570Y-473623D01*
X43652569Y-473623D01*
X43424903Y-567925D01*
X43183214Y-616000D01*
X42936786Y-616000D01*
X42695097Y-567925D01*
X42467431Y-473623D01*
X42467430Y-473623D01*
X42467429Y-473622D01*
X42262534Y-336715D01*
X42088285Y-162466D01*
X41951378Y42429D01*
X41939544Y71000D01*
X41857075Y270097D01*
X41809000Y511786D01*
X41809000Y758214D01*
X41857075Y999903D01*
X41951377Y1227569D01*
X42088284Y1432464D01*
X42088285Y1432466D01*
X42262534Y1606715D01*
X42467429Y1743622D01*
X42695097Y1837925D01*
X42936786Y1886000D01*
X43183214Y1886000D01*
X43424903Y1837925D01*
X43424903Y1837925D01*
G37*
G36*
X-41629000Y-281000D02*
G01*
X-44731000Y-281000D01*
X-44731000Y2821000D01*
X-41629000Y2821000D01*
X-41629000Y-281000D01*
X-41629000Y-281000D01*
G37*
G36*
X12944903Y4377925D02*
G01*
X13172571Y4283622D01*
X13377466Y4146715D01*
X13551715Y3972466D01*
X13688622Y3767571D01*
X13782925Y3539903D01*
X13831000Y3298213D01*
X13831000Y3051787D01*
X13782925Y2810097D01*
X13688622Y2582429D01*
X13551715Y2377534D01*
X13377466Y2203285D01*
X13172571Y2066378D01*
X13172570Y2066377D01*
X13172569Y2066377D01*
X12944903Y1972075D01*
X12703214Y1924000D01*
X12456786Y1924000D01*
X12215097Y1972075D01*
X11987431Y2066377D01*
X11987430Y2066377D01*
X11987429Y2066378D01*
X11782534Y2203285D01*
X11608285Y2377534D01*
X11471378Y2582429D01*
X11377075Y2810097D01*
X11329000Y3051787D01*
X11329000Y3298213D01*
X11377075Y3539903D01*
X11471378Y3767571D01*
X11608285Y3972466D01*
X11782534Y4146715D01*
X11987429Y4283622D01*
X12215097Y4377925D01*
X12456786Y4426000D01*
X12703214Y4426000D01*
X12944903Y4377925D01*
X12944903Y4377925D01*
G37*
G36*
X6331000Y1924000D02*
G01*
X3829000Y1924000D01*
X3829000Y4426000D01*
X6331000Y4426000D01*
X6331000Y1924000D01*
X6331000Y1924000D01*
G37*
G36*
X28819903Y10727925D02*
G01*
X29047571Y10633622D01*
X29252466Y10496715D01*
X29426715Y10322466D01*
X29563622Y10117571D01*
X29657925Y9889903D01*
X29706000Y9648213D01*
X29706000Y9401787D01*
X29657925Y9160097D01*
X29563622Y8932429D01*
X29426715Y8727534D01*
X29252466Y8553285D01*
X29047571Y8416378D01*
X29047570Y8416377D01*
X29047569Y8416377D01*
X28819903Y8322075D01*
X28578214Y8274000D01*
X28331786Y8274000D01*
X28090097Y8322075D01*
X27862431Y8416377D01*
X27862430Y8416377D01*
X27862429Y8416378D01*
X27657534Y8553285D01*
X27483285Y8727534D01*
X27346378Y8932429D01*
X27252075Y9160097D01*
X27204000Y9401787D01*
X27204000Y9648213D01*
X27252075Y9889903D01*
X27346378Y10117571D01*
X27483285Y10322466D01*
X27657534Y10496715D01*
X27862429Y10633622D01*
X28090097Y10727925D01*
X28331786Y10776000D01*
X28578214Y10776000D01*
X28819903Y10727925D01*
X28819903Y10727925D01*
G37*
G36*
X22206000Y8274000D02*
G01*
X19704000Y8274000D01*
X19704000Y10776000D01*
X22206000Y10776000D01*
X22206000Y8274000D01*
X22206000Y8274000D01*
G37*
G36*
X-20706772Y14948297D02*
G01*
X-20551900Y14884147D01*
X-20412519Y14791015D01*
X-20293985Y14672481D01*
X-20200853Y14533100D01*
X-20136703Y14378228D01*
X-20104000Y14213816D01*
X-20104000Y14046184D01*
X-20136703Y13881772D01*
X-20200853Y13726900D01*
X-20293985Y13587519D01*
X-20412519Y13468985D01*
X-20551900Y13375853D01*
X-20706772Y13311703D01*
X-20871184Y13279000D01*
X-21038816Y13279000D01*
X-21203228Y13311703D01*
X-21358100Y13375853D01*
X-21497481Y13468985D01*
X-21616015Y13587519D01*
X-21709147Y13726900D01*
X-21773297Y13881772D01*
X-21806000Y14046184D01*
X-21806000Y14213816D01*
X-21773297Y14378228D01*
X-21709147Y14533100D01*
X-21616015Y14672481D01*
X-21497481Y14791015D01*
X-21358100Y14884147D01*
X-21203228Y14948297D01*
X-21038816Y14981000D01*
X-20871184Y14981000D01*
X-20706772Y14948297D01*
X-20706772Y14948297D01*
G37*
G36*
X-284682Y17029847D02*
G01*
X-66115Y16939313D01*
X-66113Y16939312D01*
X130593Y16807878D01*
X297878Y16640593D01*
X429312Y16443887D01*
X429313Y16443885D01*
X519847Y16225318D01*
X566000Y15993290D01*
X566000Y15756710D01*
X519847Y15524682D01*
X429313Y15306115D01*
X429312Y15306113D01*
X297878Y15109407D01*
X130593Y14942122D01*
X-66113Y14810688D01*
X-66114Y14810687D01*
X-66115Y14810687D01*
X-284682Y14720153D01*
X-516710Y14674000D01*
X-753290Y14674000D01*
X-985318Y14720153D01*
X-1203885Y14810687D01*
X-1203886Y14810687D01*
X-1203887Y14810688D01*
X-1400593Y14942122D01*
X-1567878Y15109407D01*
X-1699312Y15306113D01*
X-1699313Y15306115D01*
X-1789847Y15524682D01*
X-1836000Y15756710D01*
X-1836000Y15993290D01*
X-1789847Y16225318D01*
X-1699313Y16443885D01*
X-1699312Y16443887D01*
X-1567878Y16640593D01*
X-1400593Y16807878D01*
X-1203887Y16939312D01*
X-1203885Y16939313D01*
X-985318Y17029847D01*
X-753290Y17076000D01*
X-516710Y17076000D01*
X-284682Y17029847D01*
X-284682Y17029847D01*
G37*
G36*
X13081000Y14859000D02*
G01*
X9779000Y14859000D01*
X9779000Y18161000D01*
X13081000Y18161000D01*
X13081000Y14859000D01*
X13081000Y14859000D01*
G37*
G36*
X-31431567Y18995107D02*
G01*
X-31341343Y18977161D01*
X-31235733Y18933415D01*
X-31086379Y18871551D01*
X-31086378Y18871550D01*
X-30856914Y18718228D01*
X-30661772Y18523086D01*
X-30589552Y18415000D01*
X-30508449Y18293621D01*
X-30402839Y18038656D01*
X-30349000Y17767988D01*
X-30349000Y17492012D01*
X-30358693Y17443284D01*
X-30402839Y17221343D01*
X-30446585Y17115733D01*
X-30508449Y16966379D01*
X-30508450Y16966378D01*
X-30661772Y16736914D01*
X-30856914Y16541772D01*
X-31003410Y16443887D01*
X-31086379Y16388449D01*
X-31235733Y16326585D01*
X-31341343Y16282839D01*
X-31431567Y16264893D01*
X-31612012Y16229000D01*
X-31887988Y16229000D01*
X-32068433Y16264893D01*
X-32158657Y16282839D01*
X-32264267Y16326585D01*
X-32413621Y16388449D01*
X-32496590Y16443887D01*
X-32643086Y16541772D01*
X-32838228Y16736914D01*
X-32991550Y16966378D01*
X-32991551Y16966379D01*
X-33053415Y17115733D01*
X-33097161Y17221343D01*
X-33141307Y17443284D01*
X-33151000Y17492012D01*
X-33151000Y17767988D01*
X-33097161Y18038656D01*
X-32991551Y18293621D01*
X-32910448Y18415000D01*
X-32838228Y18523086D01*
X-32643086Y18718228D01*
X-32413622Y18871550D01*
X-32413621Y18871551D01*
X-32264267Y18933415D01*
X-32158657Y18977161D01*
X-32068433Y18995107D01*
X-31887988Y19031000D01*
X-31612012Y19031000D01*
X-31431567Y18995107D01*
X-31431567Y18995107D01*
G37*
G36*
X43424903Y19617925D02*
G01*
X43525236Y19576366D01*
X43652571Y19523622D01*
X43857466Y19386715D01*
X44031715Y19212466D01*
X44168622Y19007571D01*
X44262925Y18779903D01*
X44311000Y18538213D01*
X44311000Y18291787D01*
X44262925Y18050097D01*
X44168622Y17822429D01*
X44031715Y17617534D01*
X43857466Y17443285D01*
X43652571Y17306378D01*
X43652570Y17306377D01*
X43652569Y17306377D01*
X43424903Y17212075D01*
X43183214Y17164000D01*
X42936786Y17164000D01*
X42695097Y17212075D01*
X42467431Y17306377D01*
X42467430Y17306377D01*
X42467429Y17306378D01*
X42262534Y17443285D01*
X42088285Y17617534D01*
X41951378Y17822429D01*
X41857075Y18050097D01*
X41809000Y18291787D01*
X41809000Y18538213D01*
X41857075Y18779903D01*
X41951378Y19007571D01*
X42088285Y19212466D01*
X42262534Y19386715D01*
X42467429Y19523622D01*
X42594765Y19576366D01*
X42695097Y19617925D01*
X42936786Y19666000D01*
X43183214Y19666000D01*
X43424903Y19617925D01*
X43424903Y19617925D01*
G37*
G36*
X36811000Y17164000D02*
G01*
X34309000Y17164000D01*
X34309000Y19666000D01*
X36811000Y19666000D01*
X36811000Y17164000D01*
X36811000Y17164000D01*
G37*
G36*
X-11700097Y19617925D02*
G01*
X-11599764Y19576366D01*
X-11472429Y19523622D01*
X-11267534Y19386715D01*
X-11093285Y19212466D01*
X-10956378Y19007571D01*
X-10862075Y18779903D01*
X-10814000Y18538213D01*
X-10814000Y18291787D01*
X-10862075Y18050097D01*
X-10956378Y17822429D01*
X-11093285Y17617534D01*
X-11267534Y17443285D01*
X-11472429Y17306378D01*
X-11472430Y17306377D01*
X-11472431Y17306377D01*
X-11700097Y17212075D01*
X-11941786Y17164000D01*
X-12188214Y17164000D01*
X-12429903Y17212075D01*
X-12657569Y17306377D01*
X-12657570Y17306377D01*
X-12657571Y17306378D01*
X-12862466Y17443285D01*
X-13036715Y17617534D01*
X-13173622Y17822429D01*
X-13267925Y18050097D01*
X-13316000Y18291787D01*
X-13316000Y18538213D01*
X-13267925Y18779903D01*
X-13173622Y19007571D01*
X-13036715Y19212466D01*
X-12862466Y19386715D01*
X-12657571Y19523622D01*
X-12530235Y19576366D01*
X-12429903Y19617925D01*
X-12188214Y19666000D01*
X-11941786Y19666000D01*
X-11700097Y19617925D01*
X-11700097Y19617925D01*
G37*
G36*
X-4199761Y19647899D02*
G01*
X-3963947Y19576366D01*
X-3746619Y19460201D01*
X-3556129Y19303871D01*
X-3399799Y19113381D01*
X-3283634Y18896053D01*
X-3212101Y18660239D01*
X-3187947Y18415000D01*
X-3212101Y18169761D01*
X-3283634Y17933947D01*
X-3399799Y17716619D01*
X-3556129Y17526129D01*
X-3746619Y17369799D01*
X-3963947Y17253634D01*
X-4199761Y17182101D01*
X-4383543Y17164000D01*
X-4506457Y17164000D01*
X-4690239Y17182101D01*
X-4926053Y17253634D01*
X-5143381Y17369799D01*
X-5333871Y17526129D01*
X-5490201Y17716619D01*
X-5606366Y17933947D01*
X-5677899Y18169761D01*
X-5702053Y18415000D01*
X-5677899Y18660239D01*
X-5606366Y18896053D01*
X-5490201Y19113381D01*
X-5333871Y19303871D01*
X-5143381Y19460201D01*
X-4926053Y19576366D01*
X-4690239Y19647899D01*
X-4506457Y19666000D01*
X-4383543Y19666000D01*
X-4199761Y19647899D01*
X-4199761Y19647899D01*
G37*
G36*
X11805256Y23198702D02*
G01*
X11911579Y23177553D01*
X12212042Y23053097D01*
X12482451Y22872415D01*
X12712415Y22642451D01*
X12893097Y22372042D01*
X12893098Y22372040D01*
X12906306Y22340153D01*
X13017553Y22071579D01*
X13081000Y21752609D01*
X13081000Y21427391D01*
X13017553Y21108421D01*
X12893097Y20807958D01*
X12712415Y20537549D01*
X12482451Y20307585D01*
X12212042Y20126903D01*
X11911579Y20002447D01*
X11805256Y19981298D01*
X11592611Y19939000D01*
X11267389Y19939000D01*
X11054744Y19981298D01*
X10948421Y20002447D01*
X10647958Y20126903D01*
X10377549Y20307585D01*
X10147585Y20537549D01*
X9966903Y20807958D01*
X9842447Y21108421D01*
X9779000Y21427391D01*
X9779000Y21752609D01*
X9842447Y22071579D01*
X9953694Y22340153D01*
X9966902Y22372040D01*
X9966903Y22372042D01*
X10147585Y22642451D01*
X10377549Y22872415D01*
X10647958Y23053097D01*
X10948421Y23177553D01*
X11054744Y23198702D01*
X11267389Y23241000D01*
X11592611Y23241000D01*
X11805256Y23198702D01*
X11805256Y23198702D01*
G37*
G36*
X-30475969Y22987379D02*
G01*
X-30446514Y22978444D01*
X-30419377Y22963938D01*
X-30395586Y22944414D01*
X-30376062Y22920623D01*
X-30361556Y22893486D01*
X-30352621Y22864031D01*
X-30349000Y22827266D01*
X-30349000Y20352734D01*
X-30352621Y20315969D01*
X-30361556Y20286514D01*
X-30376062Y20259377D01*
X-30395586Y20235586D01*
X-30419377Y20216062D01*
X-30446514Y20201556D01*
X-30475969Y20192621D01*
X-30512734Y20189000D01*
X-32987266Y20189000D01*
X-33024031Y20192621D01*
X-33053486Y20201556D01*
X-33080623Y20216062D01*
X-33104414Y20235586D01*
X-33123938Y20259377D01*
X-33138444Y20286514D01*
X-33147379Y20315969D01*
X-33151000Y20352734D01*
X-33151000Y22827266D01*
X-33147379Y22864031D01*
X-33138444Y22893486D01*
X-33123938Y22920623D01*
X-33104414Y22944414D01*
X-33080623Y22963938D01*
X-33053486Y22978444D01*
X-33024031Y22987379D01*
X-32987266Y22991000D01*
X-30512734Y22991000D01*
X-30475969Y22987379D01*
X-30475969Y22987379D01*
G37*
G36*
X-284682Y24649847D02*
G01*
X-66115Y24559313D01*
X-66113Y24559312D01*
X130593Y24427878D01*
X297878Y24260593D01*
X429312Y24063887D01*
X429313Y24063885D01*
X519847Y23845318D01*
X566000Y23613290D01*
X566000Y23376710D01*
X519847Y23144682D01*
X448009Y22971251D01*
X429312Y22926113D01*
X297878Y22729407D01*
X130593Y22562122D01*
X-66113Y22430688D01*
X-66114Y22430687D01*
X-66115Y22430687D01*
X-284682Y22340153D01*
X-516710Y22294000D01*
X-753290Y22294000D01*
X-985318Y22340153D01*
X-1203885Y22430687D01*
X-1203886Y22430687D01*
X-1203887Y22430688D01*
X-1400593Y22562122D01*
X-1567878Y22729407D01*
X-1699312Y22926113D01*
X-1718009Y22971251D01*
X-1789847Y23144682D01*
X-1836000Y23376710D01*
X-1836000Y23613290D01*
X-1789847Y23845318D01*
X-1699313Y24063885D01*
X-1699312Y24063887D01*
X-1567878Y24260593D01*
X-1400593Y24427878D01*
X-1203887Y24559312D01*
X-1203885Y24559313D01*
X-985318Y24649847D01*
X-753290Y24696000D01*
X-516710Y24696000D01*
X-284682Y24649847D01*
X-284682Y24649847D01*
G37*
G36*
X-20706772Y24948297D02*
G01*
X-20551900Y24884147D01*
X-20412519Y24791015D01*
X-20293985Y24672481D01*
X-20200853Y24533100D01*
X-20136703Y24378228D01*
X-20104000Y24213816D01*
X-20104000Y24046184D01*
X-20136703Y23881772D01*
X-20200853Y23726900D01*
X-20293985Y23587519D01*
X-20412519Y23468985D01*
X-20551900Y23375853D01*
X-20706772Y23311703D01*
X-20871184Y23279000D01*
X-21038816Y23279000D01*
X-21203228Y23311703D01*
X-21358100Y23375853D01*
X-21497481Y23468985D01*
X-21616015Y23587519D01*
X-21709147Y23726900D01*
X-21773297Y23881772D01*
X-21806000Y24046184D01*
X-21806000Y24213816D01*
X-21773297Y24378228D01*
X-21709147Y24533100D01*
X-21616015Y24672481D01*
X-21497481Y24791015D01*
X-21358100Y24884147D01*
X-21203228Y24948297D01*
X-21038816Y24981000D01*
X-20871184Y24981000D01*
X-20706772Y24948297D01*
X-20706772Y24948297D01*
G37*
G36*
X-9943373Y27072963D02*
G01*
X-9773534Y27021443D01*
X-9617009Y26937778D01*
X-9581271Y26908448D01*
X-9479814Y26825186D01*
X-9396552Y26723729D01*
X-9367222Y26687991D01*
X-9283557Y26531466D01*
X-9232037Y26361626D01*
X-9219000Y26229257D01*
X-9219000Y25840742D01*
X-9232037Y25708373D01*
X-9283557Y25538534D01*
X-9367222Y25382009D01*
X-9396552Y25346271D01*
X-9479814Y25244814D01*
X-9617011Y25132221D01*
X-9773533Y25048558D01*
X-9773535Y25048557D01*
X-9943374Y24997037D01*
X-10120000Y24979641D01*
X-10296627Y24997037D01*
X-10466466Y25048557D01*
X-10622991Y25132222D01*
X-10665250Y25166903D01*
X-10760186Y25244814D01*
X-10872779Y25382011D01*
X-10956442Y25538533D01*
X-10956443Y25538535D01*
X-11007963Y25708374D01*
X-11021000Y25840743D01*
X-11021000Y26229258D01*
X-11007963Y26361627D01*
X-10956443Y26531466D01*
X-10872778Y26687991D01*
X-10760185Y26825185D01*
X-10622990Y26937778D01*
X-10466465Y27021443D01*
X-10296626Y27072963D01*
X-10120000Y27090359D01*
X-9943373Y27072963D01*
X-9943373Y27072963D01*
G37*
G36*
X-6861400Y27082011D02*
G01*
X-6828348Y27071985D01*
X-6797897Y27055708D01*
X-6771201Y27033799D01*
X-6749292Y27007103D01*
X-6733015Y26976652D01*
X-6722989Y26943600D01*
X-6719000Y26903097D01*
X-6719000Y25166903D01*
X-6722989Y25126400D01*
X-6733015Y25093348D01*
X-6749292Y25062897D01*
X-6771201Y25036201D01*
X-6797897Y25014292D01*
X-6828348Y24998015D01*
X-6861400Y24987989D01*
X-6901903Y24984000D01*
X-8338097Y24984000D01*
X-8378600Y24987989D01*
X-8411652Y24998015D01*
X-8442103Y25014292D01*
X-8468799Y25036201D01*
X-8490708Y25062897D01*
X-8506985Y25093348D01*
X-8517011Y25126400D01*
X-8521000Y25166903D01*
X-8521000Y26903097D01*
X-8517011Y26943600D01*
X-8506985Y26976652D01*
X-8490708Y27007103D01*
X-8468799Y27033799D01*
X-8442103Y27055708D01*
X-8411652Y27071985D01*
X-8378600Y27082011D01*
X-8338097Y27086000D01*
X-6901903Y27086000D01*
X-6861400Y27082011D01*
X-6861400Y27082011D01*
G37*
G36*
X11805256Y28278702D02*
G01*
X11911579Y28257553D01*
X12212042Y28133097D01*
X12482451Y27952415D01*
X12712415Y27722451D01*
X12893097Y27452042D01*
X13005041Y27181786D01*
X13017553Y27151578D01*
X13081000Y26832611D01*
X13081000Y26507389D01*
X13052005Y26361624D01*
X13017553Y26188421D01*
X12893097Y25887958D01*
X12712415Y25617549D01*
X12482451Y25387585D01*
X12212042Y25206903D01*
X11911579Y25082447D01*
X11813294Y25062897D01*
X11592611Y25019000D01*
X11267389Y25019000D01*
X11046706Y25062897D01*
X10948421Y25082447D01*
X10647958Y25206903D01*
X10377549Y25387585D01*
X10147585Y25617549D01*
X9966903Y25887958D01*
X9842447Y26188421D01*
X9807995Y26361624D01*
X9779000Y26507389D01*
X9779000Y26832611D01*
X9842447Y27151578D01*
X9854960Y27181786D01*
X9966903Y27452042D01*
X10147585Y27722451D01*
X10377549Y27952415D01*
X10647958Y28133097D01*
X10948421Y28257553D01*
X11054744Y28278702D01*
X11267389Y28321000D01*
X11592611Y28321000D01*
X11805256Y28278702D01*
X11805256Y28278702D01*
G37*
G36*
X22206000Y26054000D02*
G01*
X19704000Y26054000D01*
X19704000Y28556000D01*
X22206000Y28556000D01*
X22206000Y26054000D01*
X22206000Y26054000D01*
G37*
G36*
X28819903Y28507925D02*
G01*
X29047571Y28413622D01*
X29252466Y28276715D01*
X29426715Y28102466D01*
X29526976Y27952415D01*
X29563623Y27897569D01*
X29657925Y27669903D01*
X29706000Y27428214D01*
X29706000Y27181786D01*
X29657925Y26940097D01*
X29608594Y26821000D01*
X29563622Y26712429D01*
X29426715Y26507534D01*
X29252466Y26333285D01*
X29047571Y26196378D01*
X29047570Y26196377D01*
X29047569Y26196377D01*
X28819903Y26102075D01*
X28578214Y26054000D01*
X28331786Y26054000D01*
X28090097Y26102075D01*
X27862431Y26196377D01*
X27862430Y26196377D01*
X27862429Y26196378D01*
X27657534Y26333285D01*
X27483285Y26507534D01*
X27346378Y26712429D01*
X27301407Y26821000D01*
X27252075Y26940097D01*
X27204000Y27181786D01*
X27204000Y27428214D01*
X27252075Y27669903D01*
X27346377Y27897569D01*
X27383024Y27952415D01*
X27483285Y28102466D01*
X27657534Y28276715D01*
X27862429Y28413622D01*
X28090097Y28507925D01*
X28331786Y28556000D01*
X28578214Y28556000D01*
X28819903Y28507925D01*
X28819903Y28507925D01*
G37*
G36*
X-38707415Y32001198D02*
G01*
X-38557590Y31971396D01*
X-38275326Y31854479D01*
X-38021295Y31684741D01*
X-37805259Y31468705D01*
X-37635521Y31214674D01*
X-37518604Y30932410D01*
X-37518604Y30932409D01*
X-37459000Y30632761D01*
X-37459000Y30327239D01*
X-37467024Y30286902D01*
X-37518604Y30027590D01*
X-37635521Y29745326D01*
X-37805259Y29491295D01*
X-38021295Y29275259D01*
X-38275326Y29105521D01*
X-38557590Y28988604D01*
X-38707415Y28958802D01*
X-38857239Y28929000D01*
X-39162761Y28929000D01*
X-39312585Y28958802D01*
X-39462410Y28988604D01*
X-39744674Y29105521D01*
X-39998705Y29275259D01*
X-40214741Y29491295D01*
X-40384479Y29745326D01*
X-40501396Y30027590D01*
X-40552976Y30286902D01*
X-40561000Y30327239D01*
X-40561000Y30632761D01*
X-40501396Y30932409D01*
X-40501396Y30932410D01*
X-40384479Y31214674D01*
X-40214741Y31468705D01*
X-39998705Y31684741D01*
X-39744674Y31854479D01*
X-39462410Y31971396D01*
X-39312585Y32001198D01*
X-39162761Y32031000D01*
X-38857239Y32031000D01*
X-38707415Y32001198D01*
X-38707415Y32001198D01*
G37*
G36*
X-16207415Y32001198D02*
G01*
X-16057590Y31971396D01*
X-15775326Y31854479D01*
X-15521295Y31684741D01*
X-15305259Y31468705D01*
X-15135521Y31214674D01*
X-15018604Y30932410D01*
X-15018604Y30932409D01*
X-14959000Y30632761D01*
X-14959000Y30327239D01*
X-14967024Y30286902D01*
X-15018604Y30027590D01*
X-15135521Y29745326D01*
X-15305259Y29491295D01*
X-15521295Y29275259D01*
X-15775326Y29105521D01*
X-16057590Y28988604D01*
X-16207415Y28958802D01*
X-16357239Y28929000D01*
X-16662761Y28929000D01*
X-16812585Y28958802D01*
X-16962410Y28988604D01*
X-17244674Y29105521D01*
X-17498705Y29275259D01*
X-17714741Y29491295D01*
X-17884479Y29745326D01*
X-18001396Y30027590D01*
X-18052976Y30286902D01*
X-18061000Y30327239D01*
X-18061000Y30632761D01*
X-18001396Y30932409D01*
X-18001396Y30932410D01*
X-17884479Y31214674D01*
X-17714741Y31468705D01*
X-17498705Y31684741D01*
X-17244674Y31854479D01*
X-16962410Y31971396D01*
X-16812585Y32001198D01*
X-16662761Y32031000D01*
X-16357239Y32031000D01*
X-16207415Y32001198D01*
X-16207415Y32001198D01*
G37*
G36*
X-27441567Y31845107D02*
G01*
X-27351343Y31827161D01*
X-27245733Y31783415D01*
X-27096379Y31721551D01*
X-27020237Y31670675D01*
X-26866914Y31568228D01*
X-26671772Y31373086D01*
X-26601838Y31268422D01*
X-26518449Y31143621D01*
X-26456585Y30994267D01*
X-26430962Y30932410D01*
X-26412839Y30888656D01*
X-26359000Y30617988D01*
X-26359000Y30342012D01*
X-26361939Y30327239D01*
X-26412839Y30071343D01*
X-26456585Y29965733D01*
X-26518449Y29816379D01*
X-26518450Y29816378D01*
X-26671772Y29586914D01*
X-26866914Y29391772D01*
X-27020237Y29289325D01*
X-27096379Y29238449D01*
X-27245733Y29176585D01*
X-27351343Y29132839D01*
X-27441567Y29114893D01*
X-27622012Y29079000D01*
X-27897988Y29079000D01*
X-28078433Y29114893D01*
X-28168657Y29132839D01*
X-28274267Y29176585D01*
X-28423621Y29238449D01*
X-28499763Y29289325D01*
X-28653086Y29391772D01*
X-28848228Y29586914D01*
X-29001550Y29816378D01*
X-29001551Y29816379D01*
X-29063415Y29965733D01*
X-29107161Y30071343D01*
X-29158061Y30327239D01*
X-29161000Y30342012D01*
X-29161000Y30617988D01*
X-29107161Y30888656D01*
X-29089037Y30932410D01*
X-29063415Y30994267D01*
X-29001551Y31143621D01*
X-28918162Y31268422D01*
X-28848228Y31373086D01*
X-28653086Y31568228D01*
X-28499763Y31670675D01*
X-28423621Y31721551D01*
X-28274267Y31783415D01*
X-28168657Y31827161D01*
X-28078433Y31845107D01*
X-27897988Y31881000D01*
X-27622012Y31881000D01*
X-27441567Y31845107D01*
X-27441567Y31845107D01*
G37*
G36*
X11805256Y33358702D02*
G01*
X11911579Y33337553D01*
X12212042Y33213097D01*
X12482451Y33032415D01*
X12712415Y32802451D01*
X12893097Y32532042D01*
X12893098Y32532040D01*
X13017553Y32231578D01*
X13081000Y31912611D01*
X13081000Y31587389D01*
X13070957Y31536902D01*
X13017553Y31268421D01*
X12893097Y30967958D01*
X12712415Y30697549D01*
X12482451Y30467585D01*
X12212042Y30286903D01*
X11911579Y30162447D01*
X11805256Y30141298D01*
X11592611Y30099000D01*
X11267389Y30099000D01*
X11054744Y30141298D01*
X10948421Y30162447D01*
X10647958Y30286903D01*
X10377549Y30467585D01*
X10147585Y30697549D01*
X9966903Y30967958D01*
X9842447Y31268421D01*
X9789043Y31536902D01*
X9779000Y31587389D01*
X9779000Y31912611D01*
X9842447Y32231578D01*
X9966902Y32532040D01*
X9966903Y32532042D01*
X10147585Y32802451D01*
X10377549Y33032415D01*
X10647958Y33213097D01*
X10948421Y33337553D01*
X11054744Y33358702D01*
X11267389Y33401000D01*
X11592611Y33401000D01*
X11805256Y33358702D01*
X11805256Y33358702D01*
G37*
G36*
X-44124744Y34608702D02*
G01*
X-44018421Y34587553D01*
X-43717958Y34463097D01*
X-43447549Y34282415D01*
X-43217585Y34052451D01*
X-43186092Y34005318D01*
X-43036902Y33782040D01*
X-42912447Y33481578D01*
X-42859042Y33213097D01*
X-42849000Y33162609D01*
X-42849000Y32837391D01*
X-42912447Y32518421D01*
X-43036903Y32217958D01*
X-43217585Y31947549D01*
X-43447549Y31717585D01*
X-43717958Y31536903D01*
X-44018421Y31412447D01*
X-44124744Y31391298D01*
X-44337389Y31349000D01*
X-44662611Y31349000D01*
X-44875256Y31391298D01*
X-44981579Y31412447D01*
X-45282042Y31536903D01*
X-45552451Y31717585D01*
X-45782415Y31947549D01*
X-45963097Y32217958D01*
X-46087553Y32518421D01*
X-46151000Y32837391D01*
X-46151000Y33162609D01*
X-46140957Y33213097D01*
X-46087553Y33481578D01*
X-45963098Y33782040D01*
X-45813908Y34005318D01*
X-45782415Y34052451D01*
X-45552451Y34282415D01*
X-45282042Y34463097D01*
X-44981579Y34587553D01*
X-44875256Y34608702D01*
X-44662611Y34651000D01*
X-44337389Y34651000D01*
X-44124744Y34608702D01*
X-44124744Y34608702D01*
G37*
G36*
X44875256Y34608702D02*
G01*
X44981579Y34587553D01*
X45282042Y34463097D01*
X45552451Y34282415D01*
X45782415Y34052451D01*
X45813908Y34005318D01*
X45963098Y33782040D01*
X46087553Y33481578D01*
X46140958Y33213097D01*
X46151000Y33162609D01*
X46151000Y32837391D01*
X46087553Y32518421D01*
X45963097Y32217958D01*
X45782415Y31947549D01*
X45552451Y31717585D01*
X45282042Y31536903D01*
X44981579Y31412447D01*
X44875256Y31391298D01*
X44662611Y31349000D01*
X44337389Y31349000D01*
X44124744Y31391298D01*
X44018421Y31412447D01*
X43717958Y31536903D01*
X43447549Y31717585D01*
X43217585Y31947549D01*
X43036903Y32217958D01*
X42912447Y32518421D01*
X42849000Y32837391D01*
X42849000Y33162609D01*
X42859043Y33213097D01*
X42912447Y33481578D01*
X43036902Y33782040D01*
X43186092Y34005318D01*
X43217585Y34052451D01*
X43447549Y34282415D01*
X43717958Y34463097D01*
X44018421Y34587553D01*
X44124744Y34608702D01*
X44337389Y34651000D01*
X44662611Y34651000D01*
X44875256Y34608702D01*
X44875256Y34608702D01*
G37*
G36*
X7335318Y34809847D02*
G01*
X7553885Y34719313D01*
X7553887Y34719312D01*
X7750593Y34587878D01*
X7917878Y34420593D01*
X8010204Y34282416D01*
X8049313Y34223885D01*
X8139847Y34005318D01*
X8186000Y33773290D01*
X8186000Y33536710D01*
X8139847Y33304682D01*
X8101911Y33213098D01*
X8049312Y33086113D01*
X7917878Y32889407D01*
X7750593Y32722122D01*
X7553887Y32590688D01*
X7553886Y32590687D01*
X7553885Y32590687D01*
X7335318Y32500153D01*
X7103290Y32454000D01*
X6866710Y32454000D01*
X6634682Y32500153D01*
X6416115Y32590687D01*
X6416114Y32590687D01*
X6416113Y32590688D01*
X6219407Y32722122D01*
X6052122Y32889407D01*
X5920688Y33086113D01*
X5868089Y33213098D01*
X5830153Y33304682D01*
X5784000Y33536710D01*
X5784000Y33773290D01*
X5830153Y34005318D01*
X5920687Y34223885D01*
X5959796Y34282416D01*
X6052122Y34420593D01*
X6219407Y34587878D01*
X6416113Y34719312D01*
X6416115Y34719313D01*
X6634682Y34809847D01*
X6866710Y34856000D01*
X7103290Y34856000D01*
X7335318Y34809847D01*
X7335318Y34809847D01*
G37*
G36*
X566000Y32454000D02*
G01*
X-1836000Y32454000D01*
X-1836000Y34856000D01*
X566000Y34856000D01*
X566000Y32454000D01*
X566000Y32454000D01*
G37*
M02*
